<svg width="197" height="197" viewBox="0 0 197 197" fill="none" xmlns="http://www.w3.org/2000/svg">
<circle cx="98.5" cy="98.5" r="82" stroke="url(#paint0_linear)" stroke-width="3"/>
<path d="M99.5 88V79.4343C109.144 80.2004 116.75 88.287 116.75 98.125C116.75 101.286 115.968 104.28 114.569 106.86L114.035 107.844L114.827 108.636L119.754 113.563L121.079 114.888L122.082 113.306C124.859 108.926 126.5 103.721 126.5 98.125C126.5 82.8822 114.548 70.4432 99.5 69.6638V61V57.3787L96.9393 59.9393L83.4393 73.4393L82.3787 74.5L83.4393 75.5607L96.9393 89.0607L99.5 91.6213V88ZM96.5 108.25V116.816C86.8565 116.05 79.25 107.963 79.25 98.125C79.25 94.964 80.0323 91.97 81.4312 89.3899L81.9647 88.4059L81.1732 87.6143L76.2457 82.6868L74.9213 81.3625L73.9182 82.9442C71.1405 87.3244 69.5 92.5288 69.5 98.125C69.5 113.368 81.452 125.807 96.5 126.586V135.25V138.871L99.0607 136.311L112.561 122.811L113.621 121.75L112.561 120.689L99.0607 107.189L96.5 104.629V108.25Z" stroke="url(#paint1_linear)" stroke-width="3"/>
<circle opacity="0.5" cx="98.5" cy="98.5" r="91" stroke="url(#paint2_linear)"/>
<circle opacity="0.2" cx="98.5" cy="98.5" r="98" stroke="url(#paint3_linear)"/>
<defs>
<linearGradient id="paint0_linear" x1="179" y1="98" x2="18" y2="98" gradientUnits="userSpaceOnUse">
<stop stop-color="#CE4DA4"/>
<stop offset="1" stop-color="#8A79FF"/>
</linearGradient>
<linearGradient id="paint1_linear" x1="125" y1="93.3536" x2="71" y2="93.3536" gradientUnits="userSpaceOnUse">
<stop stop-color="#CE4DA4"/>
<stop offset="1" stop-color="#8A79FF"/>
</linearGradient>
<linearGradient id="paint2_linear" x1="189" y1="97.9379" x2="7.99999" y2="97.9379" gradientUnits="userSpaceOnUse">
<stop stop-color="#CE4DA4"/>
<stop offset="1" stop-color="#8A79FF"/>
</linearGradient>
<linearGradient id="paint3_linear" x1="196" y1="97.8944" x2="0.99999" y2="97.8944" gradientUnits="userSpaceOnUse">
<stop stop-color="#CE4DA4"/>
<stop offset="1" stop-color="#8A79FF"/>
</linearGradient>
</defs>
</svg>
