<svg width="580" height="406" viewBox="0 0 580 406" fill="none" xmlns="http://www.w3.org/2000/svg">
<path d="M533.716 154.004C504.569 105.942 451.263 72.804 400.587 50.3441C281.493 -2.43594 238.96 18.6761 195.653 61.7121C152.347 104.748 130.693 135.604 87.3866 173.768C44.0799 211.932 5.41324 224.112 27.8399 286.636C50.2666 349.16 57.9999 362.152 140.747 345.912C223.493 329.672 283.04 305.312 351.093 327.236C419.147 349.16 453.947 371.084 509.627 336.168C567.418 299.928 565.995 207.239 533.716 154.004Z" fill="url(#paint0_linear)"/>
<path d="M399.979 51.7154C450.568 74.1366 503.528 107.118 532.433 154.782C548.398 181.111 556.762 217.273 553.953 251.336C551.144 285.396 537.197 317.109 508.83 334.897C481.292 352.166 459.038 355.335 435.236 351.536C423.28 349.628 410.905 345.956 397.221 341.369C391.939 339.598 386.448 337.686 380.713 335.69C371.646 332.533 361.97 329.164 351.553 325.808C317.224 314.749 285.067 315.38 251.194 320.781C234.268 323.48 216.895 327.373 198.614 331.598C196.317 332.129 194.006 332.665 191.679 333.205C175.475 336.963 158.52 340.895 140.458 344.44C119.793 348.496 103.906 350.706 91.3394 350.794C78.7864 350.882 69.665 348.849 62.4441 344.524C55.2258 340.2 49.7333 333.481 44.6319 323.856C39.519 314.211 34.8647 301.778 29.2518 286.13C23.6935 270.633 21.9685 258.386 23.084 248.152C24.1965 237.947 28.1464 229.628 34.1429 221.994C40.1651 214.326 48.237 207.364 57.5952 199.883C60.0085 197.954 62.5075 195.991 65.0745 193.974C72.4225 188.2 80.3281 181.988 88.3783 174.893C110.093 155.757 126.376 138.455 142.63 120.576C145.418 117.509 148.204 114.427 151.016 111.315C164.604 96.2817 178.799 80.5754 196.711 62.776C218.277 41.3444 239.446 25.5808 269.895 21.5843C300.42 17.5779 340.521 25.3646 399.979 51.7154Z" stroke="url(#paint1_linear)" stroke-width="3"/>
<path d="M366.258 274.107H216.781L226.424 249.284H356.615L366.258 274.107Z" fill="white" stroke="#263238" stroke-linecap="round" stroke-linejoin="round"/>
<path d="M234.289 254.797H228.613L229.773 251.606H235.341L234.289 254.797Z" fill="white" stroke="#263238" stroke-linecap="round" stroke-linejoin="round"/>
<path d="M242.293 254.797H236.624L237.637 251.606H243.205L242.293 254.797Z" fill="white" stroke="#263238" stroke-linecap="round" stroke-linejoin="round"/>
<path d="M250.305 254.797H244.628L245.495 251.606H251.063L250.305 254.797Z" fill="white" stroke="#263238" stroke-linecap="round" stroke-linejoin="round"/>
<path d="M258.309 254.797H252.64L253.359 251.606H258.927L258.309 254.797Z" fill="white" stroke="#263238" stroke-linecap="round" stroke-linejoin="round"/>
<path d="M266.32 254.797H260.652L261.216 251.606H266.784L266.32 254.797Z" fill="white" stroke="#263238" stroke-linecap="round" stroke-linejoin="round"/>
<path d="M274.332 254.797H268.656L269.081 251.606H274.649L274.332 254.797Z" fill="white" stroke="#263238" stroke-linecap="round" stroke-linejoin="round"/>
<path d="M282.336 254.797H276.668L276.938 251.606H282.506L282.336 254.797Z" fill="white" stroke="#263238" stroke-linecap="round" stroke-linejoin="round"/>
<path d="M290.348 254.797H284.672L284.803 251.606H290.371L290.348 254.797Z" fill="white" stroke="#263238" stroke-linecap="round" stroke-linejoin="round"/>
<path d="M298.36 254.797H292.683L292.66 251.606H298.228L298.36 254.797Z" fill="white" stroke="#263238" stroke-linecap="round" stroke-linejoin="round"/>
<path d="M306.364 254.797H300.687L300.525 251.606H306.093L306.364 254.797Z" fill="white" stroke="#263238" stroke-linecap="round" stroke-linejoin="round"/>
<path d="M314.375 254.797H308.699L308.382 251.606H313.95L314.375 254.797Z" fill="white" stroke="#263238" stroke-linecap="round" stroke-linejoin="round"/>
<path d="M322.379 254.797H316.711L316.247 251.606H321.815L322.379 254.797Z" fill="white" stroke="#263238" stroke-linecap="round" stroke-linejoin="round"/>
<path d="M330.391 254.797H324.715L324.104 251.606H329.672L330.391 254.797Z" fill="white" stroke="#263238" stroke-linecap="round" stroke-linejoin="round"/>
<path d="M338.395 254.797H332.726L331.961 251.606H337.529L338.395 254.797Z" fill="white" stroke="#263238" stroke-linecap="round" stroke-linejoin="round"/>
<path d="M346.407 254.797H340.738L339.826 251.606H345.394L346.407 254.797Z" fill="white" stroke="#263238" stroke-linecap="round" stroke-linejoin="round"/>
<path d="M354.418 254.797H348.742L347.69 251.606H353.258L354.418 254.797Z" fill="white" stroke="#263238" stroke-linecap="round" stroke-linejoin="round"/>
<path d="M231.915 261.959H226.014L227.267 258.5H233.067L231.915 261.959Z" fill="white" stroke="#263238" stroke-linecap="round" stroke-linejoin="round"/>
<path d="M240.259 261.959H234.351L235.449 258.5H241.241L240.259 261.959Z" fill="white" stroke="#263238" stroke-linecap="round" stroke-linejoin="round"/>
<path d="M248.596 261.959H242.687L243.631 258.5H249.423L248.596 261.959Z" fill="white" stroke="#263238" stroke-linecap="round" stroke-linejoin="round"/>
<path d="M256.94 261.959H251.032L251.813 258.5H257.605L256.94 261.959Z" fill="white" stroke="#263238" stroke-linecap="round" stroke-linejoin="round"/>
<path d="M265.276 261.959H259.368L259.987 258.5H265.787L265.276 261.959Z" fill="white" stroke="#263238" stroke-linecap="round" stroke-linejoin="round"/>
<path d="M273.621 261.959H267.712L268.169 258.5H273.961L273.621 261.959Z" fill="white" stroke="#263238" stroke-linecap="round" stroke-linejoin="round"/>
<path d="M281.957 261.959H276.049L276.351 258.5H282.143L281.957 261.959Z" fill="white" stroke="#263238" stroke-linecap="round" stroke-linejoin="round"/>
<path d="M290.302 261.959H284.393L284.525 258.5H290.325L290.302 261.959Z" fill="white" stroke="#263238" stroke-linecap="round" stroke-linejoin="round"/>
<path d="M298.638 261.959H292.73L292.707 258.5H298.499L298.638 261.959Z" fill="white" stroke="#263238" stroke-linecap="round" stroke-linejoin="round"/>
<path d="M306.975 261.959H301.074L300.888 258.5H306.681L306.975 261.959Z" fill="white" stroke="#263238" stroke-linecap="round" stroke-linejoin="round"/>
<path d="M315.319 261.959H309.411L309.07 258.5H314.863L315.319 261.959Z" fill="white" stroke="#263238" stroke-linecap="round" stroke-linejoin="round"/>
<path d="M323.655 261.959H317.747L317.244 258.5H323.044L323.655 261.959Z" fill="white" stroke="#263238" stroke-linecap="round" stroke-linejoin="round"/>
<path d="M332 261.959H326.091L325.426 258.5H331.218L332 261.959Z" fill="white" stroke="#263238" stroke-linecap="round" stroke-linejoin="round"/>
<path d="M340.336 261.959H334.428L333.608 258.5H339.4L340.336 261.959Z" fill="white" stroke="#263238" stroke-linecap="round" stroke-linejoin="round"/>
<path d="M348.681 261.959H342.772L341.782 258.5H347.582L348.681 261.959Z" fill="white" stroke="#263238" stroke-linecap="round" stroke-linejoin="round"/>
<path d="M357.017 261.959H351.109L349.964 258.5H355.756L357.017 261.959Z" fill="white" stroke="#263238" stroke-linecap="round" stroke-linejoin="round"/>
<path d="M229.347 269.738H223.184L224.553 265.971H230.592L229.347 269.738Z" fill="white" stroke="#263238" stroke-linecap="round" stroke-linejoin="round"/>
<path d="M238.047 269.738H231.884L233.075 265.971H239.114L238.047 269.738Z" fill="white" stroke="#263238" stroke-linecap="round" stroke-linejoin="round"/>
<path d="M246.747 269.738H240.584L241.605 265.971H247.644L246.747 269.738Z" fill="white" stroke="#263238" stroke-linecap="round" stroke-linejoin="round"/>
<path d="M307.647 269.738H249.284L250.127 265.971H307.323L307.647 269.738Z" fill="white" stroke="#263238" stroke-linecap="round" stroke-linejoin="round"/>
<path d="M316.347 269.738H310.184L309.813 265.971H315.852L316.347 269.738Z" fill="white" stroke="#263238" stroke-linecap="round" stroke-linejoin="round"/>
<path d="M325.047 269.738H318.884L318.335 265.971H324.375L325.047 269.738Z" fill="white" stroke="#263238" stroke-linecap="round" stroke-linejoin="round"/>
<path d="M333.747 269.738H327.584L326.865 265.971H332.897L333.747 269.738Z" fill="white" stroke="#263238" stroke-linecap="round" stroke-linejoin="round"/>
<path d="M342.447 269.738H336.284L335.387 265.971H341.427L342.447 269.738Z" fill="white" stroke="#263238" stroke-linecap="round" stroke-linejoin="round"/>
<path d="M351.147 269.738H344.984L343.909 265.971H349.949L351.147 269.738Z" fill="white" stroke="#263238" stroke-linecap="round" stroke-linejoin="round"/>
<path d="M359.847 269.738H353.684L352.439 265.971H358.479L359.847 269.738Z" fill="white" stroke="#263238" stroke-linecap="round" stroke-linejoin="round"/>
<path d="M366.158 274.107H216.781V276.259H366.158V274.107Z" fill="white" stroke="#263238" stroke-linecap="round" stroke-linejoin="round"/>
<path d="M103.797 53.0073H32.9363L32.0005 65.0168H103.797V53.0073Z" stroke="#808080" stroke-linecap="round" stroke-linejoin="round"/>
<path d="M103.797 65.0168H32.9363L32.0005 77.0344H103.797V65.0168Z" stroke="#808080" stroke-linecap="round" stroke-linejoin="round"/>
<path d="M103.797 77.0347H32.9363L32.0005 89.0523H103.797V77.0347Z" stroke="#808080" stroke-linecap="round" stroke-linejoin="round"/>
<path d="M103.797 89.0521H32.9363L32.0005 101.07H103.797V89.0521Z" stroke="#808080" stroke-linecap="round" stroke-linejoin="round"/>
<path d="M103.797 101.07H32.9363L32.0005 113.079H103.797V101.07Z" stroke="#808080" stroke-linecap="round" stroke-linejoin="round"/>
<path d="M103.797 113.079H32.9363L32.0005 125.097H103.797V113.079Z" stroke="#808080" stroke-linecap="round" stroke-linejoin="round"/>
<path d="M103.797 125.097H32.9363L32.0005 137.114H103.797V125.097Z" stroke="#808080" stroke-linecap="round" stroke-linejoin="round"/>
<path d="M103.797 137.114H32.9363L32.0005 149.124H103.797V137.114Z" stroke="#808080" stroke-linecap="round" stroke-linejoin="round"/>
<path d="M103.797 149.124H32.9363L32.0005 161.141H103.797V149.124Z" stroke="#808080" stroke-linecap="round" stroke-linejoin="round"/>
<path d="M103.797 161.141H32.9363L32.0005 173.159H103.797V161.141Z" stroke="#808080" stroke-linecap="round" stroke-linejoin="round"/>
<path d="M103.797 173.159H32.9363L32.0005 185.169H103.797V173.159Z" stroke="#808080" stroke-linecap="round" stroke-linejoin="round"/>
<path d="M103.797 185.168H32.9363L32.0005 197.186H103.797V185.168Z" stroke="#808080" stroke-linecap="round" stroke-linejoin="round"/>
<path d="M103.797 197.186H32.9363L32.0005 209.204H103.797V197.186Z" stroke="#808080" stroke-linecap="round" stroke-linejoin="round"/>
<path d="M103.797 209.204H32.9363L32.0005 221.221H103.797V209.204Z" stroke="#808080" stroke-linecap="round" stroke-linejoin="round"/>
<path d="M103.797 221.221H32.9363L32.0005 233.231H103.797V221.221Z" stroke="#808080" stroke-linecap="round" stroke-linejoin="round"/>
<path d="M176.629 53.0073H105.776L104.841 65.0168H176.629V53.0073Z" stroke="#808080" stroke-linecap="round" stroke-linejoin="round"/>
<path d="M176.629 65.0168H105.776L104.841 77.0344H176.629V65.0168Z" stroke="#808080" stroke-linecap="round" stroke-linejoin="round"/>
<path d="M176.629 77.0347H105.776L104.841 89.0523H176.629V77.0347Z" stroke="#808080" stroke-linecap="round" stroke-linejoin="round"/>
<path d="M176.629 89.0521H105.776L104.841 101.07H176.629V89.0521Z" stroke="#808080" stroke-linecap="round" stroke-linejoin="round"/>
<path d="M176.629 101.07H105.776L104.841 113.079H176.629V101.07Z" stroke="#808080" stroke-linecap="round" stroke-linejoin="round"/>
<path d="M176.629 113.079H105.776L104.841 125.097H176.629V113.079Z" stroke="#808080" stroke-linecap="round" stroke-linejoin="round"/>
<path d="M176.629 125.097H105.776L104.841 137.114H176.629V125.097Z" stroke="#808080" stroke-linecap="round" stroke-linejoin="round"/>
<path d="M176.629 137.114H105.776L104.841 149.124H176.629V137.114Z" stroke="#808080" stroke-linecap="round" stroke-linejoin="round"/>
<path d="M176.629 149.124H105.776L104.841 161.141H176.629V149.124Z" stroke="#808080" stroke-linecap="round" stroke-linejoin="round"/>
<path d="M176.629 161.141H105.776L104.841 173.159H176.629V161.141Z" stroke="#808080" stroke-linecap="round" stroke-linejoin="round"/>
<path d="M176.629 173.159H105.776L104.841 185.169H176.629V173.159Z" stroke="#808080" stroke-linecap="round" stroke-linejoin="round"/>
<path d="M176.629 185.168H105.776L104.841 197.186H176.629V185.168Z" stroke="#808080" stroke-linecap="round" stroke-linejoin="round"/>
<path d="M176.629 197.186H105.776L104.841 209.204H176.629V197.186Z" stroke="#808080" stroke-linecap="round" stroke-linejoin="round"/>
<path d="M176.629 209.204H105.776L104.841 221.221H176.629V209.204Z" stroke="#808080" stroke-linecap="round" stroke-linejoin="round"/>
<path d="M176.629 221.221H105.776L104.841 233.231H176.629V221.221Z" stroke="#808080" stroke-linecap="round" stroke-linejoin="round"/>
<path d="M180.179 43.7019H30.3456V52.7638H180.179V43.7019Z" stroke="#808080" stroke-linecap="round" stroke-linejoin="round"/>
<path d="M180.179 52.7637V212.395" stroke="#808080" stroke-linecap="round" stroke-linejoin="round"/>
<path d="M178.547 53.0237V162.546" stroke="#808080" stroke-linecap="round" stroke-linejoin="round"/>
<path d="M181.239 212.046H179.228V216.114H181.239V212.046Z" fill="#263238" stroke="#808080" stroke-linecap="round" stroke-linejoin="round"/>
<path d="M179.421 161.669H177.41V165.737H179.421V161.669Z" fill="#263238" stroke="#808080" stroke-linecap="round" stroke-linejoin="round"/>
<path d="M537.467 52.78H446.213V166.46H537.467V52.78Z" stroke="#808080" stroke-linecap="round" stroke-linejoin="round"/>
<path d="M532.904 58.4641H450.776V160.776H532.904V58.4641Z" stroke="#808080" stroke-linecap="round" stroke-linejoin="round"/>
<path d="M510.748 86.072H472.94V133.168H510.748V86.072Z" stroke="#808080" stroke-linecap="round" stroke-linejoin="round"/>
<path d="M91.9726 362.55V291.792H506.897L507.446 366.594L495.591 364.109L495.707 310.996H104.4L104.423 361.933L91.9726 362.55Z" fill="#E3E3E3"/>
<path d="M92.0266 367.276V285.012H507.307V369.289" stroke="#263238" stroke-linecap="round" stroke-linejoin="round"/>
<path d="M506.897 291.792H92.0654V298.434H506.897V291.792Z" fill="#263238" stroke="#263238" stroke-linecap="round" stroke-linejoin="round"/>
<path d="M104.4 366.464V310.996H495.707V370.101" stroke="#263238" stroke-linecap="round" stroke-linejoin="round"/>
<path d="M513.439 281.22H77.6041V291.857H513.439V281.22Z" fill="#CCCCCC" stroke="#263238" stroke-linecap="round" stroke-linejoin="round"/>
<path d="M513.439 281.179H77.6041L110.293 233.515H480.75L513.439 281.179Z" fill="white" stroke="#263238" stroke-linecap="round" stroke-linejoin="round"/>
<path d="M344.102 67.7771C352.154 59.3231 352.154 45.6164 344.102 37.1623C336.051 28.7083 322.997 28.7083 314.946 37.1623C306.894 45.6164 306.894 59.3231 314.946 67.7771C322.997 76.2312 336.051 76.2312 344.102 67.7771Z" stroke="#263238" stroke-linecap="round" stroke-linejoin="round"/>
<path d="M342.316 55.6138L340.677 57.3515L329.734 68.825L317.144 55.6138C316.406 54.8642 315.818 53.9677 315.413 52.9768C315.008 51.9858 314.796 50.9201 314.788 49.842C314.779 48.7638 314.976 47.6947 315.365 46.6971C315.755 45.6995 316.33 44.7933 317.056 44.0315C317.783 43.2696 318.647 42.6673 319.597 42.2597C320.548 41.8522 321.566 41.6475 322.593 41.6576C323.62 41.6677 324.635 41.8925 325.578 42.3187C326.521 42.7449 327.374 43.3642 328.087 44.1402L329.749 45.8779L331.389 44.1402C332.857 42.7212 334.791 41.9531 336.786 41.9966C338.781 42.04 340.683 42.8915 342.094 44.3731C343.505 45.8547 344.316 47.8517 344.358 49.9466C344.399 52.0415 343.668 54.0721 342.316 55.6138V55.6138Z" stroke="#263238" stroke-linecap="round" stroke-linejoin="round"/>
<path d="M236.784 60.8936C241.213 49.8793 236.299 37.1805 225.809 32.5301C215.32 27.8798 203.226 33.0388 198.797 44.0531C194.368 55.0675 199.281 67.7662 209.771 72.4166C220.261 77.067 232.355 71.9079 236.784 60.8936Z" stroke="#263238" stroke-linecap="round" stroke-linejoin="round"/>
<path d="M230.211 57.9363C233.09 50.7279 229.858 42.4338 222.993 39.4111C216.128 36.3883 208.228 39.7815 205.35 46.9899C202.471 54.1984 205.702 62.4924 212.568 65.5152C219.433 68.5379 227.332 65.1448 230.211 57.9363Z" stroke="#263238" stroke-linecap="round" stroke-linejoin="round"/>
<path d="M210.014 56.8401C210.755 58.2923 211.851 59.5109 213.189 60.3703C214.528 61.2298 216.06 61.699 217.629 61.7296C219.198 61.7602 220.746 61.3511 222.114 60.5445C223.481 59.7379 224.62 58.5628 225.411 57.1405" stroke="#263238" stroke-linecap="round" stroke-linejoin="round"/>
<path d="M214.593 49.8568C214.593 51.4808 214.136 52.7881 213.579 52.7881C213.023 52.7881 212.566 51.4727 212.566 49.8568C212.566 48.2409 213.015 46.9336 213.579 46.9336C214.144 46.9336 214.593 48.2409 214.593 49.8568Z" fill="#263238"/>
<path d="M222.187 49.8568C222.187 51.4808 221.738 52.7881 221.174 52.7881C220.609 52.7881 220.16 51.4727 220.16 49.8568C220.16 48.2409 220.617 46.9336 221.174 46.9336C221.73 46.9336 222.187 48.2409 222.187 49.8568Z" fill="#263238"/>
<path d="M390.271 73.5027C401.332 70.6671 408.11 58.9528 405.409 47.3381C402.709 35.7234 391.552 28.6066 380.491 31.4423C369.429 34.2779 362.651 45.9922 365.352 57.6069C368.052 69.2216 379.209 76.3384 390.271 73.5027Z" stroke="#263238" stroke-linecap="round" stroke-linejoin="round"/>
<path d="M388.588 66.2367C395.819 64.3775 400.245 56.7155 398.474 49.1233C396.703 41.531 389.406 36.8835 382.176 38.7427C374.945 40.6019 370.519 48.2639 372.289 55.8561C374.06 63.4484 381.357 68.0959 388.588 66.2367Z" stroke="#263238" stroke-linecap="round" stroke-linejoin="round"/>
<path d="M377.503 55.0698C378.415 58.6345 380.751 61.7363 385.383 61.7363C390.155 61.7363 392.42 58.9349 393.271 55.0698H377.503Z" stroke="#263238" stroke-linecap="round" stroke-linejoin="round"/>
<path d="M382.181 49.8568C382.181 51.4808 381.725 52.7881 381.168 52.7881C380.611 52.7881 380.155 51.4727 380.155 49.8568C380.155 48.2409 380.611 46.9336 381.168 46.9336C381.725 46.9336 382.181 48.2409 382.181 49.8568Z" fill="#263238"/>
<path d="M389.76 49.8568C389.76 51.4808 389.304 52.7881 388.747 52.7881C388.19 52.7881 387.734 51.4727 387.734 49.8568C387.734 48.2409 388.182 46.9336 388.747 46.9336C389.312 46.9336 389.76 48.2409 389.76 49.8568Z" fill="#263238"/>
<path d="M292.648 60.8924C297.077 49.878 292.164 37.1793 281.674 32.5289C271.184 27.8785 259.09 33.0376 254.661 44.0519C250.232 55.0662 255.146 67.765 265.636 72.4154C276.125 77.0657 288.219 71.9067 292.648 60.8924Z" stroke="#263238" stroke-linecap="round" stroke-linejoin="round"/>
<path d="M286.065 57.9365C288.944 50.7281 285.713 42.4341 278.847 39.4113C271.982 36.3886 264.083 39.7817 261.204 46.9902C258.325 54.1986 261.557 62.4927 268.422 65.5154C275.287 68.5382 283.187 65.145 286.065 57.9365Z" stroke="#263238" stroke-linecap="round" stroke-linejoin="round"/>
<path d="M265.88 61.7121C266.621 60.2615 267.718 59.0445 269.055 58.1859C270.393 57.3274 271.925 56.8583 273.492 56.8269C275.06 56.7955 276.607 57.2028 277.975 58.0072C279.344 58.8115 280.483 59.9838 281.277 61.4035" stroke="#263238" stroke-linecap="round" stroke-linejoin="round"/>
<path d="M270.458 49.8568C270.458 51.4808 270.002 52.7881 269.445 52.7881C268.888 52.7881 268.432 51.4727 268.432 49.8568C268.432 48.2409 268.88 46.9336 269.445 46.9336C270.01 46.9336 270.458 48.2409 270.458 49.8568Z" fill="#263238"/>
<path d="M278.052 49.8568C278.052 51.4808 277.596 52.7881 277.039 52.7881C276.482 52.7881 276.026 51.4727 276.026 49.8568C276.026 48.2409 276.482 46.9336 277.039 46.9336C277.596 46.9336 278.052 48.2409 278.052 49.8568Z" fill="#263238"/>
<path d="M464.255 229.796L471.076 238.671C471.448 239.155 471.724 239.713 471.889 240.31C472.054 240.908 472.104 241.534 472.036 242.152C471.969 242.77 471.785 243.368 471.495 243.91C471.205 244.453 470.816 244.93 470.349 245.313L454.589 258.216L419.789 245.224L435.054 235.285C435.575 234.947 436.024 234.5 436.374 233.972C436.723 233.444 436.965 232.846 437.085 232.215C437.205 231.584 437.199 230.934 437.07 230.306C436.94 229.677 436.688 229.084 436.33 228.562L432.162 222.488L464.255 229.796Z" fill="#263238" stroke="#263238" stroke-linecap="round" stroke-linejoin="round"/>
<path d="M390.015 99.5431L532.695 123.83V247.66L528.442 248.878L385.762 214.441V100.761L390.015 99.5431Z" fill="white" stroke="#263238" stroke-linecap="round" stroke-linejoin="round"/>
<path d="M385.762 214.441L528.442 248.878V125.048L385.762 100.761V214.441Z" fill="#263238" stroke="#263238" stroke-linecap="round" stroke-linejoin="round"/>
<path d="M389.629 211.956L524.575 244.867V127.533L389.629 104.772V211.956Z" fill="#7C53E0" stroke="#263238" stroke-linecap="round" stroke-linejoin="round"/>
<path d="M320.315 239.361H267.38L271.788 222.48V212.825H315.899V223.438L320.315 239.361Z" fill="#263238" stroke="#263238" stroke-linecap="round" stroke-linejoin="round"/>
<path d="M373.52 100.688H213.053V214.368H373.52V100.688Z" fill="#263238" stroke="#263238" stroke-linecap="round" stroke-linejoin="round"/>
<path d="M369.653 103.936H216.92V211.12H369.653V103.936Z" fill="white" stroke="#263238" stroke-linecap="round" stroke-linejoin="round"/>
<path d="M123.733 229.796L116.913 238.671C116.541 239.156 116.265 239.714 116.101 240.311C115.937 240.909 115.888 241.536 115.956 242.154C116.024 242.772 116.209 243.369 116.499 243.912C116.79 244.454 117.18 244.931 117.647 245.313L133.4 258.216L168.2 245.224L152.934 235.285C152.414 234.946 151.965 234.499 151.617 233.97C151.268 233.442 151.027 232.844 150.908 232.213C150.789 231.582 150.795 230.933 150.925 230.304C151.056 229.676 151.308 229.083 151.666 228.562L155.827 222.488L123.733 229.796Z" fill="#263238" stroke="#263238" stroke-linecap="round" stroke-linejoin="round"/>
<path d="M197.973 99.5431L55.2934 123.83V247.66L59.5467 248.878L202.227 214.441V100.761L197.973 99.5431Z" fill="white" stroke="#263238" stroke-linecap="round" stroke-linejoin="round"/>
<path d="M202.227 214.441L59.5467 248.878V125.048L202.227 100.761V214.441Z" fill="#263238" stroke="#263238" stroke-linecap="round" stroke-linejoin="round"/>
<path d="M198.36 211.956L63.4133 244.867V127.533L198.36 104.772V211.956Z" fill="#7C53E0" stroke="#263238" stroke-linecap="round" stroke-linejoin="round"/>
<path d="M447.633 170.418C455.511 162.917 454.856 148.681 446.168 138.622C437.481 128.562 424.053 126.488 416.174 133.989C408.296 141.489 408.952 155.725 417.639 165.785C426.326 175.844 439.755 177.918 447.633 170.418Z" fill="#263238" stroke="#263238" stroke-linecap="round" stroke-linejoin="round"/>
<path d="M443.894 149.481L435.75 147.784C436.273 145.893 436.626 143.955 436.802 141.994C437.104 138.746 436.029 138.048 433.647 137.545C431.265 137.041 433.647 139.761 432.44 142.197C431.474 144.154 428.574 145.705 427.476 146.257V161.101L439.516 163.577C443.576 163.78 441.017 160.256 441.017 160.256C444.033 160.256 442.223 156.708 442.223 156.708C445.239 156.854 443.128 153.46 443.128 153.46C446.291 152.502 443.894 149.481 443.894 149.481Z" fill="white" stroke="#263238" stroke-linecap="round" stroke-linejoin="round"/>
<path d="M419.046 158.908L425.821 160.305V145.916L419.046 144.528V158.908Z" fill="white" stroke="#263238" stroke-linecap="round" stroke-linejoin="round"/>
<path d="M498.49 180.873C506.369 173.373 505.713 159.137 497.026 149.078C488.339 139.018 474.91 136.944 467.031 144.445C459.153 151.945 459.809 166.181 468.496 176.24C477.183 186.3 490.612 188.374 498.49 180.873Z" fill="white" stroke="#263238" stroke-linecap="round" stroke-linejoin="round"/>
<path d="M470.767 165.356L478.902 167.028C478.378 168.919 478.024 170.858 477.843 172.818C477.541 176.066 478.616 176.764 481.006 177.26C483.395 177.755 481.006 175.051 482.212 172.607C483.171 170.658 486.079 169.107 487.177 168.547V153.72L475.136 151.235C471.068 151.032 473.628 154.564 473.628 154.564C470.62 154.564 472.429 158.113 472.429 158.113C469.413 157.966 471.525 161.401 471.525 161.401C468.362 162.335 470.767 165.356 470.767 165.356Z" fill="#263238" stroke="#263238" stroke-linecap="round" stroke-linejoin="round"/>
<path d="M495.606 155.928L488.832 154.532V168.912L495.606 170.309V155.928Z" fill="#263238" stroke="#263238" stroke-linecap="round" stroke-linejoin="round"/>
<path d="M402.474 204.015L420.415 192.371L431.172 201.684L450.652 183.049L457.829 204.6L466.537 198.778L473.203 206.345L492.675 195.862L503.44 228.48L402.474 204.015Z" fill="white" stroke="#263238" stroke-linecap="round" stroke-linejoin="round"/>
<path d="M402.474 204.015L416.827 198.193L431.69 206.93L448.603 195.863L458.339 209.845L466.537 205.184L473.203 209.845L490.116 203.43L503.44 228.481L402.474 204.015Z" fill="#263238" stroke="#263238" stroke-linecap="round" stroke-linejoin="round"/>
<path d="M420.779 121.305L445.193 125.381" stroke="#263238" stroke-linecap="round" stroke-linejoin="round"/>
<path d="M472.375 129.457L496.782 133.533" stroke="#263238" stroke-linecap="round" stroke-linejoin="round"/>
<path d="M268.702 117.034H231.536V123.253H268.702V117.034Z" fill="white" stroke="#263238" stroke-linecap="round" stroke-linejoin="round"/>
<path d="M250.39 128.353H231.536V131.747H250.39V128.353Z" fill="white" stroke="#263238" stroke-linecap="round" stroke-linejoin="round"/>
<path d="M300.942 153.281C306.999 153.281 311.908 148.126 311.908 141.767C311.908 135.408 306.999 130.253 300.942 130.253C294.886 130.253 289.977 135.408 289.977 141.767C289.977 148.126 294.886 153.281 300.942 153.281Z" fill="#263238" stroke="#263238" stroke-linecap="round" stroke-linejoin="round"/>
<path d="M307.787 143.44L306.913 144.365L301.09 150.472L294.392 143.44C293.621 142.629 293.188 141.53 293.189 140.384C293.19 139.238 293.624 138.139 294.396 137.33C295.169 136.52 296.215 136.065 297.307 136.066C298.398 136.067 299.445 136.523 300.216 137.334L301.097 138.259L301.971 137.334C302.349 136.912 302.803 136.574 303.307 136.341C303.811 136.107 304.354 135.982 304.905 135.973C305.456 135.964 306.003 136.071 306.514 136.288C307.025 136.506 307.489 136.828 307.878 137.237C308.268 137.647 308.575 138.134 308.782 138.67C308.989 139.206 309.091 139.78 309.083 140.359C309.074 140.937 308.955 141.508 308.732 142.037C308.51 142.567 308.188 143.044 307.787 143.44Z" fill="white" stroke="#263238" stroke-linecap="round" stroke-linejoin="round"/>
<path d="M243.105 173.33C249.161 173.33 254.071 168.175 254.071 161.815C254.071 155.456 249.161 150.301 243.105 150.301C237.049 150.301 232.139 155.456 232.139 161.815C232.139 168.175 237.049 173.33 243.105 173.33Z" fill="#263238" stroke="#263238" stroke-linecap="round" stroke-linejoin="round"/>
<path d="M248.173 167.143C250.972 164.203 250.972 159.437 248.173 156.498C245.373 153.558 240.834 153.558 238.035 156.498C235.235 159.437 235.235 164.203 238.035 167.143C240.834 170.082 245.373 170.082 248.173 167.143Z" fill="white" stroke="#263238" stroke-linecap="round" stroke-linejoin="round"/>
<path d="M238.96 164.138C239.352 164.912 239.934 165.562 240.646 166.021C241.358 166.48 242.174 166.731 243.009 166.747C243.845 166.764 244.669 166.546 245.397 166.115C246.125 165.685 246.73 165.058 247.15 164.3" stroke="#263238" stroke-linecap="round" stroke-linejoin="round"/>
<path d="M240.862 161.978C241.161 161.978 241.404 161.28 241.404 160.419C241.404 159.558 241.161 158.86 240.862 158.86C240.563 158.86 240.321 159.558 240.321 160.419C240.321 161.28 240.563 161.978 240.862 161.978Z" fill="#263238"/>
<path d="M245.448 160.419C245.448 161.279 245.201 161.978 244.907 161.978C244.613 161.978 244.366 161.279 244.366 160.419C244.366 159.558 244.605 158.868 244.907 158.868C245.208 158.868 245.448 159.566 245.448 160.419Z" fill="#263238"/>
<path d="M341.352 126.366C343.375 120.373 340.388 113.791 334.68 111.667C328.972 109.542 322.704 112.678 320.681 118.672C318.657 124.665 321.644 131.247 327.352 133.371C333.06 135.496 339.328 132.36 341.352 126.366Z" fill="#263238" stroke="#263238" stroke-linecap="round" stroke-linejoin="round"/>
<path d="M332.155 129.971C336.063 129.304 338.716 125.436 338.08 121.333C337.444 117.23 333.761 114.445 329.853 115.112C325.945 115.78 323.293 119.647 323.929 123.75C324.564 127.853 328.248 130.639 332.155 129.971Z" fill="white" stroke="#263238" stroke-linecap="round" stroke-linejoin="round"/>
<path d="M326.818 123.895C327.305 125.795 328.543 127.443 331.01 127.443C333.477 127.443 334.753 125.949 335.209 123.895H326.818Z" stroke="#263238" stroke-linecap="round" stroke-linejoin="round"/>
<path d="M329.308 121.126C329.308 121.987 329.069 122.685 328.767 122.685C328.465 122.685 328.226 121.987 328.226 121.126C328.226 120.265 328.473 119.567 328.767 119.567C329.061 119.567 329.308 120.265 329.308 121.126Z" fill="#263238"/>
<path d="M333.353 121.126C333.353 121.987 333.105 122.685 332.812 122.685C332.518 122.685 332.27 121.987 332.27 121.126C332.27 120.265 332.51 119.567 332.812 119.567C333.113 119.567 333.353 120.265 333.353 121.126Z" fill="#263238"/>
<path d="M272.298 164.519C278.354 164.519 283.264 159.364 283.264 153.005C283.264 146.646 278.354 141.491 272.298 141.491C266.242 141.491 261.332 146.646 261.332 153.005C261.332 159.364 266.242 164.519 272.298 164.519Z" fill="#263238" stroke="#263238" stroke-linecap="round" stroke-linejoin="round"/>
<path d="M278.967 155.807C280.438 151.947 278.65 147.566 274.973 146.022C271.297 144.479 267.125 146.356 265.655 150.216C264.185 154.076 265.973 158.456 269.649 160C273.325 161.544 277.497 159.667 278.967 155.807Z" fill="white" stroke="#263238" stroke-linecap="round" stroke-linejoin="round"/>
<path d="M268.153 157.934C268.547 157.16 269.13 156.51 269.842 156.051C270.555 155.593 271.371 155.342 272.207 155.326C273.042 155.309 273.867 155.527 274.595 155.957C275.324 156.387 275.93 157.013 276.351 157.772" stroke="#263238" stroke-linecap="round" stroke-linejoin="round"/>
<path d="M270.589 151.609C270.589 152.469 270.349 153.168 270.048 153.168C269.746 153.168 269.514 152.469 269.514 151.609C269.514 150.748 269.754 150.058 270.048 150.058C270.342 150.058 270.589 150.756 270.589 151.609Z" fill="#263238"/>
<path d="M274.092 153.168C274.391 153.168 274.634 152.47 274.634 151.609C274.634 150.748 274.391 150.05 274.092 150.05C273.793 150.05 273.551 150.748 273.551 151.609C273.551 152.47 273.793 153.168 274.092 153.168Z" fill="#263238"/>
<path d="M252.4 175.863H232.618V187.174H252.4V175.863Z" fill="#7C53E0" stroke="#263238" stroke-linecap="round" stroke-linejoin="round"/>
<path d="M282.073 167.264H262.291V187.174H282.073V167.264Z" fill="#7C53E0" stroke="#263238" stroke-linecap="round" stroke-linejoin="round"/>
<path d="M311.746 155.953H291.964V187.174H311.746V155.953Z" fill="#7C53E0" stroke="#263238" stroke-linecap="round" stroke-linejoin="round"/>
<path d="M341.427 137.398H321.645V187.174H341.427V137.398Z" fill="#7C53E0" stroke="#263238" stroke-linecap="round" stroke-linejoin="round"/>
<path d="M359.273 148.785C362.233 145.677 362.233 140.638 359.273 137.531C356.313 134.423 351.515 134.423 348.555 137.531C345.595 140.638 345.595 145.677 348.555 148.785C351.515 151.892 356.313 151.892 359.273 148.785Z" fill="white" stroke="#263238" stroke-linecap="round" stroke-linejoin="round"/>
<path d="M358.192 141.288H355.292C355.472 140.585 355.596 139.868 355.664 139.144C355.772 137.959 355.393 137.788 354.534 137.788C353.676 137.788 354.534 138.6 354.109 139.542C353.654 140.279 353.046 140.898 352.33 141.353V146.647H356.63C358.084 146.428 357.172 145.356 357.172 145.356C358.246 145.129 357.597 144 357.597 144C358.672 143.829 357.922 142.758 357.922 142.758C358.071 142.725 358.207 142.646 358.314 142.533C358.421 142.419 358.493 142.274 358.522 142.117C358.551 141.96 358.535 141.798 358.476 141.65C358.418 141.503 358.319 141.377 358.192 141.288Z" fill="white" stroke="#263238" stroke-linecap="round" stroke-linejoin="round"/>
<path d="M351.743 141.369H349.322V146.501H351.743V141.369Z" fill="white" stroke="#263238" stroke-linecap="round" stroke-linejoin="round"/>
<path d="M359.275 183.654C362.235 180.547 362.235 175.508 359.275 172.401C356.316 169.293 351.517 169.293 348.557 172.401C345.598 175.508 345.598 180.547 348.557 183.654C351.517 186.762 356.315 186.762 359.275 183.654Z" fill="white" stroke="#263238" stroke-linecap="round" stroke-linejoin="round"/>
<path d="M349.639 179.882H352.539C352.355 180.584 352.228 181.301 352.16 182.026C352.052 183.212 352.431 183.382 353.289 183.382C354.148 183.382 353.289 182.57 353.722 181.628C354.175 180.892 354.781 180.273 355.493 179.817V174.523H351.194C349.748 174.742 350.66 175.814 350.66 175.814C349.585 176.042 350.227 177.17 350.227 177.17C349.152 177.341 349.902 178.413 349.902 178.413C349.754 178.447 349.618 178.526 349.512 178.64C349.407 178.755 349.335 178.899 349.307 179.056C349.279 179.213 349.296 179.375 349.355 179.522C349.414 179.669 349.513 179.794 349.639 179.882Z" fill="white" stroke="#263238" stroke-linecap="round" stroke-linejoin="round"/>
<path d="M356.081 179.825H358.502V174.694H356.081V179.825Z" fill="white" stroke="#263238" stroke-linecap="round" stroke-linejoin="round"/>
<path d="M161.116 148.848L80.8752 165.469C78.7485 165.908 77.0085 164.739 77.0085 162.855V147.784C77.0085 145.892 78.7408 144.033 80.8752 143.618L161.116 128.19C163.026 127.825 164.565 129.002 164.565 130.748V144.991C164.565 146.688 163.026 148.45 161.116 148.848Z" fill="white" stroke="#263238" stroke-linecap="round" stroke-linejoin="round"/>
<path d="M96.8213 151.146C96.8213 147.37 93.3877 144.975 89.1344 145.811C84.881 146.647 81.3624 150.415 81.3624 154.231C81.3624 158.048 84.8501 160.435 89.1344 159.558C93.4186 158.681 96.8213 154.922 96.8213 151.146Z" fill="white" stroke="#263238" stroke-linecap="round" stroke-linejoin="round"/>
<path d="M104.431 146.282L137.738 139.705" stroke="#263238" stroke-linecap="round" stroke-linejoin="round"/>
<path d="M104.431 149.303L137.738 142.66" stroke="#263238" stroke-linecap="round" stroke-linejoin="round"/>
<path d="M104.431 153.086L154.032 143.058" stroke="#263238" stroke-linecap="round" stroke-linejoin="round"/>
<path d="M161.116 210.186L80.8752 230.251C78.7485 230.787 77.0085 229.69 77.0085 227.815V212.695C77.0085 210.803 78.7408 208.863 80.8752 208.367L161.116 189.464C163.026 189.017 164.565 190.097 164.565 191.9V206.134C164.565 207.872 163.026 209.715 161.116 210.186Z" fill="white" stroke="#263238" stroke-linecap="round" stroke-linejoin="round"/>
<path d="M96.8213 215.245C96.8213 211.469 93.3877 209.228 89.1344 210.243C84.881 211.258 81.3624 215.18 81.3624 218.996C81.3624 222.813 84.8501 225.046 89.1344 223.99C93.4186 222.935 96.8213 219.029 96.8213 215.245Z" fill="white" stroke="#263238" stroke-linecap="round" stroke-linejoin="round"/>
<path d="M104.431 210.056L137.738 202.05" stroke="#263238" stroke-linecap="round" stroke-linejoin="round"/>
<path d="M104.431 213.077L137.738 205.006" stroke="#263238" stroke-linecap="round" stroke-linejoin="round"/>
<path d="M104.431 216.861L154.032 204.705" stroke="#263238" stroke-linecap="round" stroke-linejoin="round"/>
<path d="M168.695 131.219C168.695 127.297 165.308 124.772 161.101 125.576C156.894 126.38 153.429 130.245 153.429 134.207C153.429 138.17 156.878 140.703 161.101 139.835C165.323 138.966 168.695 135.133 168.695 131.219Z" fill="#7C53E0" stroke="#263238" stroke-linecap="round" stroke-linejoin="round"/>
<path d="M165.826 132.811L165.223 133.501L161.178 138.081L156.538 134.646C155.417 133.834 155.417 132.112 156.538 130.846C157.083 130.237 157.798 129.824 158.58 129.668C158.925 129.59 159.282 129.585 159.63 129.652C159.977 129.719 160.309 129.857 160.606 130.058L161.217 130.513L161.828 129.823C162.364 129.216 163.072 128.807 163.846 128.653C164.189 128.573 164.544 128.566 164.889 128.633C165.235 128.7 165.564 128.84 165.857 129.043C166.939 129.863 166.939 131.544 165.826 132.811Z" fill="white" stroke="#263238" stroke-linecap="round" stroke-linejoin="round"/>
<path d="M180.581 174.247L102.567 192.03C100.502 192.501 98.8164 191.38 98.8164 189.521V174.621C98.8164 172.761 100.502 170.894 102.567 170.455L180.581 153.801C182.429 153.403 183.929 154.507 183.929 156.237V170.276C183.855 171.229 183.488 172.131 182.884 172.847C182.281 173.563 181.473 174.054 180.581 174.247Z" fill="white" stroke="#263238" stroke-linecap="round" stroke-linejoin="round"/>
<path d="M118.057 177.633C118.057 173.914 114.724 171.616 110.587 172.509C106.449 173.403 103.039 177.186 103.039 180.946C103.039 184.706 106.434 186.995 110.587 186.062C114.739 185.128 118.057 181.36 118.057 177.633Z" fill="white" stroke="#263238" stroke-linecap="round" stroke-linejoin="round"/>
<path d="M125.458 172.704L157.837 165.632" stroke="#263238" stroke-linecap="round" stroke-linejoin="round"/>
<path d="M125.458 175.684L157.837 168.547" stroke="#263238" stroke-linecap="round" stroke-linejoin="round"/>
<path d="M125.458 179.411L173.683 168.661" stroke="#263238" stroke-linecap="round" stroke-linejoin="round"/>
<path d="M187.046 156.667C187.046 152.802 183.744 150.366 179.653 151.235C175.562 152.104 172.175 155.985 172.175 159.891C172.175 163.797 175.531 166.225 179.653 165.315C183.775 164.406 187.046 160.541 187.046 156.667Z" fill="#7C53E0" stroke="#263238" stroke-linecap="round" stroke-linejoin="round"/>
<path d="M184.494 157.219C184.494 154.686 182.329 153.094 179.653 153.671C176.977 154.248 174.773 156.781 174.773 159.355C174.773 161.929 176.962 163.488 179.653 162.895C182.344 162.303 184.494 159.753 184.494 157.219Z" fill="white" stroke="#263238" stroke-linecap="round" stroke-linejoin="round"/>
<path d="M176.799 159.737C177.132 160.825 177.975 161.653 179.653 161.287C180.343 161.185 180.986 160.863 181.496 160.365C182.006 159.867 182.359 159.217 182.507 158.502L176.799 159.737Z" stroke="#263238" stroke-linecap="round" stroke-linejoin="round"/>
<path d="M178.493 157.674C178.493 158.194 178.331 158.657 178.13 158.705C177.929 158.754 177.766 158.356 177.766 157.828C177.766 157.301 177.929 156.838 178.13 156.797C178.331 156.756 178.493 157.146 178.493 157.674Z" fill="#263238"/>
<path d="M181.238 157.081C181.238 157.601 181.068 158.064 180.867 158.113C180.666 158.161 180.504 157.763 180.504 157.236C180.504 156.708 180.666 156.253 180.867 156.204C181.068 156.156 181.238 156.554 181.238 157.081Z" fill="#263238"/>
<path d="M169.36 189.756C169.36 185.842 165.973 183.455 161.773 184.43C157.574 185.404 154.11 189.415 154.11 193.362C154.11 197.308 157.551 199.695 161.773 198.672C165.996 197.649 169.36 193.678 169.36 189.756Z" fill="#7C53E0" stroke="#263238" stroke-linecap="round" stroke-linejoin="round"/>
<path d="M166.746 190.381C166.746 187.816 164.527 186.256 161.774 186.898C159.021 187.539 156.77 190.146 156.77 192.744C156.77 195.343 159.021 196.886 161.774 196.22C164.527 195.554 166.746 192.947 166.746 190.381Z" fill="white" stroke="#263238" stroke-linecap="round" stroke-linejoin="round"/>
<path d="M158.897 195.302C159.196 194.728 159.607 194.226 160.102 193.829C160.598 193.431 161.167 193.148 161.774 192.996C162.268 192.835 162.795 192.826 163.294 192.97C163.793 193.113 164.242 193.405 164.589 193.808" stroke="#263238" stroke-linecap="round" stroke-linejoin="round"/>
<path d="M160.59 190.974C160.59 191.51 160.42 191.981 160.211 192.03C160.002 192.079 159.84 191.689 159.84 191.153C159.84 190.617 160.01 190.154 160.211 190.106C160.412 190.057 160.59 190.447 160.59 190.974Z" fill="#263238"/>
<path d="M163.398 190.317C163.398 190.844 163.235 191.315 163.026 191.364C162.818 191.413 162.655 191.023 162.655 190.487C162.655 189.951 162.818 189.488 163.026 189.44C163.235 189.391 163.398 189.781 163.398 190.317Z" fill="#263238"/>
<path d="M271.254 217.989C271.254 217.989 269.29 215.7 266.885 215.927C264.48 216.154 264.263 215.927 265.578 222.342C266.893 228.757 269.29 234.522 270.597 234.522C271.015 234.496 271.425 234.381 271.799 234.184C272.174 233.988 272.507 233.713 272.778 233.377L274.742 237.729H321.915C321.915 237.729 328.875 224.9 328.025 218.712C327.174 212.525 322.349 216.65 322.349 216.65L271.254 217.989Z" fill="white" stroke="#263238" stroke-linecap="round" stroke-linejoin="round"/>
<path d="M279.545 230.608C279.545 230.608 274.309 227.36 271.904 221.903C270.494 218.826 269.749 215.46 269.723 212.046C269.723 212.046 264.263 204.738 268.633 193.256C273.002 181.774 275.833 179.046 277.58 179.501L279.328 179.964C279.328 179.964 285.004 166.898 293.735 166.898C302.466 166.898 314.252 173.541 320.145 180.418C326.037 187.296 329.092 198.282 327.785 200.588C327.037 201.933 325.887 202.981 324.514 203.568C324.514 203.568 324.073 215.748 320.361 220.986C317.809 224.532 315.039 227.901 312.071 231.071L280.635 232.232L279.545 230.608Z" fill="#263238" stroke="#263238" stroke-linecap="round" stroke-linejoin="round"/>
<path d="M206.48 257.664C206.48 257.664 208.027 251.98 207.253 247.92C206.48 243.86 203 236.958 205.32 231.68C207.64 226.402 210.215 227.1 208.8 230.462C207.88 232.654 208.413 236.146 208.413 236.146C208.413 236.146 211.893 231.274 213.44 230.868C214.85 230.649 216.283 230.649 217.693 230.868C217.693 230.868 218.853 228.838 220.013 228.838H223.88C223.88 228.838 228.133 223.56 230.453 224.778C232.773 225.996 237.413 231.274 236.253 233.71C235.093 236.146 232 232.492 232 232.492L230.453 230.462C230.453 230.462 228.52 234.928 228.133 238.176C227.876 239.789 227.876 241.435 228.133 243.048L229.68 244.266L236.64 241.83C238.96 241.018 241.667 243.86 239.733 245.078C237.8 246.296 233.16 249.138 232.387 250.356C231.613 251.574 227.747 252.792 227.747 252.792L225.04 253.604L219.627 264.16C219.627 264.16 210.347 254.416 206.48 257.664Z" fill="white" stroke="#263238" stroke-linecap="round" stroke-linejoin="round"/>
<path d="M223.88 228.838C223.88 228.838 221.947 230.056 221.173 233.71" stroke="#263238" stroke-linecap="round" stroke-linejoin="round"/>
<path d="M217.693 230.868C216.489 231.911 215.446 233.144 214.6 234.522" stroke="#263238" stroke-linecap="round" stroke-linejoin="round"/>
<path d="M219.627 258.882C219.627 258.882 215.76 253.604 211.12 253.198C206.48 252.792 204.16 254.01 203.387 255.634C202.613 257.258 200.293 258.882 200.293 258.882C200.293 258.882 188.307 267.408 182.507 273.498C176.707 279.588 170.133 284.866 170.52 290.55C170.907 296.234 182.507 297.858 186.373 295.828C190.24 293.798 196.813 286.49 199.52 281.618C202.227 276.746 219.627 258.882 219.627 258.882Z" fill="#7C53E0" stroke="#263238" stroke-linecap="round" stroke-linejoin="round"/>
<path d="M332.147 242.236C332.147 242.236 318.227 231.274 307.787 227.214C297.347 223.154 284.2 225.59 276.853 230.056C269.507 234.522 259.067 241.424 259.067 241.424L332.147 242.236Z" fill="#7C53E0" stroke="#263238" stroke-linecap="round" stroke-linejoin="round"/>
<path d="M392.467 271.468C392.467 271.468 390.92 265.784 391.693 261.724C392.467 257.664 395.947 250.762 393.627 245.484C391.307 240.206 388.523 241.01 390.147 244.266C390.976 246.035 391.115 248.075 390.533 249.95C390.533 249.95 387.053 245.078 385.507 244.672C384.097 244.453 382.664 244.453 381.253 244.672C381.253 244.672 380.093 242.642 378.933 242.642H375.067C375.067 242.642 370.813 237.364 368.493 238.582C366.173 239.8 361.533 245.078 362.693 247.514C363.853 249.95 366.947 246.296 366.947 246.296L368.493 244.266C368.493 244.266 370.427 248.732 370.813 251.98C371.071 253.593 371.071 255.239 370.813 256.852L369.267 258.07L362.307 255.634C359.987 254.822 357.28 257.664 359.213 258.882C361.147 260.1 365.787 262.942 366.56 264.16C367.333 265.378 371.2 266.596 371.2 266.596L373.907 267.408L379.32 277.964C379.32 277.964 388.6 268.22 392.467 271.468Z" fill="white" stroke="#263238" stroke-linecap="round" stroke-linejoin="round"/>
<path d="M375.067 242.642C375.067 242.642 377 243.86 377.773 247.514L375.067 242.642Z" fill="white"/>
<path d="M375.067 242.642C375.067 242.642 377 243.86 377.773 247.514" stroke="#263238" stroke-linecap="round" stroke-linejoin="round"/>
<path d="M381.253 244.672C382.458 245.715 383.501 246.948 384.347 248.326L381.253 244.672Z" fill="white"/>
<path d="M381.253 244.672C382.458 245.715 383.501 246.948 384.347 248.326" stroke="#263238" stroke-linecap="round" stroke-linejoin="round"/>
<path d="M382.027 273.092C382.027 273.092 382.8 271.062 386.28 269.438C389.76 267.814 394.013 269.438 394.013 269.438L396.333 274.716C396.333 274.716 394.013 276.746 402.907 282.43C411.8 288.114 415.28 299.076 415.28 303.948C415.28 308.82 402.52 297.452 394.787 290.956C387.053 284.46 382.027 273.092 382.027 273.092Z" fill="#7C53E0" stroke="#263238" stroke-linecap="round" stroke-linejoin="round"/>
<path d="M334.467 242.642C334.467 242.642 311.653 236.146 297.347 235.334C283.04 234.522 263.32 239.8 260.613 240.206C257.907 240.612 235.093 243.86 232.773 245.078C230.453 246.296 190.24 278.776 190.24 278.776C190.24 278.776 184.053 279.994 176.32 282.43C168.587 284.866 167.04 291.362 167.04 291.362C167.04 291.362 169.36 310.038 174.773 312.474C180.187 314.91 184.827 312.474 189.467 310.444C194.107 308.414 229.293 295.828 229.293 295.828L234.32 326.278H348.387L355.347 294.204C355.347 294.204 395.56 326.684 401.36 327.09C407.16 327.496 414.893 323.436 417.987 317.346C421.08 311.256 413.733 297.858 411.027 293.798C408.32 289.738 400.587 285.272 394.787 281.212C388.987 277.152 365.787 249.95 362.693 247.514C359.6 245.078 334.467 242.642 334.467 242.642Z" fill="#7C53E0" stroke="#263238" stroke-linecap="round" stroke-linejoin="round"/>
<path opacity="0.2" d="M356.143 267.854C356.143 267.854 368.107 251.72 353.251 251.614C344.386 251.544 335.752 254.579 328.713 260.238C328.713 260.238 292.66 251.614 274.649 251.614C256.638 251.614 279.096 260.23 283.813 268.772C288.531 277.314 262.578 260.23 251.813 258.5C243.987 257.242 240.831 261.748 239.927 271.63L226.007 261.959C226.007 261.959 194.88 295.568 191.013 297.192C187.147 298.816 178.64 292.32 178.64 299.628C178.64 306.936 186.373 312.336 189.467 310.444C192.56 308.552 227.36 293.132 227.36 293.132L239.733 319.116L243.414 320.496C243.53 321.178 243.6 321.552 243.6 321.552L246.546 321.674L250.56 323.176V321.828L344.907 325.612L352.64 293.132C352.64 293.132 384.347 310.996 390.533 316.68C396.72 322.364 402.907 319.928 405.227 315.868C407.547 311.808 356.143 267.854 356.143 267.854Z" fill="black"/>
<path d="M309.124 258.143C310.532 258.955 311.676 259.596 312.427 260.1" stroke="#263238" stroke-linecap="round" stroke-linejoin="round"/>
<path d="M281.493 244.266C281.493 244.266 297.393 251.858 306.758 256.852" stroke="#263238" stroke-linecap="round" stroke-linejoin="round"/>
<path d="M301.213 251.98C301.213 251.98 312.04 256.852 317.067 261.318" stroke="#263238" stroke-linecap="round" stroke-linejoin="round"/>
<path d="M360.52 275.471L355.347 294.204L366.173 273.904" stroke="#263238" stroke-linecap="round" stroke-linejoin="round"/>
<path d="M363.08 266.19L361.796 270.843" stroke="#263238" stroke-linecap="round" stroke-linejoin="round"/>
<path d="M224.762 275.609L229.293 295.828L218.467 278.37" stroke="#263238" stroke-linecap="round" stroke-linejoin="round"/>
<path d="M223.107 268.22L223.973 272.093" stroke="#263238" stroke-linecap="round" stroke-linejoin="round"/>
<path d="M177.673 285.564C181.345 282.374 185.633 280.058 190.24 278.776" stroke="#263238" stroke-linecap="round" stroke-linejoin="round"/>
<path d="M172.84 290.55C173.578 289.596 174.374 288.693 175.222 287.846" stroke="#263238" stroke-linecap="round" stroke-linejoin="round"/>
<path d="M234.506 368.096L225.28 319.449C225.156 318.799 225.171 318.129 225.324 317.487C225.477 316.844 225.764 316.245 226.165 315.733C226.565 315.221 227.069 314.809 227.639 314.526C228.209 314.243 228.833 314.097 229.463 314.098H355.563C356.194 314.097 356.817 314.243 357.388 314.526C357.958 314.809 358.462 315.221 358.862 315.733C359.262 316.245 359.549 316.844 359.702 317.487C359.855 318.129 359.871 318.799 359.747 319.449L350.521 368.096" fill="white"/>
<path d="M234.506 368.096L225.28 319.449C225.156 318.799 225.171 318.129 225.324 317.487C225.477 316.844 225.764 316.245 226.165 315.733C226.565 315.221 227.069 314.809 227.639 314.526C228.209 314.243 228.833 314.097 229.463 314.098H355.563C356.194 314.097 356.817 314.243 357.388 314.526C357.958 314.809 358.462 315.221 358.862 315.733C359.262 316.245 359.549 316.844 359.702 317.487C359.855 318.129 359.871 318.799 359.747 319.449L350.521 368.096" stroke="#263238" stroke-linecap="round" stroke-linejoin="round"/>
<path d="M239.432 368.096L230.067 314.098H354.96L345.595 368.096" fill="#263238"/>
<path d="M239.432 368.096L230.067 314.098H354.96L345.595 368.096" stroke="#263238" stroke-linecap="round" stroke-linejoin="round"/>
<defs>
<linearGradient id="paint0_linear" x1="22.6412" y1="185.943" x2="562.715" y2="185.943" gradientUnits="userSpaceOnUse">
<stop stop-color="#7353E5"/>
<stop offset="1" stop-color="#CE4EA4"/>
</linearGradient>
<linearGradient id="paint1_linear" x1="21.2626" y1="186.781" x2="555.99" y2="186.781" gradientUnits="userSpaceOnUse">
<stop stop-color="#262364"/>
<stop offset="1" stop-color="#CD4FA5"/>
</linearGradient>
</defs>
</svg>
