<svg width="500" height="500" viewBox="0 0 500 500" fill="none" xmlns="http://www.w3.org/2000/svg">
<path d="M55.13 426.47H266.34C267.2 425.11 268.06 423.75 268.94 422.42C291.66 387.83 328.03 363.18 367.77 351.61C385.56 346.43 404.85 343.34 419.15 331.55C433.87 319.42 440.63 300.05 443.55 281.21C447.1 258.38 445.18 232.8 429.69 215.67C411.5 195.55 381 193.3 357.32 180.11C316.53 157.42 300.71 105.72 263.61 77.4001C240.17 59.5201 208.51 52.5901 180.2 56.5101C140.01 62.0701 102.2 89.0101 90.84 128.51C87.582 140.012 86.4168 152.006 87.4 163.92C89.22 187.47 94.29 211.33 89.51 234.46C84.24 259.95 67.65 281.46 57.74 305.54C45.4 335.54 43.74 369.15 48.98 401.13C50.3534 409.727 52.4099 418.2 55.13 426.47Z" fill="url(#paint0_linear)"/>
<path d="M418.196 330.392L418.196 330.393C411.25 336.119 403.051 339.767 394.302 342.633C389.002 344.369 383.62 345.786 378.208 347.211C374.598 348.161 370.973 349.115 367.351 350.17C327.315 361.826 290.63 386.669 267.689 421.592C266.951 422.707 266.229 423.841 265.514 424.97H56.2195C53.6901 417.103 51.765 409.054 50.4612 400.893L50.4603 400.888C45.2533 369.109 46.9179 335.793 59.1272 306.111C62.8074 297.168 67.4047 288.606 72.0355 279.981C73.596 277.074 75.1603 274.161 76.6946 271.223C82.7531 259.624 88.2999 247.722 90.9789 234.764L90.979 234.764C93.4099 223.001 93.3278 211.094 92.4257 199.234C91.9746 193.304 91.3167 187.365 90.6605 181.459L90.6433 181.304C89.992 175.441 89.3443 169.611 88.8956 163.805L88.8949 163.797C87.9266 152.062 89.074 140.25 92.2826 128.921C103.446 90.1095 140.674 63.4925 180.406 57.9959L180.406 57.9959C208.363 54.1247 239.611 60.9805 262.7 78.5924C279.348 91.3006 291.671 108.782 304.094 126.407C305.346 128.183 306.599 129.96 307.858 131.734C321.54 151.023 335.864 169.891 356.591 181.421C365.606 186.442 375.635 189.913 385.465 193.316C388.695 194.434 391.903 195.544 395.046 196.699C407.864 201.41 419.74 206.901 428.577 216.676L429.69 215.67L428.577 216.676C443.61 233.3 445.594 258.304 442.068 280.98L442.068 280.98C439.168 299.688 432.492 318.612 418.196 330.392Z" stroke="url(#paint1_linear)" stroke-width="3"/>
<path d="M300.69 230H308.32C308.585 230 308.84 230.105 309.027 230.293C309.215 230.48 309.32 230.735 309.32 231V236.09H299.69V231C299.69 230.735 299.795 230.48 299.983 230.293C300.17 230.105 300.425 230 300.69 230Z" fill="#BFBFBF" stroke="#263238" stroke-linecap="round" stroke-linejoin="round"/>
<path d="M329.88 219.99H322.63V235.42H329.88V219.99Z" fill="#BFBFBF" stroke="#263238" stroke-linecap="round" stroke-linejoin="round"/>
<path d="M331.53 216.43H320.98V221.37H331.53V216.43Z" fill="#999999" stroke="#263238" stroke-linecap="round" stroke-linejoin="round"/>
<path d="M273.03 223.25H270.26V235.41H273.03V223.25Z" fill="#757575" stroke="#263238" stroke-linecap="round" stroke-linejoin="round"/>
<path d="M259.68 223.25H256.91V235.41H259.68V223.25Z" fill="#757575" stroke="#263238" stroke-linecap="round" stroke-linejoin="round"/>
<path d="M286.38 223.25H283.61V235.41H286.38V223.25Z" fill="#757575" stroke="#263238" stroke-linecap="round" stroke-linejoin="round"/>
<path d="M341.85 236.67V247.42H245.58V236.67C245.58 235.845 245.908 235.054 246.491 234.471C247.074 233.888 247.865 233.56 248.69 233.56H338.74C339.464 233.559 340.165 233.809 340.724 234.269C341.282 234.729 341.663 235.37 341.8 236.08C341.832 236.275 341.849 236.472 341.85 236.67Z" fill="#999999"/>
<path opacity="0.2" d="M341.85 236.67V247.42H289.25V239.56C289.25 239.103 289.34 238.65 289.515 238.228C289.69 237.806 289.946 237.422 290.269 237.099C290.592 236.776 290.976 236.52 291.398 236.345C291.82 236.17 292.273 236.08 292.73 236.08H341.8C341.832 236.275 341.849 236.472 341.85 236.67Z" fill="black" fill-opacity="0.7"/>
<path d="M341.85 236.67V247.42H245.58V236.67C245.58 235.845 245.908 235.054 246.491 234.471C247.074 233.888 247.865 233.56 248.69 233.56H338.74C339.464 233.559 340.165 233.809 340.724 234.269C341.282 234.729 341.663 235.37 341.8 236.08C341.832 236.275 341.849 236.472 341.85 236.67V236.67Z" stroke="#263238" stroke-linecap="round" stroke-linejoin="round"/>
<path d="M287.37 225.13H255.92C255.421 225.13 254.943 224.932 254.591 224.579C254.238 224.227 254.04 223.748 254.04 223.25C254.04 222.751 254.238 222.273 254.591 221.921C254.943 221.568 255.421 221.37 255.92 221.37H287.37C287.869 221.37 288.347 221.568 288.699 221.921C289.052 222.273 289.25 222.751 289.25 223.25C289.25 223.748 289.052 224.227 288.699 224.579C288.347 224.932 287.869 225.13 287.37 225.13Z" fill="#BFBFBF" stroke="#263238" stroke-linecap="round" stroke-linejoin="round"/>
<path d="M243.31 244.41H343.84C345.726 244.41 347.534 245.159 348.868 246.492C350.201 247.826 350.95 249.634 350.95 251.52V417H236.2V251.52C236.2 249.634 236.949 247.826 238.282 246.492C239.616 245.159 241.424 244.41 243.31 244.41Z" fill="#BFBFBF"/>
<path opacity="0.2" d="M351 251.52V417H304.5V259.3C304.5 256.953 305.432 254.702 307.092 253.042C308.752 251.382 311.003 250.45 313.35 250.45H350.86C350.937 250.802 350.984 251.16 351 251.52Z" fill="black" fill-opacity="0.7"/>
<path opacity="0.4" d="M350.08 248.09H237.08C237.692 246.974 238.594 246.043 239.69 245.395C240.786 244.748 242.037 244.407 243.31 244.41H343.84C345.114 244.409 346.365 244.75 347.463 245.397C348.561 246.044 349.464 246.974 350.08 248.09Z" fill="white"/>
<path d="M243.31 244.41H343.84C345.726 244.41 347.534 245.159 348.868 246.492C350.201 247.826 350.95 249.634 350.95 251.52V417H236.2V251.52C236.2 249.634 236.949 247.826 238.282 246.492C239.616 245.159 241.424 244.41 243.31 244.41V244.41Z" stroke="#263238" stroke-linecap="round" stroke-linejoin="round"/>
<path d="M279.156 398.14C280.587 389.275 274.56 380.928 265.695 379.497C256.829 378.066 248.482 384.092 247.051 392.958C245.62 401.823 251.647 410.17 260.512 411.601C269.378 413.032 277.725 407.005 279.156 398.14Z" fill="#999999" stroke="#263238" stroke-linecap="round" stroke-linejoin="round"/>
<path d="M206.13 294.54H180.07L160.07 262.99H226.13L206.13 294.54Z" fill="#999999" stroke="#263238" stroke-linecap="round" stroke-linejoin="round"/>
<path d="M259.84 409.19H235.29C220.649 409.193 206.607 403.38 196.251 393.03C185.896 382.68 180.075 368.641 180.07 354V294.54H206.14V351C206.14 359.198 209.397 367.06 215.193 372.857C220.99 378.653 228.852 381.91 237.05 381.91H259.84C263.458 381.913 266.928 383.352 269.486 385.912C272.043 388.471 273.48 391.942 273.48 395.56C273.477 399.176 272.039 402.643 269.481 405.199C266.924 407.754 263.456 409.19 259.84 409.19Z" fill="#BFBFBF"/>
<path opacity="0.2" d="M273.48 395.55C273.48 399.168 272.043 402.637 269.485 405.195C266.927 407.753 263.458 409.19 259.84 409.19H237.65C237.462 404.895 236.167 400.721 233.889 397.074C231.611 393.428 228.428 390.433 224.65 388.38C215.99 383.614 208.769 376.61 203.742 368.1C198.714 359.589 196.065 349.885 196.07 340V294.54H206.14V351C206.14 359.198 209.397 367.06 215.193 372.857C220.99 378.653 228.852 381.91 237.05 381.91H259.84C263.457 381.913 266.925 383.351 269.482 385.908C272.039 388.465 273.477 391.933 273.48 395.55Z" fill="black" fill-opacity="0.7"/>
<path d="M259.84 409.19H235.29C220.649 409.193 206.607 403.38 196.251 393.03C185.896 382.68 180.075 368.641 180.07 354V294.54H206.14V351C206.14 359.198 209.397 367.06 215.193 372.857C220.99 378.653 228.852 381.91 237.05 381.91H259.84C263.458 381.913 266.928 383.352 269.486 385.912C272.043 388.471 273.48 391.942 273.48 395.56V395.56C273.477 399.176 272.039 402.643 269.481 405.199C266.924 407.754 263.456 409.19 259.84 409.19V409.19Z" stroke="#263238" stroke-linecap="round" stroke-linejoin="round"/>
<path d="M180.07 315.36H206.14" stroke="#263238" stroke-linecap="round" stroke-linejoin="round"/>
<path d="M180.07 337.58H206.14" stroke="#263238" stroke-linecap="round" stroke-linejoin="round"/>
<path d="M180.07 360.28L206.74 357.11" stroke="#263238" stroke-linecap="round" stroke-linejoin="round"/>
<path d="M188.59 383.46L211.37 368.21" stroke="#263238" stroke-linecap="round" stroke-linejoin="round"/>
<path d="M206.74 401.2L219.94 376.74" stroke="#263238" stroke-linecap="round" stroke-linejoin="round"/>
<path d="M228 408.72C228 408.72 237.09 398.14 232.74 381.9" stroke="#263238" stroke-linecap="round" stroke-linejoin="round"/>
<path d="M251.33 409.19C251.33 409.19 258.05 395.76 251.33 381.9" stroke="#263238" stroke-linecap="round" stroke-linejoin="round"/>
<path opacity="0.4" d="M181.67 292.06H195.21L204.97 265.3H167.29L181.67 292.06Z" fill="white"/>
<path d="M287.93 299.7H252.31C251.296 299.7 250.323 299.298 249.605 298.582C248.887 297.865 248.483 296.894 248.48 295.88C248.483 294.865 248.887 293.892 249.605 293.174C250.322 292.457 251.295 292.052 252.31 292.05H287.93C288.946 292.05 289.92 292.453 290.638 293.172C291.356 293.89 291.76 294.864 291.76 295.88C291.76 296.382 291.661 296.88 291.468 297.344C291.276 297.808 290.993 298.23 290.638 298.585C290.282 298.939 289.86 299.221 289.395 299.412C288.93 299.603 288.432 299.701 287.93 299.7Z" fill="#757575" stroke="#263238" stroke-linecap="round" stroke-linejoin="round"/>
<path d="M288.56 292.93H255.18C254.35 292.93 253.554 293.26 252.967 293.847C252.38 294.434 252.05 295.23 252.05 296.06C252.05 296.89 252.38 297.686 252.967 298.273C253.554 298.86 254.35 299.19 255.18 299.19H288.56C289.39 299.19 290.186 298.86 290.773 298.273C291.36 297.686 291.69 296.89 291.69 296.06C291.69 295.23 291.36 294.434 290.773 293.847C290.186 293.26 289.39 292.93 288.56 292.93Z" fill="#263238"/>
<path d="M288.67 315.36H251.56C249.859 315.36 248.48 316.739 248.48 318.44V366.21C248.48 367.911 249.859 369.29 251.56 369.29H288.67C290.371 369.29 291.75 367.911 291.75 366.21V318.44C291.75 316.739 290.371 315.36 288.67 315.36Z" fill="#999999" stroke="#263238" stroke-linecap="round" stroke-linejoin="round"/>
<path d="M287.93 279.7H252.31C251.296 279.7 250.323 279.298 249.605 278.582C248.887 277.865 248.483 276.894 248.48 275.88C248.483 274.865 248.887 273.892 249.605 273.174C250.322 272.457 251.295 272.052 252.31 272.05H287.93C288.946 272.05 289.92 272.453 290.638 273.172C291.356 273.89 291.76 274.864 291.76 275.88C291.76 276.382 291.661 276.88 291.468 277.344C291.276 277.808 290.993 278.23 290.638 278.585C290.282 278.939 289.86 279.221 289.395 279.412C288.93 279.603 288.432 279.701 287.93 279.7Z" fill="#757575" stroke="#263238" stroke-linecap="round" stroke-linejoin="round"/>
<path d="M288.56 272.93H255.18C254.35 272.93 253.554 273.26 252.967 273.847C252.38 274.434 252.05 275.23 252.05 276.06C252.05 276.89 252.38 277.686 252.967 278.273C253.554 278.86 254.35 279.19 255.18 279.19H288.56C289.39 279.19 290.186 278.86 290.773 278.273C291.36 277.686 291.69 276.89 291.69 276.06C291.69 275.23 291.36 274.434 290.773 273.847C290.186 273.26 289.39 272.93 288.56 272.93Z" fill="#263238"/>
<path d="M359.63 419.37V426.47H225.07V419.37C225.07 418.216 225.528 417.11 226.344 416.294C227.16 415.478 228.266 415.02 229.42 415.02H355.27C356.425 415.02 357.532 415.478 358.349 416.294C359.167 417.109 359.627 418.215 359.63 419.37Z" fill="#757575"/>
<path opacity="0.4" d="M321.27 415V418.32C321.271 418.635 321.21 418.947 321.091 419.238C320.971 419.529 320.796 419.793 320.574 420.016C320.351 420.239 320.088 420.416 319.797 420.537C319.506 420.658 319.195 420.72 318.88 420.72H225.07V419.35C225.07 418.196 225.528 417.09 226.344 416.274C227.16 415.458 228.266 415 229.42 415H321.27Z" fill="white"/>
<path d="M359.63 419.37V426.47H225.07V419.37C225.07 418.216 225.528 417.11 226.344 416.294C227.16 415.478 228.266 415.02 229.42 415.02H355.27C356.425 415.02 357.532 415.478 358.349 416.294C359.167 417.109 359.627 418.215 359.63 419.37Z" stroke="#263238" stroke-linecap="round" stroke-linejoin="round"/>
<g opacity="0.2">
<path opacity="0.2" d="M266.74 328.11C263.28 328.108 259.897 329.132 257.019 331.053C254.142 332.974 251.898 335.706 250.573 338.902C249.248 342.098 248.901 345.616 249.576 349.01C250.25 352.403 251.916 355.521 254.363 357.967C256.809 360.414 259.927 362.08 263.32 362.754C266.714 363.429 270.231 363.082 273.428 361.757C276.624 360.432 279.356 358.188 281.277 355.311C283.198 352.433 284.222 349.05 284.22 345.59C284.217 340.955 282.375 336.51 279.097 333.233C275.82 329.955 271.375 328.113 266.74 328.11ZM280.3 344.11H273.3C273.064 343.211 272.607 342.386 271.97 341.71L273.09 333.49C275.074 334.537 276.769 336.056 278.027 337.913C279.284 339.771 280.065 341.909 280.3 344.14V344.11ZM270.3 332.41L269.3 340.09C268.831 339.958 268.347 339.891 267.86 339.89C267.056 339.893 266.262 340.067 265.53 340.4L260.83 333.31C263.78 331.846 267.168 331.526 270.34 332.41H270.3ZM258.3 334.85L263.2 342.24C262.793 342.804 262.491 343.438 262.31 344.11H253.15C253.351 342.304 253.913 340.557 254.801 338.972C255.689 337.386 256.885 335.995 258.32 334.88L258.3 334.85ZM253.17 347H262.33C262.509 347.676 262.811 348.313 263.22 348.88L258.32 356.27C256.885 355.148 255.69 353.749 254.805 352.157C253.92 350.565 253.364 348.811 253.17 347ZM260.78 357.81L265.48 350.72C266.212 351.05 267.007 351.22 267.81 351.22C268.296 351.217 268.78 351.153 269.25 351.03L270.25 358.71C267.076 359.58 263.694 359.26 260.74 357.81H260.78ZM273.07 357.63L272 349.45C272.639 348.771 273.096 347.942 273.33 347.04H280.33C280.087 349.272 279.297 351.41 278.031 353.264C276.764 355.118 275.061 356.631 273.07 357.67V357.63Z" fill="black"/>
</g>
<path d="M260.758 344.234L253.832 354.676L256.248 356.279L263.175 345.837L260.758 344.234Z" fill="#BFBFBF" stroke="#263238" stroke-linecap="round" stroke-linejoin="round"/>
<path d="M265.272 345.655L266.955 358.071L269.828 357.681L268.145 345.265L265.272 345.655Z" fill="#BFBFBF" stroke="#263238" stroke-linecap="round" stroke-linejoin="round"/>
<path d="M263.198 339.488L256.271 329.046L253.855 330.65L260.781 341.091L263.198 339.488Z" fill="#BFBFBF" stroke="#263238" stroke-linecap="round" stroke-linejoin="round"/>
<path d="M268.156 340.008L269.84 327.592L266.966 327.202L265.283 339.619L268.156 340.008Z" fill="#BFBFBF" stroke="#263238" stroke-linecap="round" stroke-linejoin="round"/>
<path d="M280.09 341.2H267.56V344.1H280.09V341.2Z" fill="#BFBFBF" stroke="#263238" stroke-linecap="round" stroke-linejoin="round"/>
<path d="M260.09 341.2H247.56V344.1H260.09V341.2Z" fill="#BFBFBF" stroke="#263238" stroke-linecap="round" stroke-linejoin="round"/>
<path d="M263.1 325.16C259.641 325.16 256.259 326.186 253.383 328.108C250.507 330.029 248.265 332.761 246.941 335.957C245.618 339.153 245.271 342.669 245.946 346.062C246.621 349.455 248.287 352.571 250.733 355.017C253.179 357.463 256.295 359.129 259.688 359.804C263.081 360.479 266.597 360.132 269.793 358.809C272.989 357.485 275.721 355.243 277.642 352.367C279.564 349.491 280.59 346.109 280.59 342.65C280.59 340.353 280.138 338.079 279.259 335.957C278.38 333.835 277.091 331.907 275.467 330.283C273.843 328.659 271.915 327.37 269.793 326.491C267.671 325.612 265.397 325.16 263.1 325.16ZM263.1 356.29C260.402 356.29 257.765 355.49 255.522 353.991C253.279 352.492 251.531 350.362 250.498 347.87C249.466 345.377 249.196 342.635 249.722 339.989C250.248 337.343 251.547 334.913 253.455 333.005C255.363 331.097 257.793 329.798 260.439 329.272C263.085 328.746 265.827 329.016 268.32 330.048C270.812 331.081 272.942 332.829 274.441 335.072C275.94 337.315 276.74 339.952 276.74 342.65C276.74 346.267 275.303 349.737 272.745 352.295C270.187 354.853 266.718 356.29 263.1 356.29Z" fill="#BFBFBF" stroke="#263238" stroke-linecap="round" stroke-linejoin="round"/>
<path d="M269.85 342.65C269.85 343.771 269.517 344.868 268.894 345.8C268.271 346.732 267.386 347.459 266.35 347.888C265.314 348.318 264.174 348.43 263.074 348.211C261.974 347.992 260.964 347.452 260.171 346.659C259.378 345.866 258.838 344.856 258.619 343.756C258.4 342.656 258.512 341.516 258.942 340.48C259.371 339.444 260.097 338.559 261.03 337.936C261.962 337.313 263.059 336.98 264.18 336.98C264.925 336.98 265.662 337.127 266.35 337.412C267.038 337.697 267.663 338.114 268.189 338.641C268.716 339.167 269.133 339.792 269.418 340.48C269.703 341.168 269.85 341.905 269.85 342.65Z" fill="#BFBFBF" stroke="#263238" stroke-linecap="round" stroke-linejoin="round"/>
<path d="M368.78 341.73H339C336.613 341.73 334.324 340.782 332.636 339.094C330.948 337.406 330 335.117 330 332.73C330 330.343 330.948 328.054 332.636 326.366C334.324 324.678 336.613 323.73 339 323.73H368.83L368.78 341.73Z" fill="#999999" stroke="#263238" stroke-linecap="round" stroke-linejoin="round"/>
<path d="M437.28 404.69H372.88V426.46H437.28V404.69Z" fill="#757575" stroke="#263238" stroke-linecap="round" stroke-linejoin="round"/>
<path d="M431.25 404.69H372.88V426.46H431.25V404.69Z" fill="#999999" stroke="#263238" stroke-linecap="round" stroke-linejoin="round"/>
<path d="M441.32 254.82H376.84C374.653 254.82 372.88 256.593 372.88 258.78V407.32C372.88 409.507 374.653 411.28 376.84 411.28H441.32C443.507 411.28 445.28 409.507 445.28 407.32V258.78C445.28 256.593 443.507 254.82 441.32 254.82Z" fill="#757575" stroke="#263238" stroke-linecap="round" stroke-linejoin="round"/>
<path d="M433.32 254.82H368.84C366.653 254.82 364.88 256.593 364.88 258.78V407.32C364.88 409.507 366.653 411.28 368.84 411.28H433.32C435.507 411.28 437.28 409.507 437.28 407.32V258.78C437.28 256.593 435.507 254.82 433.32 254.82Z" fill="#BFBFBF" stroke="#263238" stroke-linecap="round" stroke-linejoin="round"/>
<path d="M434.27 407.32V258.78C434.27 258.25 433.84 257.82 433.31 257.82H368.83C368.3 257.82 367.87 258.25 367.87 258.78V407.32C367.87 407.85 368.3 408.28 368.83 408.28H433.31C433.84 408.28 434.27 407.85 434.27 407.32Z" fill="#263238"/>
<path d="M368.83 420.74H440.43C440.96 420.74 441.469 420.951 441.844 421.326C442.219 421.701 442.43 422.21 442.43 422.74V426.51H366.88V422.7C366.89 422.185 367.099 421.694 367.462 421.329C367.825 420.964 368.315 420.753 368.83 420.74Z" fill="#757575" stroke="#263238" stroke-linecap="round" stroke-linejoin="round"/>
<path opacity="0.2" d="M427.04 263.18H373.9C373.281 263.18 372.78 263.681 372.78 264.3V302.81C372.78 303.428 373.281 303.93 373.9 303.93H427.04C427.659 303.93 428.16 303.428 428.16 302.81V264.3C428.16 263.681 427.659 263.18 427.04 263.18Z" fill="#15121D"/>
<path opacity="0.4" d="M394.42 283.68L411.27 290.1C412.446 286.84 412.684 283.315 411.958 279.927C411.231 276.538 409.569 273.421 407.16 270.93L394.42 283.68Z" fill="#7C53E0"/>
<path opacity="0.6" d="M394.43 282.8L406.73 270.5C404.492 268.326 401.74 266.753 398.73 265.93L397 272.82L394.43 282.8Z" fill="#7C53E0"/>
<path d="M394.17 265.3V281.35L398.1 265.78C396.811 265.482 395.493 265.321 394.17 265.3Z" fill="#7C53E0"/>
<path opacity="0.1" d="M393.57 283.62V265.3C390.367 265.351 387.231 266.234 384.472 267.862C381.712 269.489 379.422 271.805 377.826 274.583C376.231 277.361 375.384 280.506 375.369 283.71C375.353 286.914 376.171 290.067 377.74 292.86L393.57 283.62Z" fill="white"/>
<path opacity="0.2" d="M393.87 302.3C397.568 302.299 401.18 301.191 404.242 299.118C407.305 297.045 409.676 294.103 411.05 290.67L393.9 284.13L378 293.39C379.654 296.116 381.984 298.369 384.764 299.93C387.545 301.491 390.681 302.307 393.87 302.3Z" fill="#7C53E0"/>
<path d="M425.03 270.32H416.35V272.84H425.03V270.32Z" fill="#7C53E0"/>
<path opacity="0.6" d="M425.03 276.37H416.35V278.89H425.03V276.37Z" fill="#7C53E0"/>
<path opacity="0.4" d="M425.03 282.41H416.35V284.93H425.03V282.41Z" fill="#7C53E0"/>
<path opacity="0.2" d="M425.03 288.46H416.35V290.98H425.03V288.46Z" fill="#7C53E0"/>
<path opacity="0.1" d="M425.03 294.51H416.35V297.03H425.03V294.51Z" fill="white"/>
<path opacity="0.2" d="M427.04 312.18H373.9C373.281 312.18 372.78 312.681 372.78 313.3V351.81C372.78 352.428 373.281 352.93 373.9 352.93H427.04C427.659 352.93 428.16 352.428 428.16 351.81V313.3C428.16 312.681 427.659 312.18 427.04 312.18Z" fill="#15121D"/>
<path opacity="0.5" d="M378.56 343.38H376.04V345.6H378.56V343.38Z" fill="#7C53E0"/>
<path opacity="0.2" d="M378.56 343.38H376.04V349.41H378.56V343.38Z" fill="#7C53E0"/>
<path opacity="0.5" d="M383.73 337.38H381.21V341.8H383.73V337.38Z" fill="#7C53E0"/>
<path opacity="0.2" d="M383.73 337.38H381.21V349.41H383.73V337.38Z" fill="#7C53E0"/>
<path opacity="0.5" d="M388.89 331.38H386.37V338H388.89V331.38Z" fill="#7C53E0"/>
<path opacity="0.2" d="M388.89 331.38H386.37V349.41H388.89V331.38Z" fill="#7C53E0"/>
<path opacity="0.5" d="M394.05 333.38H391.53V339.27H394.05V333.38Z" fill="#7C53E0"/>
<path opacity="0.2" d="M394.05 333.38H391.53V349.41H394.05V333.38Z" fill="#7C53E0"/>
<path opacity="0.5" d="M399.22 335.38H396.7V340.53H399.22V335.38Z" fill="#7C53E0"/>
<path opacity="0.2" d="M399.22 335.38H396.7V349.41H399.22V335.38Z" fill="#7C53E0"/>
<path opacity="0.5" d="M404.38 334.38H401.86V339.9H404.38V334.38Z" fill="#7C53E0"/>
<path opacity="0.2" d="M404.38 334.38H401.86V349.41H404.38V334.38Z" fill="#7C53E0"/>
<path opacity="0.5" d="M409.55 331.38H407.03V338H409.55V331.38Z" fill="#7C53E0"/>
<path opacity="0.2" d="M409.55 331.38H407.03V349.41H409.55V331.38Z" fill="#7C53E0"/>
<path opacity="0.5" d="M414.71 328.38H412.19V336.11H414.71V328.38Z" fill="#7C53E0"/>
<path opacity="0.2" d="M414.71 328.38H412.19V349.41H414.71V328.38Z" fill="#7C53E0"/>
<path opacity="0.5" d="M419.87 331.38H417.35V338H419.87V331.38Z" fill="#7C53E0"/>
<path opacity="0.2" d="M419.87 331.38H417.35V349.41H419.87V331.38Z" fill="#7C53E0"/>
<path opacity="0.5" d="M425.04 322.38H422.52V332.31H425.04V322.38Z" fill="#7C53E0"/>
<path opacity="0.2" d="M425.04 322.38H422.52V349.41H425.04V322.38Z" fill="#7C53E0"/>
<path opacity="0.2" d="M427.04 361.18H373.9C373.281 361.18 372.78 361.681 372.78 362.3V400.81C372.78 401.428 373.281 401.93 373.9 401.93H427.04C427.659 401.93 428.16 401.428 428.16 400.81V362.3C428.16 361.681 427.659 361.18 427.04 361.18Z" fill="#15121D"/>
<path d="M390.44 367.11H378.56V368.94H390.44V367.11Z" fill="#7C53E0"/>
<path d="M421.44 374.09H385.56V375.92H421.44V374.09Z" fill="#7C53E0"/>
<path d="M421.44 378.89H378.56V380.72H421.44V378.89Z" fill="#7C53E0"/>
<path d="M421.44 383.7H378.56V385.53H421.44V383.7Z" fill="#7C53E0"/>
<path d="M421.44 388.5H378.56V390.33H421.44V388.5Z" fill="#7C53E0"/>
<path d="M401.44 393.3H378.56V395.13H401.44V393.3Z" fill="#7C53E0"/>
<path d="M314.1 192.91C313.18 192.905 312.281 193.183 311.524 193.706C310.767 194.23 310.191 194.974 309.872 195.837C309.553 196.7 309.507 197.64 309.741 198.53C309.975 199.42 310.478 200.216 311.18 200.81C310.478 201.404 309.975 202.2 309.741 203.09C309.507 203.98 309.553 204.92 309.872 205.783C310.191 206.646 310.767 207.39 311.524 207.914C312.281 208.437 313.18 208.715 314.1 208.71H314.21C314.506 209.4 314.961 210.01 315.538 210.491C316.114 210.972 316.796 211.31 317.528 211.478C318.26 211.645 319.021 211.638 319.749 211.456C320.478 211.274 321.153 210.922 321.72 210.43V210.43C322.076 210.523 322.442 210.57 322.81 210.57" stroke="#263238" stroke-linecap="round" stroke-linejoin="round"/>
<path d="M329.84 198.66C329.837 197.391 329.332 196.174 328.434 195.276C327.536 194.378 326.32 193.873 325.05 193.87C324.866 193.88 324.682 193.9 324.5 193.93C324.241 193.049 323.717 192.268 323 191.694C322.282 191.12 321.406 190.781 320.489 190.722C319.572 190.663 318.659 190.887 317.874 191.364C317.089 191.842 316.47 192.549 316.1 193.39" stroke="#263238" stroke-linecap="round" stroke-linejoin="round"/>
<path d="M326.33 209C327.082 208.798 327.772 208.413 328.34 207.88C328.908 207.347 329.336 206.683 329.586 205.945C329.837 205.208 329.901 204.42 329.774 203.652C329.648 202.883 329.334 202.158 328.86 201.54" stroke="#263238" stroke-linecap="round" stroke-linejoin="round"/>
<path d="M349.72 196.79C350.138 196.905 350.567 196.975 351 197C352.357 197.271 353.763 197.134 355.042 196.606C356.321 196.078 357.415 195.183 358.185 194.033C358.955 192.884 359.368 191.533 359.371 190.149C359.373 188.765 358.966 187.412 358.2 186.26" stroke="#263238" stroke-linecap="round" stroke-linejoin="round"/>
<path d="M335.29 189.39C335.29 190.812 335.855 192.175 336.86 193.18C337.865 194.185 339.228 194.75 340.65 194.75H340.77C341.211 195.774 341.943 196.646 342.874 197.259C343.805 197.872 344.895 198.199 346.01 198.2" stroke="#263238" stroke-linecap="round" stroke-linejoin="round"/>
<path d="M359.38 182.79C359.38 181.278 358.779 179.829 357.71 178.76C356.642 177.691 355.192 177.09 353.68 177.09C353.46 177.09 353.25 177.09 353.03 177.15C352.717 176.104 352.091 175.179 351.236 174.5C350.382 173.82 349.339 173.419 348.25 173.35C347.16 173.282 346.075 173.549 345.142 174.116C344.209 174.682 343.472 175.522 343.03 176.52C342.297 176.142 341.485 175.944 340.66 175.94C339.565 175.935 338.495 176.268 337.595 176.891C336.695 177.515 336.008 178.401 335.628 179.428C335.249 180.455 335.194 181.574 335.471 182.633C335.749 183.693 336.345 184.641 337.18 185.35" stroke="#263238" stroke-linecap="round" stroke-linejoin="round"/>
<path d="M309 168.71C309.061 169.979 309.477 171.206 310.199 172.251C310.921 173.297 311.921 174.119 313.086 174.626C314.252 175.133 315.535 175.303 316.793 175.118C318.05 174.934 319.23 174.401 320.2 173.58C320.393 173.406 320.573 173.219 320.74 173.02" stroke="#263238" stroke-linecap="round" stroke-linejoin="round"/>
<path d="M307.29 153.3C306.566 153.908 305.977 154.661 305.56 155.51C305.143 156.359 304.908 157.285 304.87 158.23C304.027 159.456 303.609 160.924 303.679 162.411C303.75 163.897 304.305 165.319 305.26 166.46" stroke="#263238" stroke-linecap="round" stroke-linejoin="round"/>
<path d="M328.94 153.27C329.1 152.361 329.058 151.427 328.818 150.536C328.578 149.644 328.145 148.816 327.55 148.11C327.008 147.464 326.344 146.93 325.595 146.541C324.847 146.151 324.029 145.913 323.189 145.839C322.348 145.766 321.502 145.859 320.697 146.113C319.892 146.367 319.146 146.777 318.5 147.32C318.469 147.356 318.436 147.389 318.4 147.42C317.444 146.933 316.387 146.68 315.315 146.68C314.242 146.681 313.185 146.936 312.23 147.423C311.275 147.911 310.449 148.618 309.82 149.487C309.19 150.355 308.776 151.361 308.61 152.42V152.42" stroke="#263238" stroke-linecap="round" stroke-linejoin="round"/>
<path d="M323.28 174C324.343 174.163 325.43 174.056 326.441 173.687C327.451 173.318 328.352 172.7 329.06 171.89C329.768 171.08 330.261 170.105 330.491 169.054C330.722 168.004 330.684 166.912 330.38 165.88C331.446 165.632 332.43 165.113 333.238 164.375C334.046 163.636 334.65 162.702 334.992 161.663C335.335 160.623 335.404 159.513 335.193 158.439C334.983 157.365 334.5 156.363 333.79 155.53" stroke="#263238" stroke-linecap="round" stroke-linejoin="round"/>
<path d="M81.5 314.56L77.93 329.78H105C105 329.78 106.27 327.26 103 325.59C99.73 323.92 91.69 320.41 92 316.2C92.31 311.99 81.5 314.56 81.5 314.56Z" fill="#757575" stroke="#263238" stroke-linecap="round" stroke-linejoin="round"/>
<path d="M130.72 315L128.79 329.78H155.84C155.84 329.78 156.84 327.33 153.38 325.71C149.92 324.09 141.52 320.71 141.38 316.59C141.24 312.47 130.72 315 130.72 315Z" fill="#757575" stroke="#263238" stroke-linecap="round" stroke-linejoin="round"/>
<path d="M131.63 141.88L125.95 148.18L120.26 154.49L111.51 153.69L115.83 158.24L110.72 163.89C96.63 155.1 92.41 143.58 100.14 141.42L100.68 141.28C108.77 139.31 128.07 140.5 131.63 141.88Z" fill="#7C53E0"/>
<path opacity="0.2" d="M120.26 154.49L111.51 153.69L115.83 158.24L110.72 163.89C96.63 155.1 92.41 143.58 100.14 141.42L100.68 141.28C100.99 143.28 101.8 145.64 103.82 146.81C107.82 149.12 118.17 149.29 118.17 149.29C118.17 149.29 121.23 146.35 124.92 146.81C125.38 146.87 125.72 147.36 125.92 148.18L120.26 154.49Z" fill="black" fill-opacity="0.7"/>
<path d="M131.63 141.88L125.95 148.18L120.26 154.49L111.51 153.69L115.83 158.24L110.72 163.89C96.63 155.1 92.41 143.58 100.14 141.42L100.68 141.28C108.77 139.31 128.07 140.5 131.63 141.88Z" stroke="#263238" stroke-linecap="round" stroke-linejoin="round"/>
<path d="M178.65 212.68C184.24 199.61 186.9 188.21 184.59 187.22L138.36 167.44C136.04 166.44 129.64 176.24 124.04 189.31C118.44 202.38 115.79 213.78 118.1 214.77L164.34 234.56C166.65 235.55 173.05 225.75 178.65 212.68Z" fill="#757575" stroke="#263238" stroke-linecap="round" stroke-linejoin="round"/>
<path d="M164.34 234.56L118.1 214.78C115.79 213.78 118.45 202.38 124.04 189.32C129.63 176.26 136.04 166.45 138.36 167.44L184.59 187.22C182.28 186.22 175.88 196.03 170.28 209.1C164.68 222.17 162 233.57 164.34 234.56Z" fill="#BFBFBF" stroke="#263238" stroke-linecap="round" stroke-linejoin="round"/>
<path d="M173.61 189L177.61 187.25C178.4 186.91 179.43 184.98 180.68 184.87C182.421 184.75 184.169 184.75 185.91 184.87C187.38 184.98 185.91 186.87 185.91 186.87C185.91 186.87 186.81 188.87 187.61 190.21C188.41 191.55 186.93 191.67 186.61 192.21C186.29 192.75 185.72 194.15 184.61 194.15C183.5 194.15 183.97 195.62 182.84 195.05C181.71 194.48 179.43 193.24 179.43 193.24L175.11 196.19L173.61 189Z" fill="white" stroke="#263238" stroke-linecap="round" stroke-linejoin="round"/>
<path d="M147.75 141.47C148.56 128.61 159.47 117.7 167.24 127.09C177.11 139 170.18 145.65 161.47 150.78C152.76 155.91 147.75 141.47 147.75 141.47Z" fill="white" stroke="#263238" stroke-linecap="round" stroke-linejoin="round"/>
<path d="M150.49 139.31C146.88 143.88 140.49 147.03 140.49 147.03L150.08 156.88C151.561 154.517 153.384 152.387 155.49 150.56" fill="white"/>
<path d="M150.49 139.31C146.88 143.88 140.49 147.03 140.49 147.03L150.08 156.88C151.561 154.517 153.384 152.387 155.49 150.56" stroke="#263238" stroke-linecap="round" stroke-linejoin="round"/>
<path d="M147.75 141.47C151.478 142.954 154.584 145.672 156.55 149.17C156.55 149.17 160.25 148.97 161.43 147.96C162.61 146.95 166.64 143.85 167.65 143.88C168.66 143.91 166.49 147.38 166.49 147.38C166.49 147.38 171.86 144.22 172.87 141.47C172.87 141.47 176.87 140.22 176.23 135.17C175.59 130.12 171.95 131.17 172.07 127.44C172.19 123.71 169.34 119.7 167.15 120.37C164.96 121.04 162.44 121.37 160.92 119.53C159.4 117.69 154.13 120.29 154.03 123.53C154 123.56 146.53 129.59 147.75 141.47Z" fill="#263238"/>
<path d="M167 144.6C167 144.6 169.12 144.01 169.4 144.6C169.68 145.19 164.31 150.13 163.3 149.17C162.29 148.21 165.74 145.44 165.74 145.44" fill="white"/>
<path d="M167 144.6C167 144.6 169.12 144.01 169.4 144.6C169.68 145.19 164.31 150.13 163.3 149.17C162.29 148.21 165.74 145.44 165.74 145.44" stroke="#263238" stroke-linecap="round" stroke-linejoin="round"/>
<path d="M139 144.34L142.09 141.88C142.09 141.88 156.61 149.42 155.49 161.44L139 151V144.34Z" fill="#7C53E0" stroke="#263238" stroke-linecap="round" stroke-linejoin="round"/>
<path d="M154.91 180.55C149.76 186.55 142.62 193.55 137.45 199.49C135.518 201.621 133.763 203.905 132.2 206.32C132.2 206.32 105.2 202.63 98.63 191.12C98 190 115 148.22 128.39 142.34C136.24 138.91 158.15 155.34 161.39 169.29C162 171.58 159.09 175.71 154.91 180.55Z" fill="#7C53E0"/>
<path opacity="0.2" d="M137.45 199.49C137.8 195.6 142.57 189.87 142.57 189.87C139.9 187.23 141.14 184.2 142.57 185.38C144 186.56 145.63 184.75 145.63 184.75C142.73 178.05 146.42 172.86 147.27 173.06C148.12 173.26 147.98 177.6 147.98 177.6C149.018 176.309 150.476 175.424 152.1 175.1C153.425 176.689 154.384 178.549 154.91 180.55C149.76 186.52 142.62 193.55 137.45 199.49Z" fill="black" fill-opacity="0.7"/>
<path d="M154.91 180.55C149.76 186.55 142.62 193.55 137.45 199.49C135.518 201.621 133.763 203.905 132.2 206.32C132.2 206.32 105.2 202.63 98.63 191.12C98 190 115 148.22 128.39 142.34C136.24 138.91 158.15 155.34 161.39 169.29C162 171.58 159.09 175.71 154.91 180.55Z" stroke="#263238" stroke-linecap="round" stroke-linejoin="round"/>
<path d="M98.89 190.48C98.89 190.48 111.44 193.72 131.65 205.56V215.12C131.65 215.12 150.04 246.83 152.77 253.82C155.5 260.81 148.31 289.37 146.49 300.51C144.67 311.65 144.44 309.6 144.67 311.64C144.9 313.68 143.31 316.42 143.31 316.42L143.53 318.24C143.53 318.24 134.13 320.51 129.35 318.24C129.35 318.24 130.04 314.14 130.04 313.46C130.453 312.125 130.992 310.833 131.65 309.6C131.65 309.6 135.72 268.54 135.95 263.54C136.18 258.54 110 226.71 110 226.71C110 226.71 110.23 252.18 110 256.15C109.77 260.12 94.62 310 94.62 310C94.8672 311.278 94.8672 312.592 94.62 313.87C94.3803 315.223 94.3803 316.607 94.62 317.96C94.62 317.96 83.71 320.23 78.94 316.14C78.94 316.14 80.07 312.28 79.85 311.37C79.63 310.46 81.44 307.73 81.44 307.73C81.44 307.73 88.21 271.73 89.12 266.45C89.79 262.922 90.7774 259.461 92.07 256.11C92.07 256.11 91.15 229.55 89.33 223.87C87.51 218.19 90.71 199.93 98.89 190.48Z" fill="#263238"/>
<path d="M117.16 183.24C116.97 183.24 129.75 159.65 142.57 149.17" stroke="#263238" stroke-linecap="round" stroke-linejoin="round"/>
<path d="M161.42 169.29C161.42 169.29 151.68 172.07 147.98 181.43C147.98 181.43 150.92 204.61 153.98 208.02C157.04 211.43 174.41 200.02 176.34 196.79L178.1 195.24C178.1 195.24 176.32 190.24 174.1 187.79L172.1 188.97C172.1 188.97 170.1 187.79 162.85 192.11C162.82 192.11 162.68 173 161.42 169.29Z" fill="#7C53E0" stroke="#263238" stroke-linecap="round" stroke-linejoin="round"/>
<path d="M172.07 189C173.273 190.621 174.308 192.36 175.16 194.19" stroke="#263238" stroke-linecap="round" stroke-linejoin="round"/>
<path d="M179.48 193.25C179.964 192.398 180.264 191.455 180.36 190.48" stroke="#263238" stroke-linecap="round" stroke-linejoin="round"/>
<path d="M103.33 153.24C106.33 155.74 111.51 153.69 111.51 153.69C111.51 153.69 107.08 153.6 106.17 151.88" stroke="#263238" stroke-linecap="round" stroke-linejoin="round"/>
<path d="M108.82 198C112.55 199.4 116.82 201.18 121.17 203.3L121.91 201.18C118.012 199.096 114.006 197.22 109.91 195.56L108.82 198Z" fill="#999999" stroke="#263238" stroke-linecap="round" stroke-linejoin="round"/>
<path d="M123.22 201.9L122.55 204C125.32 205.41 128.09 207 130.72 208.65V206.32C130.72 206.32 127.81 204.4 123.22 201.9Z" fill="#999999" stroke="#263238" stroke-linecap="round" stroke-linejoin="round"/>
<path d="M107.89 194.78C104.859 193.619 101.76 192.644 98.61 191.86L97.19 194.16C97.19 194.16 101.05 195.16 106.61 197.16L107.89 194.78Z" fill="#999999" stroke="#263238" stroke-linecap="round" stroke-linejoin="round"/>
<g opacity="0.2">
<path opacity="0.2" d="M104.92 203.31C104.92 203.31 101.76 211.66 102.54 216.89C103.32 222.12 106.54 223.71 106.54 223.71C103.15 225.089 99.5069 225.733 95.85 225.6" stroke="white" stroke-linecap="round" stroke-linejoin="round"/>
<path opacity="0.2" d="M110.15 224.62C110.15 224.62 117.21 227.34 122.55 223.71" stroke="white" stroke-linecap="round" stroke-linejoin="round"/>
<path opacity="0.2" d="M107.89 225.61C107.89 225.61 104.35 232.14 98.61 234.61" stroke="white" stroke-linecap="round" stroke-linejoin="round"/>
<path opacity="0.2" d="M136.51 257.12C136.51 257.12 142.65 259.85 146.29 257.12" stroke="white" stroke-linecap="round" stroke-linejoin="round"/>
<path opacity="0.2" d="M138.11 264C138.11 264 145.35 263.4 147.98 258.09" stroke="white" stroke-linecap="round" stroke-linejoin="round"/>
<path opacity="0.2" d="M93.78 257.12C93.78 257.12 99.46 260.83 104.24 257.73" stroke="white" stroke-linecap="round" stroke-linejoin="round"/>
<path opacity="0.2" d="M92.87 210.46C93.2383 211.008 93.7696 211.426 94.3886 211.656C95.0077 211.886 95.6833 211.915 96.32 211.74C97.03 208.413 97.9247 205.128 99 201.9L95.81 199.46C94.6044 202.077 93.6177 204.79 92.86 207.57" stroke="white" stroke-linecap="round" stroke-linejoin="round"/>
<path opacity="0.2" d="M110.15 205.27L118.15 206.27L118.08 214.73C116.75 215.49 115.235 215.862 113.704 215.806C112.174 215.749 110.69 215.266 109.42 214.41V208.6" stroke="white" stroke-linecap="round" stroke-linejoin="round"/>
</g>
<path d="M162.82 192.11C162.82 192.11 162.12 197.17 160.07 199.19" stroke="#263238" stroke-linecap="round" stroke-linejoin="round"/>
<path d="M107.42 186.33C107.42 186.33 124.53 189.13 133.23 184.75" stroke="#263238" stroke-linecap="round" stroke-linejoin="round"/>
<path d="M148 181.43C148 181.43 145.87 174.08 148 171.56" stroke="#263238" stroke-linecap="round" stroke-linejoin="round"/>
<path d="M191.76 212.73C192.083 212.776 192.412 212.698 192.68 212.513C192.949 212.328 193.138 212.048 193.21 211.73H194.1V220.12H192.78V213.72H191.78L191.76 212.73Z" fill="white"/>
<path d="M173.17 233.4C173.503 233.384 173.818 233.24 174.047 232.998C174.276 232.756 174.403 232.434 174.4 232.1L175.28 231.94L176.81 240.19L175.51 240.43L174.34 234.14L173.34 234.32L173.17 233.4Z" fill="white"/>
<path d="M187 225.27C187.334 225.333 187.678 225.263 187.962 225.077C188.245 224.89 188.446 224.601 188.52 224.27L189.4 224.33L188.85 232.7L187.54 232.62L187.96 226.23L186.96 226.16L187 225.27Z" fill="white"/>
<path d="M186.43 240.65C186.763 240.653 187.085 240.528 187.328 240.301C187.572 240.074 187.72 239.763 187.74 239.43L188.63 239.32L189.63 247.66L188.32 247.81L187.57 241.46L186.57 241.58L186.43 240.65Z" fill="white"/>
<path d="M195.41 226.48C195.741 226.426 196.038 226.248 196.242 225.982C196.447 225.717 196.542 225.383 196.51 225.05L197.36 224.8L199.73 232.86L198.46 233.23L196.66 227.09L195.66 227.37L195.41 226.48Z" fill="white"/>
<path d="M206.49 241.64C206.82 241.59 207.118 241.415 207.321 241.15C207.525 240.885 207.617 240.552 207.58 240.22L208.44 239.97L210.81 248.02L209.54 248.39L207.73 242.25L206.73 242.54L206.49 241.64Z" fill="white"/>
<path d="M168.46 218.91C168.785 218.835 169.069 218.64 169.255 218.363C169.441 218.086 169.514 217.749 169.46 217.42L170.29 217.11L173.19 224.99L171.95 225.44L169.74 219.44L168.74 219.8L168.46 218.91Z" fill="white"/>
<path d="M166.05 254C166.383 253.985 166.698 253.84 166.927 253.598C167.156 253.356 167.283 253.034 167.28 252.7L168.16 252.54L169.68 260.8L168.39 261.04L167.22 254.74L166.22 254.92L166.05 254Z" fill="white"/>
<path d="M186.33 251.26C186.653 251.343 186.996 251.3 187.289 251.141C187.582 250.981 187.804 250.716 187.91 250.4L188.79 250.52L187.69 258.84L186.38 258.67L187.22 252.32L186.22 252.18L186.33 251.26Z" fill="white"/>
<path d="M200.65 250.42C200.979 250.37 201.276 250.196 201.481 249.934C201.686 249.672 201.782 249.341 201.75 249.01L202.61 248.76L204.92 256.83L203.65 257.2L201.89 251L200.89 251.28L200.65 250.42Z" fill="white"/>
<path d="M216.59 251.61C216.922 251.642 217.254 251.546 217.518 251.342C217.782 251.137 217.958 250.84 218.01 250.51H218.9L219.13 258.9H217.82L217.64 252.5H216.64L216.59 251.61Z" fill="white"/>
<path d="M178.6 205.44C178.931 205.402 179.234 205.239 179.448 204.984C179.662 204.729 179.77 204.402 179.75 204.07L180.61 203.85L182.61 212L181.33 212.32L179.78 206.1L178.78 206.35L178.6 205.44Z" fill="white"/>
<path d="M203.5 228.18C203.825 228.262 204.168 228.216 204.46 228.052C204.752 227.889 204.97 227.62 205.07 227.3L205.95 227.41L204.95 235.74L203.64 235.59L204.41 229.23L203.41 229.11L203.5 228.18Z" fill="white"/>
<path d="M190.1 200.61C190.432 200.514 190.713 200.292 190.881 199.99C191.05 199.689 191.093 199.333 191 199L191.81 198.63L195.31 206.27L194.11 206.82L191.41 201L190.48 201.43L190.1 200.61Z" fill="#7C53E0"/>
<path d="M178.19 224.05C178.16 223.787 178.183 223.521 178.256 223.267C178.329 223.013 178.452 222.776 178.617 222.57C178.781 222.363 178.985 222.191 179.217 222.063C179.448 221.935 179.702 221.854 179.965 221.825C180.228 221.795 180.494 221.818 180.747 221.891C181.001 221.964 181.238 222.087 181.445 222.252C181.652 222.416 181.824 222.62 181.952 222.852C182.079 223.083 182.16 223.337 182.19 223.6L182.68 227.94C182.71 228.203 182.687 228.468 182.614 228.722C182.541 228.976 182.418 229.213 182.253 229.42C182.088 229.627 181.885 229.799 181.653 229.927C181.422 230.054 181.168 230.135 180.905 230.165C180.642 230.194 180.376 230.172 180.122 230.099C179.869 230.026 179.631 229.903 179.425 229.738C179.218 229.573 179.046 229.369 178.918 229.138C178.791 228.907 178.71 228.653 178.68 228.39L178.19 224.05ZM180 228.32C180.07 228.92 180.36 229.12 180.77 229.07C181.18 229.02 181.43 228.77 181.36 228.17L180.85 223.67C180.78 223.07 180.49 222.87 180.08 222.92C179.67 222.97 179.42 223.22 179.49 223.82L180 228.32Z" fill="white"/>
<path d="M180 240C179.97 239.737 179.993 239.472 180.066 239.218C180.139 238.964 180.262 238.727 180.427 238.52C180.591 238.313 180.795 238.141 181.027 238.013C181.258 237.886 181.512 237.805 181.775 237.775C182.038 237.746 182.304 237.768 182.557 237.841C182.811 237.914 183.048 238.037 183.255 238.202C183.462 238.367 183.634 238.57 183.762 238.802C183.889 239.033 183.97 239.287 184 239.55L184.49 243.88C184.52 244.143 184.498 244.409 184.426 244.663C184.353 244.917 184.231 245.155 184.067 245.362C183.902 245.569 183.699 245.741 183.468 245.87C183.237 245.998 182.983 246.08 182.72 246.11C182.457 246.14 182.191 246.118 181.937 246.046C181.683 245.973 181.445 245.851 181.238 245.687C181.031 245.523 180.859 245.319 180.73 245.088C180.602 244.857 180.52 244.603 180.49 244.34L180 240ZM181.81 244.27C181.88 244.87 182.17 245.06 182.58 245.02C182.99 244.98 183.24 244.71 183.17 244.12L182.66 239.61C182.59 239.02 182.31 238.82 181.89 238.87C181.47 238.92 181.23 239.17 181.3 239.77L181.81 244.27Z" fill="white"/>
<path d="M191.68 253.63C191.658 253.367 191.687 253.103 191.767 252.852C191.847 252.601 191.976 252.368 192.146 252.166C192.315 251.965 192.523 251.799 192.758 251.677C192.992 251.556 193.247 251.482 193.51 251.46C193.773 251.438 194.037 251.467 194.288 251.547C194.539 251.627 194.772 251.756 194.974 251.926C195.175 252.096 195.342 252.304 195.463 252.538C195.584 252.772 195.658 253.027 195.68 253.29L196.06 257.64C196.082 257.903 196.053 258.167 195.973 258.418C195.893 258.67 195.764 258.903 195.594 259.104C195.424 259.306 195.217 259.472 194.982 259.593C194.748 259.714 194.493 259.788 194.23 259.81C193.967 259.832 193.703 259.803 193.452 259.723C193.2 259.643 192.967 259.514 192.766 259.345C192.564 259.175 192.398 258.967 192.277 258.733C192.156 258.498 192.082 258.243 192.06 257.98L191.68 253.63ZM193.38 257.95C193.43 258.55 193.72 258.75 194.13 258.72C194.54 258.69 194.79 258.43 194.74 257.83L194.35 253.32C194.35 252.72 194.02 252.52 193.6 252.55C193.18 252.58 192.94 252.84 192.99 253.44L193.38 257.95Z" fill="white"/>
<path d="M172 208.74C171.917 208.49 171.884 208.227 171.904 207.965C171.923 207.703 171.993 207.447 172.111 207.212C172.229 206.977 172.392 206.768 172.591 206.596C172.79 206.424 173.02 206.293 173.27 206.21C173.519 206.127 173.783 206.094 174.045 206.113C174.307 206.132 174.563 206.203 174.798 206.321C175.033 206.439 175.242 206.602 175.414 206.801C175.586 207 175.717 207.23 175.8 207.48L177.17 211.62C177.253 211.869 177.285 212.133 177.266 212.395C177.247 212.657 177.177 212.913 177.059 213.148C176.941 213.383 176.778 213.592 176.579 213.764C176.38 213.936 176.149 214.067 175.9 214.15C175.65 214.233 175.387 214.265 175.125 214.246C174.863 214.227 174.607 214.157 174.372 214.039C174.137 213.921 173.928 213.758 173.756 213.559C173.584 213.36 173.453 213.129 173.37 212.88L172 208.74ZM174.65 212.55C174.84 213.12 175.16 213.25 175.56 213.12C175.96 212.99 176.14 212.68 175.95 212.12L174.52 207.82C174.33 207.25 174.01 207.12 173.61 207.25C173.21 207.38 173.03 207.68 173.22 208.25L174.65 212.55Z" fill="white"/>
<path d="M196.39 217.08C196.223 216.575 196.263 216.024 196.502 215.549C196.742 215.073 197.16 214.712 197.665 214.545C198.17 214.378 198.721 214.418 199.197 214.658C199.672 214.897 200.033 215.315 200.2 215.82L201.57 219.96C201.737 220.464 201.697 221.014 201.459 221.488C201.221 221.963 200.804 222.323 200.3 222.49C199.796 222.657 199.246 222.617 198.772 222.379C198.297 222.141 197.937 221.724 197.77 221.22L196.39 217.08ZM199.05 220.89C199.24 221.46 199.56 221.59 199.96 221.46C200.36 221.33 200.54 221.02 200.35 220.46L198.92 216.15C198.73 215.58 198.41 215.45 198.01 215.58C197.61 215.71 197.43 216.02 197.62 216.58L199.05 220.89Z" fill="white"/>
<path d="M184.63 214.83C184.655 214.567 184.731 214.312 184.855 214.079C184.978 213.846 185.147 213.639 185.35 213.471C185.553 213.303 185.788 213.177 186.04 213.1C186.292 213.022 186.557 212.995 186.82 213.02C187.083 213.045 187.338 213.121 187.571 213.245C187.804 213.368 188.01 213.537 188.179 213.74C188.347 213.943 188.473 214.178 188.55 214.43C188.628 214.682 188.655 214.947 188.63 215.21L188.23 219.55C188.206 219.813 188.13 220.068 188.007 220.301C187.884 220.535 187.716 220.741 187.513 220.91C187.31 221.079 187.076 221.205 186.824 221.284C186.572 221.362 186.308 221.389 186.045 221.365C185.782 221.341 185.527 221.265 185.294 221.142C185.06 221.019 184.853 220.851 184.685 220.648C184.516 220.445 184.389 220.211 184.311 219.959C184.233 219.707 184.206 219.443 184.23 219.18L184.63 214.83ZM185.53 219.39C185.48 219.98 185.72 220.24 186.14 220.27C186.56 220.3 186.84 220.11 186.9 219.51L187.31 215C187.37 214.4 187.13 214.15 186.71 214.11C186.29 214.07 186.01 214.28 185.95 214.87L185.53 219.39Z" fill="white"/>
<path d="M180.16 199.22C179.954 199.029 179.79 198.797 179.679 198.539C179.569 198.281 179.514 198.002 179.518 197.721C179.522 197.44 179.586 197.163 179.704 196.909C179.822 196.654 179.993 196.427 180.205 196.243C180.417 196.058 180.665 195.921 180.934 195.839C181.203 195.757 181.486 195.732 181.764 195.767C182.043 195.801 182.312 195.894 182.552 196.04C182.793 196.185 183 196.379 183.16 196.61L186 199.93C186.206 200.121 186.37 200.353 186.481 200.611C186.591 200.869 186.646 201.148 186.642 201.429C186.638 201.71 186.574 201.986 186.456 202.241C186.338 202.496 186.167 202.723 185.955 202.907C185.743 203.092 185.495 203.229 185.226 203.311C184.957 203.393 184.674 203.418 184.395 203.383C184.117 203.349 183.848 203.256 183.608 203.11C183.367 202.965 183.16 202.771 183 202.54L180.16 199.22ZM184.06 201.74C184.45 202.2 184.8 202.2 185.12 201.92C185.44 201.64 185.49 201.31 185.12 200.85L182.17 197.41C181.77 196.95 181.43 196.95 181.11 197.23C180.79 197.51 180.74 197.84 181.11 198.3L184.06 201.74Z" fill="white"/>
<path d="M191.5 235.28C191.5 234.75 191.711 234.241 192.086 233.866C192.461 233.491 192.97 233.28 193.5 233.28C194.03 233.28 194.539 233.491 194.914 233.866C195.289 234.241 195.5 234.75 195.5 235.28V239.65C195.5 240.18 195.289 240.689 194.914 241.064C194.539 241.439 194.03 241.65 193.5 241.65C192.97 241.65 192.461 241.439 192.086 241.064C191.711 240.689 191.5 240.18 191.5 239.65V235.28ZM192.81 239.73C192.81 240.33 193.08 240.56 193.5 240.56C193.92 240.56 194.18 240.33 194.18 239.73V235.2C194.18 234.6 193.92 234.37 193.5 234.37C193.08 234.37 192.81 234.6 192.81 235.2V239.73Z" fill="white"/>
<path d="M200.07 240C200.07 239.47 200.281 238.961 200.656 238.586C201.031 238.211 201.54 238 202.07 238C202.6 238 203.109 238.211 203.484 238.586C203.859 238.961 204.07 239.47 204.07 240V244.36C204.07 244.89 203.859 245.399 203.484 245.774C203.109 246.149 202.6 246.36 202.07 246.36C201.54 246.36 201.031 246.149 200.656 245.774C200.281 245.399 200.07 244.89 200.07 244.36V240ZM201.39 244.45C201.39 245.05 201.65 245.28 202.07 245.28C202.49 245.28 202.75 245.05 202.75 244.45V239.92C202.75 239.32 202.49 239.09 202.07 239.09C201.65 239.09 201.39 239.32 201.39 239.92V244.45Z" fill="white"/>
<path d="M209 253.69C209 253.16 209.211 252.651 209.586 252.276C209.961 251.901 210.47 251.69 211 251.69C211.53 251.69 212.039 251.901 212.414 252.276C212.789 252.651 213 253.16 213 253.69V258.06C213 258.59 212.789 259.099 212.414 259.474C212.039 259.849 211.53 260.06 211 260.06C210.47 260.06 209.961 259.849 209.586 259.474C209.211 259.099 209 258.59 209 258.06V253.69ZM210.32 258.14C210.32 258.74 210.59 258.97 211.01 258.97C211.43 258.97 211.69 258.74 211.69 258.14V253.61C211.69 253.01 211.43 252.78 211.01 252.78C210.59 252.78 210.32 253.01 210.32 253.61V258.14Z" fill="white"/>
<path d="M174.84 250.22C174.923 249.97 175.055 249.74 175.228 249.541C175.4 249.343 175.61 249.18 175.845 249.062C176.081 248.945 176.337 248.875 176.6 248.856C176.862 248.838 177.125 248.871 177.375 248.955C177.624 249.038 177.855 249.17 178.054 249.342C178.252 249.515 178.415 249.725 178.533 249.96C178.65 250.196 178.72 250.452 178.738 250.714C178.757 250.977 178.723 251.24 178.64 251.49L177.25 255.63C177.167 255.879 177.035 256.11 176.862 256.309C176.69 256.507 176.48 256.67 176.244 256.787C176.009 256.905 175.753 256.975 175.49 256.993C175.228 257.012 174.964 256.978 174.715 256.895C174.465 256.811 174.235 256.68 174.036 256.507C173.838 256.335 173.675 256.125 173.557 255.889C173.44 255.654 173.37 255.398 173.352 255.135C173.333 254.873 173.367 254.609 173.45 254.36L174.84 250.22ZM174.68 254.86C174.49 255.43 174.68 255.73 175.06 255.86C175.44 255.99 175.78 255.86 175.97 255.29L177.41 250.99C177.6 250.43 177.41 250.13 177.03 249.99C176.65 249.85 176.31 249.99 176.12 250.56L174.68 254.86Z" fill="white"/>
<path d="M92.75 334.1L126.27 426.47H136.13L102.61 334.1H92.75Z" fill="#757575" stroke="#263238" stroke-linecap="round" stroke-linejoin="round"/>
<path d="M109.98 364.48H166.8V358.69H109.98V364.48Z" fill="#757575" stroke="#263238" stroke-linecap="round" stroke-linejoin="round"/>
<path d="M118.2 387.58H175.02V381.79H118.2V387.58Z" fill="#757575" stroke="#263238" stroke-linecap="round" stroke-linejoin="round"/>
<path d="M126.41 410.68H183.23V404.89H126.41V410.68Z" fill="#757575" stroke="#263238" stroke-linecap="round" stroke-linejoin="round"/>
<path d="M150.25 334.1L183.77 426.47H193.63L160.11 334.1H150.25Z" fill="#757575" stroke="#263238" stroke-linecap="round" stroke-linejoin="round"/>
<path d="M89.31 334.1L55.79 426.47H45.93L79.45 334.1H89.31Z" fill="#BFBFBF" stroke="#263238" stroke-linecap="round" stroke-linejoin="round"/>
<path d="M129.57 358.69H72.75V364.48H129.57V358.69Z" fill="#999999" stroke="#263238" stroke-linecap="round" stroke-linejoin="round"/>
<path d="M121.36 381.79H64.54V387.58H121.36V381.79Z" fill="#999999" stroke="#263238" stroke-linecap="round" stroke-linejoin="round"/>
<path d="M113.15 404.89H56.33V410.68H113.15V404.89Z" fill="#999999" stroke="#263238" stroke-linecap="round" stroke-linejoin="round"/>
<path d="M146.81 334.1L113.29 426.47H103.43L136.95 334.1H146.81Z" fill="#BFBFBF" stroke="#263238" stroke-linecap="round" stroke-linejoin="round"/>
<path d="M167.29 329.26H72.62V340.2H167.29V329.26Z" fill="#7C53E0" stroke="#263238" stroke-linecap="round" stroke-linejoin="round"/>
<path d="M174 329.26H65.91V333.1H174V329.26Z" fill="#7C53E0" stroke="#263238" stroke-linecap="round" stroke-linejoin="round"/>
<path d="M22.2 426.47H477.41" stroke="#263238" stroke-linecap="round" stroke-linejoin="round"/>
<defs>
<linearGradient id="paint0_linear" x1="47.204" y1="240.032" x2="450.087" y2="240.032" gradientUnits="userSpaceOnUse">
<stop stop-color="#7353E5"/>
<stop offset="1" stop-color="#CE4EA4"/>
</linearGradient>
<linearGradient id="paint1_linear" x1="46.1756" y1="240.959" x2="445.07" y2="240.959" gradientUnits="userSpaceOnUse">
<stop stop-color="#262364"/>
<stop offset="1" stop-color="#CD4FA5"/>
</linearGradient>
</defs>
</svg>
