<svg width="1428" height="244" viewBox="0 0 1428 244" fill="none" xmlns="http://www.w3.org/2000/svg">
<circle cx="122" cy="122" r="122" fill="black"/>
<path d="M313 116.7C313 107.36 314.876 99.0436 318.629 91.7497C322.471 84.4558 327.921 78.8074 334.979 74.8047C342.037 70.713 350.347 68.6671 359.907 68.6671C368.126 68.6671 375.453 70.2238 381.886 73.337C388.408 76.3613 393.679 80.6754 397.7 86.2792C401.81 91.8831 404.535 98.4209 405.875 105.893H374.515C373.085 102.779 371.03 100.378 368.35 98.6878C365.759 96.9088 362.766 96.0193 359.371 96.0193C354.367 96.0193 350.391 97.8872 347.443 101.623C344.584 105.359 343.154 110.385 343.154 116.7C343.154 123.016 344.584 128.041 347.443 131.777C350.391 135.513 354.367 137.381 359.371 137.381C362.766 137.381 365.759 136.536 368.35 134.846C371.03 133.067 373.085 130.621 374.515 127.508H405.875C404.535 134.979 401.81 141.517 397.7 147.121C393.679 152.725 388.408 157.083 381.886 160.197C375.453 163.221 368.126 164.733 359.907 164.733C350.347 164.733 342.037 162.732 334.979 158.729C327.921 154.637 322.471 148.945 318.629 141.651C314.876 134.357 313 126.04 313 116.7Z" fill="white"/>
<path d="M464.298 164.066L446.473 130.176H446.339V164.066H416.587V69.6011H460.813C468.497 69.6011 475.064 70.9798 480.514 73.7373C485.964 76.4058 490.03 80.0972 492.71 84.8116C495.48 89.437 496.865 94.685 496.865 100.556C496.865 106.871 495.078 112.475 491.504 117.367C488.019 122.26 482.971 125.773 476.36 127.908L496.999 164.066H464.298ZM446.339 110.429H458.133C460.992 110.429 463.136 109.807 464.566 108.561C465.996 107.227 466.71 105.181 466.71 102.424C466.71 99.9331 465.951 97.9762 464.432 96.553C463.002 95.1298 460.903 94.4182 458.133 94.4182H446.339V110.429Z" fill="white"/>
<path d="M552.606 165C543.671 165 535.452 162.91 527.947 158.729C520.531 154.548 514.634 148.767 510.256 141.384C505.878 134.001 503.689 125.684 503.689 116.433C503.689 107.182 505.878 98.8657 510.256 91.4828C514.634 84.1 520.531 78.3627 527.947 74.271C535.452 70.0903 543.671 68 552.606 68C561.541 68 569.716 70.0903 577.131 74.271C584.547 78.3627 590.399 84.1 594.688 91.4828C599.066 98.8657 601.255 107.182 601.255 116.433C601.255 125.684 599.066 134.001 594.688 141.384C590.399 148.767 584.503 154.548 576.997 158.729C569.582 162.91 561.451 165 552.606 165ZM552.606 137.381C558.503 137.381 563.059 135.513 566.276 131.777C569.492 127.952 571.101 122.838 571.101 116.433C571.101 109.94 569.492 104.825 566.276 101.089C563.059 97.2646 558.503 95.3521 552.606 95.3521C546.62 95.3521 542.018 97.2646 538.802 101.089C535.586 104.825 533.977 109.94 533.977 116.433C533.977 122.838 535.586 127.952 538.802 131.777C542.018 135.513 546.62 137.381 552.606 137.381Z" fill="white"/>
<path d="M702.987 164.066H673.235L641.74 116.567V164.066H611.988V69.6011H641.74L673.235 117.901V69.6011H702.987V164.066Z" fill="white"/>
<path d="M762.665 165C753.73 165 745.511 162.91 738.006 158.729C730.59 154.548 724.693 148.767 720.315 141.384C715.937 134.001 713.748 125.684 713.748 116.433C713.748 107.182 715.937 98.8657 720.315 91.4828C724.693 84.1 730.59 78.3627 738.006 74.271C745.511 70.0903 753.73 68 762.665 68C771.6 68 779.775 70.0903 787.19 74.271C794.606 78.3627 800.458 84.1 804.747 91.4828C809.125 98.8657 811.314 107.182 811.314 116.433C811.314 125.684 809.125 134.001 804.747 141.384C800.458 148.767 794.562 154.548 787.056 158.729C779.641 162.91 771.51 165 762.665 165ZM762.665 137.381C768.562 137.381 773.118 135.513 776.335 131.777C779.551 127.952 781.16 122.838 781.16 116.433C781.16 109.94 779.551 104.825 776.335 101.089C773.118 97.2646 768.562 95.3521 762.665 95.3521C756.679 95.3521 752.078 97.2646 748.861 101.089C745.645 104.825 744.036 109.94 744.036 116.433C744.036 122.838 745.645 127.952 748.861 131.777C752.078 135.513 756.679 137.381 762.665 137.381Z" fill="white"/>
<path d="M859.17 165C847.823 165 838.442 162.376 831.026 157.128C823.7 151.791 819.724 144.008 819.099 133.779H850.727C851.174 139.204 853.586 141.917 857.964 141.917C859.572 141.917 860.912 141.562 861.985 140.85C863.146 140.05 863.727 138.849 863.727 137.248C863.727 135.024 862.521 133.245 860.108 131.911C857.696 130.487 853.943 128.886 848.851 127.107C842.775 124.972 837.727 122.882 833.707 120.836C829.775 118.79 826.38 115.811 823.521 111.897C820.662 107.983 819.277 102.957 819.367 96.8198C819.367 90.6823 820.93 85.4787 824.057 81.2091C827.274 76.8505 831.607 73.5594 837.057 71.3356C842.596 69.1119 848.806 68 855.686 68C867.301 68 876.503 70.6685 883.294 76.0055C890.173 81.3425 893.792 88.8588 894.149 98.5543H862.119C862.029 95.8858 861.359 93.9734 860.108 92.8171C858.857 91.6607 857.339 91.0825 855.552 91.0825C854.301 91.0825 853.273 91.5273 852.469 92.4168C851.665 93.2173 851.263 94.3737 851.263 95.8858C851.263 98.0206 852.425 99.7996 854.748 101.223C857.16 102.557 860.957 104.203 866.139 106.16C872.125 108.383 877.039 110.518 880.881 112.564C884.812 114.61 888.208 117.456 891.067 121.103C893.926 124.75 895.355 129.331 895.355 134.846C895.355 140.628 893.926 145.831 891.067 150.457C888.208 154.993 884.053 158.551 878.603 161.131C873.153 163.71 866.675 165 859.17 165Z" fill="white"/>
<path d="M1065.28 69.6011L1043.57 164.066H1006.58L995.591 110.429L984.601 164.066H947.612L925.901 69.6011H957.932L966.509 129.109L979.375 69.6011H1011.81L1024.67 129.109L1033.25 69.6011H1065.28Z" fill="white"/>
<path d="M1122.19 165C1113.25 165 1105.03 162.91 1097.53 158.729C1090.11 154.548 1084.21 148.767 1079.84 141.384C1075.46 134.001 1073.27 125.684 1073.27 116.433C1073.27 107.182 1075.46 98.8657 1079.84 91.4828C1084.21 84.1 1090.11 78.3627 1097.53 74.271C1105.03 70.0903 1113.25 68 1122.19 68C1131.12 68 1139.3 70.0903 1146.71 74.271C1154.13 78.3627 1159.98 84.1 1164.27 91.4828C1168.65 98.8657 1170.84 107.182 1170.84 116.433C1170.84 125.684 1168.65 134.001 1164.27 141.384C1159.98 148.767 1154.08 154.548 1146.58 158.729C1139.16 162.91 1131.03 165 1122.19 165ZM1122.19 137.381C1128.08 137.381 1132.64 135.513 1135.86 131.777C1139.07 127.952 1140.68 122.838 1140.68 116.433C1140.68 109.94 1139.07 104.825 1135.86 101.089C1132.64 97.2646 1128.08 95.3521 1122.19 95.3521C1116.2 95.3521 1111.6 97.2646 1108.38 101.089C1105.17 104.825 1103.56 109.94 1103.56 116.433C1103.56 122.838 1105.17 127.952 1108.38 131.777C1111.6 135.513 1116.2 137.381 1122.19 137.381Z" fill="white"/>
<path d="M1229.28 164.066L1211.45 130.176H1211.32V164.066H1181.57V69.6011H1225.79C1233.48 69.6011 1240.05 70.9798 1245.5 73.7373C1250.95 76.4058 1255.01 80.0972 1257.69 84.8116C1260.46 89.437 1261.85 94.685 1261.85 100.556C1261.85 106.871 1260.06 112.475 1256.49 117.367C1253 122.26 1247.95 125.773 1241.34 127.908L1261.98 164.066H1229.28ZM1211.32 110.429H1223.11C1225.97 110.429 1228.12 109.807 1229.55 108.561C1230.98 107.227 1231.69 105.181 1231.69 102.424C1231.69 99.9331 1230.93 97.9762 1229.41 96.553C1227.98 95.1298 1225.88 94.4182 1223.11 94.4182H1211.32V110.429Z" fill="white"/>
<path d="M1301.1 141.651H1329.78V164.066H1271.35V69.6011H1301.1V141.651Z" fill="white"/>
<path d="M1378.68 69.6011C1388.6 69.6011 1397.27 71.6025 1404.68 75.6052C1412.19 79.608 1417.95 85.1674 1421.97 92.2834C1425.99 99.3994 1428 107.494 1428 116.567C1428 125.551 1425.99 133.645 1421.97 140.85C1417.95 148.055 1412.19 153.748 1404.68 157.928C1397.27 162.02 1388.6 164.066 1378.68 164.066H1339.15V69.6011H1378.68ZM1376 137.648C1382.7 137.648 1388.02 135.824 1391.95 132.177C1395.88 128.53 1397.85 123.327 1397.85 116.567C1397.85 109.807 1395.88 104.603 1391.95 100.956C1388.02 97.309 1382.7 95.4856 1376 95.4856H1368.9V137.648H1376Z" fill="white"/>
<path opacity="0.5" d="M68.5618 211.945C141.013 228.495 194.523 195.395 212.222 176.777C213.777 175.196 222.773 180.093 192.123 205.958C161.472 231.823 142.443 229.544 115.553 231.709C94.0402 233.441 75.2619 219.255 68.5618 211.945Z" fill="url(#paint0_linear)"/>
<path d="M15.334 94.6468C21.4909 58.5672 49.0945 37.8491 62.1268 32C67.3602 37.6952 49.1972 55.5502 37.0373 64.016C27.3093 70.7886 18.5151 87.2584 15.334 94.6468Z" fill="url(#paint1_linear)"/>
<path opacity="0.5" d="M28.3619 142.913C33.476 128.821 44.1307 116.585 48.8188 112.228C95.8459 144.514 148.346 110.812 168.718 89.9248C188.493 85.7198 194.357 105.292 194.817 115.604C183.183 137.082 153.95 146.33 107.713 157.963C70.723 167.27 39.3998 151.808 28.3619 142.913Z" fill="url(#paint2_linear)"/>
<circle cx="121.685" cy="113.119" r="68.2371" fill="#13111A" stroke="black" stroke-width="8.69308"/>
<path opacity="0.77" d="M124.713 49.2285C161.412 49.2285 187.794 77.7662 187.794 113.119C187.794 148.472 161.854 173.806 124.713 177.009C88.0145 177.009 58.3902 148.472 58.3902 113.119C58.3902 77.7662 88.0145 49.2285 124.713 49.2285ZM79.7609 160.144C91.6991 171.644 107.911 177.009 124.713 177.009C141.515 177.009 160.006 166.636 171.944 155.278C182.438 142.358 187.794 129.305 187.794 113.119C187.794 96.9334 179.408 73.0809 169.371 70.0994C169.076 69.8154 168.781 69.5315 168.487 69.2475C168.781 69.9574 168.929 70.5253 169.371 71.0932C170.255 72.371 171.876 72.939 172.908 74.2168C173.792 75.3526 174.529 77.0563 174.824 78.3341C175.119 79.7539 174.971 81.4577 175.414 82.8775C176.003 84.5812 177.182 85.717 177.035 87.7047C174.529 88.4146 175.561 84.0133 173.35 83.8713C172.613 85.5751 173.055 88.5566 173.35 90.4023C173.645 92.816 174.087 93.5259 172.613 95.5136C171.434 97.2173 170.992 98.3531 168.634 98.4951C166.423 98.7791 165.539 99.631 164.655 101.619C163.033 101.903 162.002 102.187 161.854 104.032C161.117 104.458 159.791 105.594 159.054 105.878C158.022 106.162 156.106 104.6 155.075 105.878C153.306 107.866 157.285 112.835 158.022 114.539C159.054 117.094 159.201 120.786 156.696 122.632C155.369 123.625 154.043 124.051 153.601 125.755C153.159 127.317 153.453 128.595 152.716 130.156C151.537 132.428 149.032 133.28 147.116 134.984C144.758 137.255 144.905 140.379 144.905 143.644C144.905 147.052 143.579 149.749 143.136 152.873C142.694 156.138 141.663 159.12 140.926 162.386C140.336 164.799 138.273 168.349 135.178 167.923C135.03 166.787 136.209 165.935 136.357 164.799C136.504 163.805 136.209 162.669 136.357 161.676C136.799 159.546 136.799 158.268 135.325 156.422C134.735 155.713 134.146 155.287 133.556 154.577C132.525 153.299 133.262 153.725 133.409 152.305C133.409 150.601 132.967 151.453 131.788 150.885C131.198 150.601 130.609 149.749 130.166 149.324C129.135 148.33 127.661 147.194 126.924 146.058C126.04 144.78 126.187 142.934 125.303 141.657C124.271 140.095 122.945 140.095 121.618 139.101C119.85 137.823 120.586 136.403 120.292 134.7C119.702 131.718 118.376 128.595 116.46 126.181C114.102 123.199 113.07 120.786 116.018 117.946C117.491 116.526 118.228 116.952 120.144 116.384C121.618 115.959 122.945 114.965 124.418 114.823C125.303 114.681 125.892 114.965 126.629 114.823C127.366 114.681 127.366 114.113 128.103 114.255C129.282 114.255 131.051 116.668 131.935 115.107C132.525 114.255 130.756 111.841 130.903 110.705C131.051 109.286 131.493 107.014 132.967 106.162C133.556 106.02 134.735 106.02 135.325 105.736C136.062 105.452 136.946 105.026 137.536 104.6C138.42 104.032 140.189 103.038 140.631 102.045C141.81 102.045 142.547 101.335 143.726 101.477C144.758 101.477 145.495 101.903 146.526 101.761C147.558 101.619 148.59 100.909 149.621 101.051C150.358 101.193 151.39 102.045 151.979 102.329C153.601 103.18 155.222 103.89 156.991 104.174C159.791 104.6 160.233 103.606 160.086 101.193L160.528 100.341C159.496 97.6432 161.412 97.3593 163.328 96.7914C163.623 94.8037 161.117 93.5259 162.149 91.3962C164.212 91.2542 166.571 96.9334 168.339 94.5197C169.518 92.958 167.75 88.4146 166.718 86.9949C165.686 85.5751 161.854 83.1614 160.086 82.8775C158.759 82.7355 157.433 83.3034 156.991 84.4392C156.401 85.717 157.138 86.8529 156.991 88.4146C155.222 87.9887 155.664 85.859 155.811 84.7232C155.959 82.7355 154.927 82.8775 153.895 81.5997C153.011 80.3218 152.864 78.9021 151.685 77.6243C150.8 76.6304 149.769 75.6366 148.737 74.7847C147.558 73.7908 146.379 73.9328 145.2 73.0809C143.431 71.9451 145.789 69.8154 143.136 69.9574C142.252 69.9574 142.694 70.5253 141.368 70.2414C140.778 70.0994 139.894 69.6734 139.304 69.3895C136.799 68.3956 138.567 68.1117 139.747 66.8339C141.22 65.2721 139.157 65.5561 137.683 65.2721C136.651 65.1301 136.799 64.7042 135.914 65.4141C135.03 65.982 135.62 66.6919 134.293 66.6919C131.935 66.5499 133.556 64.2783 134.146 63.5684C135.03 62.2906 135.325 61.4387 137.241 61.2967C137.094 60.7288 137.094 60.0189 137.241 59.451C138.862 59.593 139.157 58.5991 140.336 58.0312C142.399 57.3213 142.105 58.8831 142.842 60.0189C143.726 61.1547 145.347 61.0127 145.937 62.2906C146.526 63.7103 145.937 64.8462 148.295 64.4202C148 63.5684 148.147 62.4325 148.147 61.5807C148.884 61.4387 149.474 61.2967 150.063 61.1547C150.063 58.8831 147.411 58.5991 145.642 58.4571C143.579 58.1732 142.989 56.1855 141.22 55.9015C139.599 55.6176 138.273 58.1732 136.209 56.7534C135.03 55.9015 135.62 55.3336 136.062 54.4817C136.209 54.1978 136.799 53.7718 136.946 53.4879C135.325 53.2039 133.704 52.92 132.082 52.778C131.788 53.6299 131.051 54.6237 130.756 55.3336C130.461 55.7595 130.019 56.0435 129.724 56.6114C129.43 57.1793 130.019 57.8892 129.282 58.1732C128.103 58.7411 125.008 55.0496 124.124 54.4817C123.092 53.7718 122.502 53.3459 122.797 52.494C117.639 52.636 112.48 53.3459 107.617 54.7657C107.174 55.1916 106.88 55.7595 106.438 56.1855C105.553 57.3213 104.964 58.3152 103.49 58.8831C102.606 59.025 99.6579 59.025 100.837 61.0127C101.869 62.8585 103.195 60.4448 103.785 59.8769C104.522 59.025 106.88 58.1732 106.732 60.0189C106.585 62.7165 100.247 62.2906 101.574 65.2721C100.837 65.698 99.3631 66.4079 99.5105 67.5438C99.8052 68.8216 101.574 67.9697 101.574 69.6734C101.574 72.0871 98.7735 74.0748 96.268 73.2229C93.6151 72.371 95.6785 68.6796 92.5834 68.3956C91.4043 68.2537 90.6674 68.5376 89.6357 69.3895C88.7514 70.0994 88.1619 71.6611 86.9828 71.5192C86.8354 70.8093 87.4249 70.2414 87.5723 69.5315C86.688 69.8154 84.772 70.9513 84.1825 71.6611C83.2982 72.797 83.4455 74.6427 81.3822 73.0809C81.6769 72.797 81.8243 72.371 81.9717 72.0871C79.4662 72.0871 77.6976 73.0809 76.5185 75.2106C74.013 80.0379 80.0557 76.2045 80.3505 78.6181C81.8243 78.1922 82.5612 77.0563 83.7403 76.3464C84.3298 76.0625 85.5089 76.2045 85.9511 75.9205C86.5406 75.4946 86.3932 74.6427 86.9828 74.2168C89.1936 72.513 94.352 75.3526 96.4154 76.4884C97.0049 76.7724 97.5945 76.7724 97.8892 77.3403C98.4788 78.3341 97.5945 78.6181 97.8892 79.47C98.184 80.7478 99.9526 81.4577 100.542 82.4515C101.869 85.0071 99.2157 88.6986 99.5105 91.5382C99.6579 93.0999 101.426 94.8037 100.837 96.0815C100.542 96.6494 99.5105 97.0753 99.2157 97.7852C98.9209 98.3531 98.7736 99.205 98.184 99.7729C96.7102 101.761 94.4994 104.032 92.7308 106.02C91.6991 107.156 90.3726 107.44 88.8988 107.156C87.7197 106.872 85.8037 106.446 84.6246 106.02C83.1508 105.31 82.856 104.316 81.2348 105.026C79.9083 105.594 78.8766 107.156 77.2554 105.878C76.0763 107.014 77.4028 109.144 77.6975 110.421C77.9923 112.125 77.4028 113.545 76.3711 114.965C75.0446 116.668 74.7498 116.952 75.0446 119.224C75.192 120.928 75.7815 122.632 76.0763 124.335C76.5185 126.039 77.5502 127.317 77.5502 129.021C77.5502 130.724 76.8132 132.002 76.9606 133.706C77.108 135.268 77.2554 137.113 77.6975 138.675C78.1397 140.237 79.3188 141.657 79.7609 143.218C80.2031 144.78 80.0557 146.768 79.024 147.904C77.8449 149.182 76.8132 148.472 75.3394 147.478C72.6865 145.49 71.5074 142.225 69.7388 139.669C67.9702 136.971 66.0542 134.558 64.8751 131.86C64.5803 131.292 64.2855 130.724 63.9908 130.156C66.9385 139.669 72.0969 152.761 79.7609 160.144Z" fill="url(#paint3_linear)"/>
<path d="M13.5803 110.891C16.3508 87.6888 41.573 68.4689 53.8378 61.7593C56.7958 59.9556 63.7074 59.2919 67.6898 71.0662C71.6723 82.8404 63.0003 94.1529 58.1666 98.3374C18.515 126.561 18.1254 157.858 22.887 169.979C18.6304 159.95 10.8098 134.093 13.5803 110.891Z" fill="url(#paint4_linear)"/>
<path opacity="0.5" d="M64.726 201.654C59.2811 192.534 64.4992 178.343 67.7888 172.387C130.405 188.212 164.777 157.925 176.687 151.629C186.216 146.592 198.694 137.052 203.742 132.912C218.375 130.36 214.632 157.074 212.93 160.307C211.229 163.539 190.98 189.063 142.486 201.654C103.691 211.727 74.4815 205.851 64.726 201.654Z" fill="url(#paint5_linear)"/>
<path d="M31.9779 146.82C43.0596 121.886 62.5679 110.314 70.9368 107.645C87.819 109.809 90.6326 130.154 90.4162 136.647C90.243 141.842 78.8007 152.087 73.1011 156.56C42.4534 186.861 61.3413 212.473 74.6162 221.491C67.3438 218.201 52.2508 206.557 45.6134 201.146C36.4508 193.426 20.8961 171.754 31.9779 146.82Z" fill="url(#paint6_linear)"/>
<path d="M72.0822 209.673C61.3232 182.975 85.0329 162.852 98.2326 156.127C115 160.309 120.74 178.093 121.514 186.463C110.08 194.903 108.242 203.932 108.752 207.392C108.072 212.043 111.577 221.855 131.042 223.897C150.508 225.939 167.588 215.265 173.695 209.673L194.366 203.198C168.465 236.322 85.531 243.046 72.0822 209.673Z" fill="url(#paint7_linear)"/>
<defs>
<linearGradient id="paint0_linear" x1="68.9385" y1="204.044" x2="216.484" y2="204.044" gradientUnits="userSpaceOnUse">
<stop stop-color="#7353E5"/>
<stop offset="1" stop-color="#CE4EA4"/>
</linearGradient>
<linearGradient id="paint1_linear" x1="15.457" y1="63.1668" x2="63.6511" y2="63.1668" gradientUnits="userSpaceOnUse">
<stop stop-color="#7353E5"/>
<stop offset="1" stop-color="#CE4EA4"/>
</linearGradient>
<linearGradient id="paint2_linear" x1="28.791" y1="124.914" x2="196.911" y2="124.914" gradientUnits="userSpaceOnUse">
<stop stop-color="#7353E5"/>
<stop offset="1" stop-color="#CE4EA4"/>
</linearGradient>
<linearGradient id="paint3_linear" x1="190.694" y1="112.799" x2="56.7217" y2="112.799" gradientUnits="userSpaceOnUse">
<stop stop-color="#7353E5"/>
<stop offset="1" stop-color="#CE4EA4"/>
</linearGradient>
<linearGradient id="paint4_linear" x1="13.1436" y1="115.09" x2="69.4074" y2="115.09" gradientUnits="userSpaceOnUse">
<stop stop-color="#7353E5"/>
<stop offset="1" stop-color="#CE4EA4"/>
</linearGradient>
<linearGradient id="paint5_linear" x1="62.7537" y1="169.792" x2="216.561" y2="169.792" gradientUnits="userSpaceOnUse">
<stop stop-color="#7353E5"/>
<stop offset="1" stop-color="#CE4EA4"/>
</linearGradient>
<linearGradient id="paint6_linear" x1="28.3042" y1="164.283" x2="91.2107" y2="164.283" gradientUnits="userSpaceOnUse">
<stop stop-color="#7353E5"/>
<stop offset="1" stop-color="#CE4EA4"/>
</linearGradient>
<linearGradient id="paint7_linear" x1="69.6816" y1="193.683" x2="195.939" y2="193.683" gradientUnits="userSpaceOnUse">
<stop stop-color="#7353E5"/>
<stop offset="1" stop-color="#CE4EA4"/>
</linearGradient>
</defs>
</svg>
