<svg width="500" height="500" viewBox="0 0 500 500" fill="none" xmlns="http://www.w3.org/2000/svg">
<path d="M470.971 240.303L470.971 240.304C476.823 268.595 480.951 298.59 479.503 322.91C475.552 389.087 418.237 442.5 349 442.5C324.085 442.5 303.279 440.852 285.014 439.406C277.662 438.824 270.721 438.274 264.09 437.878C241.035 436.499 221.764 436.98 202.449 444.605C183.469 452.097 160.455 460.245 135.022 459.875C109.654 459.506 81.7581 450.656 53.0221 423.902C24.4413 397.292 17.5281 364.797 20.6174 334.276C23.712 303.701 36.849 275.171 48.2739 256.792C58.3193 240.632 70.8288 217.07 84.1186 192.038C86.0884 188.328 88.0755 184.585 90.0742 180.83C105.58 151.694 121.798 121.757 136.252 99.8254C150.617 78.0302 171.863 57.8011 201.699 48.431C231.522 39.0652 270.14 40.4814 319.391 62.3706C327.28 65.8896 334.741 69.3908 341.774 72.8741L341.775 72.8743C374.618 89.128 403.324 112.655 425.711 141.666C448.097 170.678 463.576 204.411 470.971 240.303Z" stroke="url(#paint0_linear)" stroke-width="3"/>
<path d="M355.83 256.8C350.199 236.929 338.69 219.225 322.813 206.014C306.937 192.803 287.436 184.703 266.872 182.778C246.309 180.853 225.643 185.192 207.59 195.226C189.538 205.26 174.942 220.519 165.72 239" stroke="#263238" stroke-linecap="round" stroke-linejoin="round"/>
<path d="M359.65 282.55C359.55 277.722 359.112 272.907 358.34 268.14" stroke="#263238" stroke-linecap="round" stroke-linejoin="round"/>
<path d="M170.37 338.64C181.599 356.693 198.17 370.802 217.784 379.007C237.397 387.212 259.078 389.107 279.817 384.427C300.556 379.748 319.324 368.727 333.513 352.895C347.703 337.063 356.611 317.206 359 296.08" stroke="#263238" stroke-linecap="round" stroke-linejoin="round"/>
<path d="M163.88 326.43C164.88 328.64 165.94 330.82 167.08 332.95" stroke="#263238" stroke-linecap="round" stroke-linejoin="round"/>
<path d="M162 247.38C153.045 270.364 152.658 295.804 160.91 319.05" stroke="#263238" stroke-linecap="round" stroke-linejoin="round"/>
<path d="M328 305.38C328.989 301.998 329.735 298.549 330.23 295.06L325.36 294.55C325.032 294.516 324.713 294.417 324.423 294.26C324.133 294.103 323.876 293.89 323.668 293.634C323.46 293.378 323.305 293.083 323.211 292.767C323.117 292.45 323.086 292.118 323.12 291.79C323.154 291.462 323.253 291.143 323.41 290.853C323.567 290.563 323.78 290.306 324.036 290.098C324.292 289.89 324.587 289.735 324.904 289.641C325.22 289.547 325.552 289.516 325.88 289.55L330.75 290.06C330.88 288.27 330.97 286.46 330.97 284.64C330.971 277.797 330.015 270.988 328.13 264.41L323.13 266.03C322.881 266.108 322.621 266.148 322.36 266.15C321.764 266.151 321.187 265.939 320.733 265.552C320.279 265.165 319.979 264.629 319.886 264.04C319.793 263.451 319.914 262.848 320.226 262.34C320.539 261.832 321.022 261.453 321.59 261.27L326.59 259.64C323.62 251.446 319.219 243.844 313.59 237.19L309.46 240.91C309.001 241.322 308.407 241.55 307.79 241.55C307.44 241.553 307.092 241.482 306.772 241.34C306.451 241.199 306.164 240.991 305.93 240.73C305.486 240.238 305.255 239.59 305.289 238.928C305.323 238.266 305.618 237.644 306.11 237.2L310.24 233.48C304.17 227.184 297.029 222.017 289.15 218.22L286.8 223.51C286.602 223.951 286.28 224.325 285.873 224.588C285.467 224.851 284.994 224.99 284.51 224.99C284.165 224.989 283.824 224.914 283.51 224.77C283.21 224.637 282.939 224.446 282.713 224.208C282.487 223.97 282.309 223.69 282.191 223.383C282.074 223.077 282.017 222.75 282.025 222.422C282.034 222.093 282.107 221.77 282.24 221.47L284.58 216.22C276.464 212.98 267.836 211.212 259.1 211V216.81C259.1 217.473 258.837 218.109 258.368 218.578C257.899 219.047 257.263 219.31 256.6 219.31C255.937 219.31 255.301 219.047 254.832 218.578C254.363 218.109 254.1 217.473 254.1 216.81V211.04C245.347 211.409 236.731 213.342 228.66 216.75L231 222C231.133 222.3 231.206 222.623 231.215 222.952C231.223 223.28 231.167 223.607 231.049 223.913C230.931 224.22 230.753 224.5 230.527 224.738C230.301 224.976 230.03 225.167 229.73 225.3C229.416 225.444 229.075 225.519 228.73 225.52C228.246 225.52 227.773 225.381 227.367 225.118C226.96 224.855 226.639 224.481 226.44 224.04L224.14 218.87C216.347 222.815 209.314 228.11 203.37 234.51L207.45 238.18C207.826 238.518 208.091 238.962 208.21 239.454C208.328 239.946 208.295 240.462 208.114 240.934C207.933 241.407 207.613 241.813 207.197 242.1C206.78 242.386 206.286 242.54 205.78 242.54C205.162 242.54 204.566 242.308 204.11 241.89L200.11 238.28C194.625 245.055 190.383 252.747 187.58 261L192.5 262.59C193.068 262.773 193.551 263.152 193.864 263.66C194.177 264.168 194.297 264.771 194.204 265.36C194.111 265.949 193.811 266.485 193.357 266.872C192.903 267.259 192.326 267.471 191.73 267.47C191.465 267.469 191.203 267.429 190.95 267.35L186.13 265.78C184.495 271.95 183.668 278.307 183.67 284.69C183.67 286.96 183.79 289.2 183.99 291.42L188.76 290.92C189.423 290.851 190.086 291.048 190.604 291.468C191.122 291.888 191.451 292.497 191.52 293.16C191.589 293.823 191.392 294.486 190.972 295.004C190.552 295.522 189.943 295.851 189.28 295.92L184.6 296.42C185.962 304.888 188.805 313.049 193 320.53L196.87 318.3C197.444 317.974 198.124 317.888 198.761 318.061C199.398 318.234 199.941 318.652 200.271 319.223C200.601 319.795 200.691 320.474 200.523 321.112C200.354 321.751 199.94 322.296 199.37 322.63L195.59 324.81C200.254 331.976 206.124 338.279 212.94 343.44L215.41 340.04C215.828 339.594 216.395 339.317 217.004 339.261C217.613 339.205 218.221 339.374 218.714 339.736C219.206 340.098 219.549 340.628 219.678 341.226C219.806 341.824 219.711 342.448 219.41 342.98L217 346.32C224.134 350.981 232.025 354.365 240.32 356.32L241.17 352.32C241.335 351.704 241.728 351.175 242.27 350.839C242.812 350.504 243.462 350.388 244.086 350.516C244.711 350.644 245.263 351.005 245.63 351.526C245.997 352.047 246.15 352.689 246.06 353.32L245.22 357.26C253.622 358.661 262.203 358.589 270.58 357.05L269.73 353.05C269.642 352.721 269.622 352.377 269.672 352.04C269.722 351.703 269.84 351.379 270.019 351.09C270.199 350.8 270.435 350.55 270.715 350.355C270.994 350.16 271.311 350.024 271.644 349.955C271.978 349.887 272.323 349.888 272.656 349.958C272.99 350.027 273.306 350.164 273.584 350.36C273.863 350.557 274.099 350.808 274.277 351.098C274.455 351.389 274.572 351.713 274.62 352.05L275.47 356.05C283.744 353.95 291.588 350.424 298.65 345.63L296.14 342.18C295.898 341.922 295.714 341.616 295.599 341.282C295.484 340.947 295.441 340.592 295.474 340.24C295.506 339.888 295.613 339.547 295.787 339.24C295.961 338.932 296.198 338.664 296.483 338.455C296.767 338.246 297.093 338.099 297.439 338.025C297.785 337.951 298.142 337.951 298.488 338.025C298.833 338.099 299.159 338.246 299.444 338.455C299.729 338.665 299.966 338.932 300.14 339.24L302.63 342.67C309.374 337.39 315.153 330.982 319.71 323.73L315.78 321.46C315.493 321.297 315.242 321.079 315.04 320.818C314.838 320.558 314.689 320.26 314.603 319.942C314.517 319.624 314.494 319.291 314.537 318.964C314.579 318.638 314.686 318.322 314.851 318.037C315.015 317.751 315.235 317.501 315.497 317.301C315.759 317.101 316.058 316.954 316.377 316.87C316.695 316.785 317.028 316.765 317.354 316.81C317.681 316.854 317.996 316.963 318.28 317.13L322.28 319.41C323.899 316.385 325.306 313.251 326.49 310.03" stroke="#263238" stroke-linecap="round" stroke-linejoin="round"/>
<path d="M214.57 260.73C208.387 271.761 206.707 284.755 209.882 296.995C213.058 309.235 220.842 319.774 231.608 326.408C242.374 333.041 255.288 335.256 267.649 332.588C280.01 329.92 290.861 322.577 297.933 312.094C305.005 301.611 307.751 288.8 305.595 276.34C303.44 263.879 296.551 252.734 286.369 245.236C276.187 237.737 263.5 234.465 250.961 236.104C238.422 237.743 227.003 244.166 219.09 254.03" stroke="#263238" stroke-linecap="round" stroke-linejoin="round"/>
<path d="M204.21 116.91C208.638 104.38 217.354 93.8184 228.816 87.0924C240.278 80.3663 253.748 77.9086 266.847 80.1535C279.946 82.3985 291.829 89.2016 300.398 99.3605C308.966 109.519 313.667 122.38 313.67 135.67V162.87" stroke="#263238" stroke-linecap="round" stroke-linejoin="round"/>
<path d="M331.67 203.1V135.67C331.784 125.836 329.946 116.076 326.261 106.958C322.577 97.8388 317.119 89.5418 310.205 82.5472C303.291 75.5526 295.058 69.9994 285.983 66.2093C276.907 62.4193 267.17 60.4678 257.335 60.4678C247.5 60.4678 237.763 62.4193 228.687 66.2093C219.612 69.9994 211.379 75.5526 204.465 82.5472C197.551 89.5418 192.093 97.8388 188.409 106.958C184.724 116.076 182.886 125.836 183 135.67V214.34C188.401 208.63 194.441 203.561 201 199.23V135.67C201.002 131.635 201.438 127.612 202.3 123.67" stroke="#263238" stroke-linecap="round" stroke-linejoin="round"/>
<path d="M313.67 172.8V199.23C320.229 203.56 326.269 208.63 331.67 214.34V207.28" stroke="#263238" stroke-linecap="round" stroke-linejoin="round"/>
<path d="M326.67 440.33H188C184.376 440.33 180.901 438.891 178.337 436.33C175.774 433.768 174.333 430.294 174.33 426.67C174.33 423.045 175.77 419.567 178.334 417.004C180.897 414.44 184.375 413 188 413H326.67C330.294 413.003 333.768 414.444 336.33 417.007C338.891 419.571 340.33 423.046 340.33 426.67C340.327 430.292 338.887 433.765 336.326 436.326C333.765 438.887 330.292 440.327 326.67 440.33Z" fill="#263238" stroke="#263238" stroke-linecap="round" stroke-linejoin="round"/>
<path d="M192.85 425.17L191.57 417.05H196L194.72 425.17L202.06 421.48L203.44 425.67L195.36 427L201.12 432.76L197.58 435.37L193.79 428.09L190 435.41L186.45 432.8L192.21 427.04L184.14 425.67L185.52 421.48L192.85 425.17Z" fill="#7C53E0"/>
<path d="M224.73 425.17L223.45 417.05H227.88L226.6 425.17L233.94 421.48L235.32 425.67L227.24 427L233 432.8L229.46 435.41L225.67 428.13L221.88 435.41L218.33 432.8L224.09 427.04L216 425.67L217.37 421.48L224.73 425.17Z" fill="#7C53E0"/>
<path d="M256.61 425.17L255.33 417.05H259.76L258.48 425.17L265.82 421.48L267.2 425.67L259.12 427L264.88 432.76L261.34 435.37L257.55 428.09L253.75 435.37L250.21 432.76L256 427L247.92 425.63L249.3 421.44L256.61 425.17Z" fill="#7C53E0"/>
<path d="M288.49 425.17L287.21 417.05H291.64L290.36 425.17L297.7 421.48L299.08 425.67L291 427L296.76 432.76L293.22 435.37L289.42 428.09L285.63 435.37L282.09 432.76L287.85 427L279.77 425.63L281.15 421.44L288.49 425.17Z" fill="#7C53E0"/>
<path d="M320.37 425.17L319.09 417.05H323.52L322.24 425.17L329.58 421.48L330.95 425.67L322.88 427L328.64 432.76L325.09 435.37L321.3 428.09L317.51 435.37L314 432.8L319.76 427.04L311.68 425.67L313.06 421.48L320.37 425.17Z" fill="#7C53E0"/>
<path d="M417.94 393.22H381.5" stroke="#263238" stroke-linecap="round" stroke-linejoin="round"/>
<path d="M426.62 325V347.9C426.617 349.094 426.85 350.277 427.305 351.381C427.761 352.485 428.429 353.488 429.272 354.333C430.116 355.179 431.118 355.849 432.221 356.307C433.324 356.764 434.506 357 435.7 357H438C439.17 357 440.328 357.231 441.408 357.678C442.489 358.126 443.47 358.783 444.297 359.61C445.123 360.438 445.779 361.42 446.225 362.501C446.672 363.582 446.901 364.74 446.9 365.91V382.68C446.9 385.478 445.789 388.161 443.81 390.14C441.831 392.118 439.148 393.23 436.35 393.23H423.22" stroke="#263238" stroke-linecap="round" stroke-linejoin="round"/>
<path d="M426.26 339.93H429.73C432.382 339.93 434.926 338.876 436.801 337.001C438.676 335.126 439.73 332.582 439.73 329.93V323.93" stroke="#263238" stroke-linecap="round" stroke-linejoin="round"/>
<path d="M406.37 324.66V331.76H410.26C413.091 331.763 415.805 332.889 417.805 334.892C419.806 336.894 420.93 339.609 420.93 342.44V343.84H425.93" stroke="#263238" stroke-linecap="round" stroke-linejoin="round"/>
<path d="M392.14 331.76H383.98" stroke="#263238" stroke-linecap="round" stroke-linejoin="round"/>
<path d="M406.37 331.76H397.42" stroke="#263238" stroke-linecap="round" stroke-linejoin="round"/>
<path d="M435.14 393.58V414.33" stroke="#263238" stroke-linecap="round" stroke-linejoin="round"/>
<path d="M447.58 374.04H458.59" stroke="#263238" stroke-linecap="round" stroke-linejoin="round"/>
<path d="M453.61 374.04V366.22H459.3" stroke="#263238" stroke-linecap="round" stroke-linejoin="round"/>
<path d="M454.89 342.42H460.01" stroke="#263238" stroke-linecap="round" stroke-linejoin="round"/>
<path d="M442.96 359.23V342.42H449.62" stroke="#263238" stroke-linecap="round" stroke-linejoin="round"/>
<path d="M382.92 404.94L393.22 397.48H416.31C418.289 397.48 420.186 398.266 421.585 399.665C422.984 401.064 423.77 402.961 423.77 404.94V413.73" stroke="#263238" stroke-linecap="round" stroke-linejoin="round"/>
<path d="M454.91 389.79V413.12" stroke="#263238" stroke-linecap="round" stroke-linejoin="round"/>
<path d="M430.85 382.67H446.87H454.91V384.51" stroke="#263238" stroke-linecap="round" stroke-linejoin="round"/>
<path d="M381.03 382.67H426.16" stroke="#263238" stroke-linecap="round" stroke-linejoin="round"/>
<path d="M439.16 382.85L437.64 379.37C436.831 377.524 435.502 375.953 433.815 374.85C432.128 373.747 430.156 373.16 428.14 373.16H387.09V392.54" stroke="#263238" stroke-linecap="round" stroke-linejoin="round"/>
<path d="M460.36 401.01H422.81" stroke="#263238" stroke-linecap="round" stroke-linejoin="round"/>
<path d="M438.56 365.89C438.562 365.17 438.35 364.465 437.951 363.865C437.553 363.265 436.985 362.797 436.32 362.52C435.655 362.243 434.923 362.169 434.216 362.309C433.509 362.448 432.86 362.794 432.35 363.303C431.84 363.811 431.492 364.46 431.351 365.166C431.209 365.873 431.281 366.605 431.556 367.271C431.831 367.936 432.298 368.505 432.897 368.906C433.496 369.306 434.2 369.52 434.92 369.52C435.398 369.521 435.871 369.428 436.312 369.247C436.754 369.065 437.155 368.798 437.493 368.46C437.831 368.123 438.1 367.723 438.283 367.281C438.466 366.84 438.56 366.368 438.56 365.89V365.89Z" stroke="#263238" stroke-linecap="round" stroke-linejoin="round"/>
<path d="M414.95 404.04H392.54V410.7H414.95V404.04Z" stroke="#263238" stroke-linecap="round" stroke-linejoin="round"/>
<path d="M406.77 339.28C402.064 339.275 397.549 341.138 394.217 344.461C390.884 347.784 389.008 352.294 389 357C389 366.8 406.75 388.87 406.75 388.87C406.75 388.87 424.5 366.8 424.5 357C424.492 352.301 422.621 347.797 419.298 344.475C415.974 341.154 411.469 339.285 406.77 339.28ZM406.77 363.19C405.552 363.19 404.361 362.829 403.348 362.152C402.335 361.475 401.545 360.513 401.079 359.387C400.613 358.262 400.491 357.023 400.728 355.828C400.966 354.633 401.553 353.536 402.414 352.674C403.276 351.813 404.373 351.226 405.568 350.988C406.763 350.751 408.002 350.873 409.127 351.339C410.253 351.805 411.215 352.595 411.892 353.608C412.569 354.621 412.93 355.812 412.93 357.03C412.93 358.664 412.281 360.231 411.126 361.386C409.971 362.541 408.404 363.19 406.77 363.19Z" fill="#263238" stroke="#263238" stroke-linecap="round" stroke-linejoin="round"/>
<path d="M403.14 336.86C398.432 336.86 393.918 338.73 390.589 342.059C387.26 345.388 385.39 349.902 385.39 354.61C385.39 364.41 403.14 386.48 403.14 386.48C403.14 386.48 420.88 364.41 420.88 354.61C420.88 349.904 419.011 345.391 415.685 342.062C412.358 338.734 407.846 336.863 403.14 336.86ZM403.14 360.76C401.921 360.76 400.73 360.398 399.717 359.721C398.703 359.044 397.914 358.081 397.448 356.955C396.982 355.829 396.861 354.59 397.099 353.394C397.338 352.199 397.925 351.102 398.788 350.241C399.65 349.379 400.749 348.794 401.944 348.557C403.14 348.32 404.379 348.444 405.504 348.912C406.63 349.379 407.591 350.171 408.267 351.185C408.942 352.199 409.302 353.391 409.3 354.61C409.3 355.418 409.141 356.219 408.831 356.966C408.521 357.713 408.067 358.391 407.495 358.962C406.923 359.533 406.244 359.986 405.497 360.295C404.749 360.603 403.948 360.761 403.14 360.76Z" fill="#7C53E0" stroke="#263238" stroke-linecap="round" stroke-linejoin="round"/>
<path d="M464.65 299L475.94 247.24H448.65L464.65 299Z" fill="#263238" stroke="#263238" stroke-linecap="round" stroke-linejoin="round"/>
<path d="M466.45 203.1H400.1V275.57H466.45V203.1Z" fill="white" stroke="#263238" stroke-linecap="round" stroke-linejoin="round"/>
<path d="M461.35 198.76H395V271.23H461.35V198.76Z" fill="white" stroke="#263238" stroke-linecap="round" stroke-linejoin="round"/>
<path d="M416.65 207.13H399.71V225.59H416.65V207.13Z" fill="white" stroke="#263238" stroke-linecap="round" stroke-linejoin="round"/>
<path d="M436.71 207.71H454.29" stroke="#263238" stroke-linecap="round" stroke-linejoin="round"/>
<path d="M422.76 207.71H432.61" stroke="#263238" stroke-linecap="round" stroke-linejoin="round"/>
<path d="M447.86 214.29H454.29" stroke="#263238" stroke-linecap="round" stroke-linejoin="round"/>
<path d="M422.76 214.29H444.34" stroke="#263238" stroke-linecap="round" stroke-linejoin="round"/>
<path d="M436.13 220.88H454.29" stroke="#263238" stroke-linecap="round" stroke-linejoin="round"/>
<path d="M422.76 220.88H430.85" stroke="#263238" stroke-linecap="round" stroke-linejoin="round"/>
<path d="M440.82 227.47H454.29" stroke="#263238" stroke-linecap="round" stroke-linejoin="round"/>
<path d="M422.76 227.47H434.37" stroke="#263238" stroke-linecap="round" stroke-linejoin="round"/>
<path d="M447.86 234.06H454.29" stroke="#263238" stroke-linecap="round" stroke-linejoin="round"/>
<path d="M430.26 234.06H441.4" stroke="#263238" stroke-linecap="round" stroke-linejoin="round"/>
<path d="M422.76 234.06H427.4" stroke="#263238" stroke-linecap="round" stroke-linejoin="round"/>
<path d="M408.29 218.3C410.659 218.3 412.58 216.379 412.58 214.01C412.58 211.64 410.659 209.72 408.29 209.72C405.921 209.72 404 211.64 404 214.01C404 216.379 405.921 218.3 408.29 218.3Z" fill="#263238" stroke="#263238" stroke-linecap="round" stroke-linejoin="round"/>
<path d="M414.43 221.69C414.049 221.023 413.5 220.468 412.836 220.081C412.172 219.695 411.418 219.491 410.65 219.49H406.25C405.554 219.492 404.87 219.66 404.252 219.98C403.635 220.3 403.103 220.763 402.7 221.33L399.7 225.59H416.64L414.43 221.69Z" fill="#263238" stroke="#263238" stroke-linecap="round" stroke-linejoin="round"/>
<path d="M385.59 235.94L396.41 299H464.65L458.06 241.59H419.47L414.29 235.47L385.59 235.94Z" fill="#7C53E0" stroke="#263238" stroke-linecap="round" stroke-linejoin="round"/>
<path d="M429.24 262.29C429.095 260.764 428.393 259.345 427.267 258.304C426.142 257.264 424.672 256.675 423.14 256.65C422.416 256.638 421.698 256.779 421.033 257.064C420.367 257.35 419.77 257.772 419.28 258.305C418.789 258.838 418.417 259.468 418.188 260.155C417.959 260.842 417.878 261.569 417.95 262.29C418.036 263.277 418.358 264.229 418.889 265.066C419.42 265.903 420.144 266.601 421 267.1L420.71 282.53H429.18L426.47 267.35C427.386 266.881 428.14 266.148 428.634 265.246C429.128 264.344 429.339 263.314 429.24 262.29Z" fill="#263238" stroke="#263238" stroke-linecap="round" stroke-linejoin="round"/>
<path d="M458.91 123.35C458.965 123.549 459.084 123.724 459.248 123.849C459.413 123.973 459.614 124.041 459.82 124.04C459.906 124.05 459.994 124.05 460.08 124.04C460.318 123.961 460.517 123.797 460.64 123.578C460.762 123.36 460.798 123.103 460.74 122.86C460.041 120.336 458.958 117.935 457.53 115.74C457.385 115.537 457.169 115.395 456.924 115.344C456.68 115.292 456.425 115.333 456.21 115.46C456.009 115.607 455.869 115.823 455.819 116.067C455.769 116.312 455.812 116.566 455.94 116.78C457.258 118.806 458.259 121.022 458.91 123.35Z" fill="#263238"/>
<path d="M407.35 114.37C407.519 114.492 407.722 114.558 407.93 114.56C408.076 114.557 408.22 114.523 408.351 114.459C408.482 114.395 408.598 114.303 408.69 114.19C411.645 110.792 415.382 108.165 419.579 106.534C423.776 104.903 428.307 104.318 432.78 104.83C441.91 105.83 448.89 108.83 453.5 113.66C453.583 113.76 453.685 113.842 453.801 113.901C453.917 113.96 454.043 113.995 454.173 114.003C454.303 114.011 454.433 113.993 454.555 113.949C454.678 113.905 454.79 113.836 454.884 113.747C454.979 113.658 455.054 113.55 455.106 113.43C455.157 113.311 455.183 113.182 455.183 113.052C455.182 112.922 455.155 112.794 455.103 112.675C455.051 112.555 454.975 112.448 454.88 112.36C449.95 107.14 442.58 103.97 432.98 102.94C428.181 102.349 423.311 102.958 418.806 104.714C414.301 106.47 410.303 109.317 407.17 113C407.018 113.207 406.952 113.466 406.985 113.721C407.019 113.976 407.149 114.208 407.35 114.37Z" fill="#263238"/>
<path d="M461 129.64C456 128.71 453.84 123.64 452.1 119.49C451.7 118.56 451.33 117.68 450.95 116.93C448.73 112.48 439.23 107.93 430.31 108.67C426.54 108.99 413.85 111.05 408.8 123.99C406.55 129.76 406.48 136.11 406.8 140.43C406.828 140.665 406.939 140.883 407.113 141.044C407.287 141.206 407.513 141.3 407.75 141.31H407.82C408.064 141.28 408.288 141.162 408.451 140.978C408.613 140.793 408.702 140.556 408.7 140.31C408.38 136.19 408.45 130.14 410.56 124.71C415.21 112.8 426.97 110.9 430.47 110.6C439.21 109.85 447.56 114.44 449.24 117.81C449.59 118.51 449.95 119.36 450.33 120.27C452.15 124.55 454.63 130.43 460.65 131.54C460.789 131.615 460.944 131.656 461.102 131.66C461.26 131.664 461.416 131.631 461.559 131.562C461.701 131.494 461.825 131.393 461.921 131.267C462.017 131.141 462.082 130.995 462.11 130.839C462.138 130.684 462.129 130.524 462.084 130.373C462.038 130.221 461.958 130.083 461.848 129.969C461.739 129.855 461.604 129.768 461.455 129.716C461.306 129.664 461.146 129.648 460.99 129.67L461 129.64Z" fill="#263238"/>
<path d="M408.68 147.74H408.91C409.147 147.668 409.349 147.51 409.476 147.298C409.604 147.085 409.648 146.833 409.6 146.59C409.6 146.59 409.36 145.59 409.11 143.93C409.061 143.684 408.922 143.466 408.721 143.318C408.519 143.17 408.269 143.103 408.02 143.13C407.897 143.148 407.779 143.191 407.672 143.255C407.565 143.319 407.473 143.404 407.399 143.505C407.326 143.605 407.273 143.719 407.244 143.84C407.215 143.961 407.21 144.087 407.23 144.21C407.49 145.95 407.74 146.99 407.76 147.04C407.813 147.242 407.933 147.421 408.1 147.548C408.266 147.675 408.471 147.742 408.68 147.74Z" fill="#263238"/>
<path d="M460.64 137.54L450.48 130.05C450.235 128.929 449.901 127.828 449.48 126.76C448.48 123.9 444.03 116.24 436.24 115.16C431.7 114.486 427.062 115.081 422.84 116.88C422.684 116.898 422.534 116.953 422.403 117.039C422.272 117.126 422.163 117.243 422.085 117.379C422.008 117.516 421.963 117.669 421.956 117.826C421.948 117.983 421.978 118.139 422.042 118.283C422.107 118.426 422.204 118.552 422.326 118.651C422.448 118.75 422.592 118.819 422.746 118.851C422.899 118.884 423.058 118.88 423.21 118.84C423.362 118.8 423.503 118.725 423.62 118.62C427.521 116.957 431.808 116.413 436 117.05C442.83 117.99 446.84 125.05 447.71 127.41C448.135 128.43 448.45 129.493 448.65 130.58C448.655 130.728 448.692 130.872 448.76 131.004C448.827 131.135 448.923 131.25 449.04 131.34L459.52 139.07C459.68 139.195 459.877 139.262 460.08 139.26C460.269 139.238 460.448 139.162 460.595 139.042C460.742 138.922 460.853 138.762 460.912 138.582C460.972 138.401 460.979 138.207 460.933 138.023C460.886 137.838 460.788 137.671 460.65 137.54H460.64Z" fill="#263238"/>
<path d="M415.58 143.78C413.93 138.21 412.87 130.24 417.2 123.88C418.188 122.427 419.435 121.169 420.88 120.17C421.008 120.001 421.079 119.797 421.083 119.585C421.087 119.374 421.024 119.166 420.903 118.993C420.782 118.82 420.609 118.689 420.409 118.62C420.209 118.552 419.992 118.548 419.79 118.61C418.156 119.741 416.746 121.165 415.63 122.81C411.87 128.33 411.22 135.81 413.75 144.32C415.47 150.12 407.18 153.32 407.09 153.39C406.864 153.489 406.682 153.669 406.581 153.894C406.479 154.119 406.465 154.374 406.54 154.61C406.613 154.788 406.736 154.941 406.894 155.051C407.052 155.161 407.238 155.223 407.43 155.23C407.546 155.23 407.661 155.209 407.77 155.17C411.25 153.85 417.36 149.78 415.58 143.78Z" fill="#263238"/>
<path d="M459.85 144.75C459.75 144.68 449.72 138.05 446.61 133.99C444.86 131.71 444.67 130.93 444.47 130.11C444.218 129.041 443.778 128.025 443.17 127.11C441.17 123.81 436.33 120.34 429.49 121.43C422.89 122.49 418.95 127.6 418.95 135.1C418.95 138.19 419.19 140.86 419.42 143.45C419.797 146.612 419.895 149.801 419.71 152.98C419.27 158.19 412.07 160.09 411.94 160.12C411.717 160.177 411.522 160.314 411.392 160.505C411.262 160.696 411.206 160.927 411.234 161.156C411.262 161.385 411.373 161.596 411.545 161.749C411.717 161.903 411.939 161.988 412.17 161.99H412.4C412.76 161.9 421.05 159.75 421.6 153.16C421.799 149.871 421.705 146.572 421.32 143.3C421.09 140.76 420.86 138.13 420.86 135.12C420.86 128.54 424.11 124.24 429.79 123.33C435.71 122.39 439.79 125.33 441.55 128.13C442.062 128.884 442.426 129.729 442.62 130.62C442.86 131.62 443.11 132.62 445.1 135.2C448.4 139.51 458.38 146.11 458.8 146.39C458.899 146.512 459.025 146.61 459.169 146.674C459.312 146.739 459.469 146.769 459.626 146.761C459.783 146.754 459.936 146.709 460.073 146.632C460.21 146.554 460.326 146.445 460.413 146.313C460.5 146.182 460.554 146.032 460.572 145.876C460.59 145.72 460.571 145.561 460.516 145.414C460.461 145.266 460.372 145.134 460.256 145.027C460.141 144.92 460.001 144.843 459.85 144.8V144.75Z" fill="#263238"/>
<path d="M431.38 145.2L430.9 144.6C427.22 140.02 425.2 137.5 428.2 132.6C429.25 130.88 430.43 130.03 431.68 130.09C433.54 130.16 435.73 132.2 437.27 135.27C438.14 137.01 440.4 139.7 444.18 143.51C444.369 143.609 444.584 143.645 444.795 143.613C445.006 143.581 445.201 143.482 445.351 143.331C445.502 143.181 445.601 142.986 445.633 142.775C445.665 142.564 445.629 142.349 445.53 142.16C441.06 137.67 439.53 135.47 438.97 134.42C437.07 130.62 434.38 128.29 431.76 128.18C430.38 128.13 428.36 128.67 426.58 131.61C422.88 137.68 425.58 141.1 429.41 145.82L429.89 146.42C433.89 151.42 447.42 162.55 447.99 163.02C448.161 163.163 448.377 163.241 448.6 163.24C448.785 163.218 448.961 163.145 449.107 163.028C449.252 162.912 449.363 162.757 449.425 162.581C449.488 162.405 449.5 162.216 449.46 162.033C449.42 161.851 449.33 161.684 449.2 161.55C449.06 161.41 435.26 150.05 431.38 145.2Z" fill="#263238"/>
<path d="M449.05 145.57C448.859 145.479 448.645 145.45 448.437 145.489C448.229 145.527 448.039 145.63 447.893 145.784C447.748 145.937 447.654 146.132 447.627 146.342C447.599 146.552 447.639 146.764 447.74 146.95C451.74 150.76 455.42 153.95 455.46 154C455.635 154.145 455.853 154.226 456.08 154.23C456.217 154.231 456.352 154.202 456.476 154.145C456.601 154.088 456.711 154.004 456.8 153.9C456.954 153.705 457.03 153.46 457.013 153.213C456.997 152.965 456.889 152.732 456.71 152.56C456.71 152.56 453 149.35 449.05 145.57Z" fill="#263238"/>
<path d="M452.93 156.77C452.8 156.67 440.26 146.77 437.13 142.72C435.253 140.248 433.788 137.489 432.79 134.55C432.759 134.426 432.702 134.31 432.625 134.208C432.547 134.106 432.45 134.021 432.339 133.957C432.228 133.894 432.105 133.854 431.977 133.839C431.85 133.825 431.721 133.836 431.599 133.872C431.476 133.909 431.362 133.97 431.263 134.051C431.165 134.133 431.084 134.233 431.025 134.347C430.966 134.461 430.931 134.585 430.922 134.713C430.912 134.841 430.929 134.969 430.97 135.09C432.013 138.261 433.586 141.233 435.62 143.88C438.89 148.16 451.23 157.88 451.75 158.27C451.92 158.398 452.127 158.468 452.34 158.47C452.484 158.467 452.625 158.434 452.754 158.372C452.884 158.31 452.998 158.22 453.09 158.11C453.235 157.907 453.3 157.657 453.27 157.409C453.241 157.161 453.119 156.933 452.93 156.77Z" fill="#263238"/>
<path d="M432.13 160.45C428.53 162.67 427.72 169.84 427.69 170.14C427.675 170.39 427.754 170.636 427.911 170.83C428.068 171.025 428.293 171.153 428.54 171.19H428.64C428.874 171.191 429.101 171.104 429.275 170.947C429.449 170.79 429.558 170.573 429.58 170.34C429.78 168.53 430.79 163.51 433.13 162.07C435.04 160.9 439.13 164.79 440.88 166.85C441.046 167.036 441.275 167.154 441.523 167.179C441.771 167.205 442.019 167.138 442.22 166.99C442.405 166.823 442.52 166.593 442.544 166.345C442.568 166.097 442.499 165.849 442.35 165.65C441.7 164.87 436 158.09 432.13 160.45Z" fill="#263238"/>
<path d="M425.4 149.36C425.163 149.434 424.962 149.594 424.836 149.809C424.71 150.023 424.669 150.277 424.72 150.52C425.363 153.572 425.117 156.744 424.01 159.66C423.061 162.301 421.105 164.458 418.57 165.66C418.396 165.765 418.258 165.921 418.175 166.106C418.092 166.291 418.067 166.498 418.104 166.698C418.141 166.897 418.238 167.081 418.382 167.225C418.526 167.368 418.71 167.464 418.91 167.5C419.023 167.499 419.134 167.478 419.24 167.44C420.737 166.761 422.086 165.794 423.208 164.592C424.331 163.391 425.205 161.98 425.78 160.44C427.055 157.149 427.326 153.555 426.56 150.11C426.5 149.86 426.346 149.642 426.13 149.503C425.914 149.363 425.653 149.312 425.4 149.36Z" fill="#263238"/>
<path d="M422.34 99.9199C428.23 98.4999 437.15 97.6199 446.23 101.51C446.345 101.566 446.472 101.593 446.6 101.59C446.8 101.558 446.986 101.466 447.132 101.326C447.279 101.186 447.379 101.004 447.421 100.806C447.462 100.607 447.442 100.401 447.363 100.214C447.284 100.028 447.151 99.8691 446.98 99.7599C437.42 95.6699 428.06 96.5799 421.89 98.0699C421.733 98.0585 421.575 98.0844 421.43 98.1454C421.285 98.2065 421.156 98.301 421.054 98.4213C420.952 98.5415 420.88 98.6841 420.844 98.8375C420.808 98.9908 420.809 99.1506 420.846 99.3036C420.883 99.4567 420.956 99.5989 421.059 99.7185C421.161 99.838 421.291 99.9317 421.436 99.9918C421.582 100.052 421.74 100.077 421.897 100.064C422.054 100.052 422.206 100.002 422.34 99.9199Z" fill="#263238"/>
<path d="M415.67 102.09C415.808 102.088 415.944 102.057 416.07 102C416.879 101.625 417.707 101.291 418.55 101C418.719 100.873 418.844 100.696 418.906 100.493C418.968 100.291 418.965 100.074 418.896 99.874C418.827 99.6739 418.696 99.5009 418.523 99.3797C418.349 99.2586 418.142 99.1956 417.93 99.1999C417.022 99.4839 416.131 99.8178 415.26 100.2C415.096 100.313 414.969 100.473 414.897 100.659C414.824 100.845 414.809 101.049 414.853 101.243C414.897 101.438 414.999 101.615 415.144 101.752C415.29 101.888 415.473 101.978 415.67 102.01V102.09Z" fill="#263238"/>
<path d="M109.17 331.53H49.75C46.5081 331.53 43.88 334.158 43.88 337.4V371.8C43.88 375.042 46.5081 377.67 49.75 377.67H109.17C112.412 377.67 115.04 375.042 115.04 371.8V337.4C115.04 334.158 112.412 331.53 109.17 331.53Z" fill="white" stroke="#263238" stroke-linecap="round" stroke-linejoin="round"/>
<path d="M53.88 343.07L77.24 356.31C78.6198 357.096 80.1892 357.487 81.7764 357.441C83.3637 357.396 84.9079 356.914 86.24 356.05L115 337.4" stroke="#263238" stroke-linecap="round" stroke-linejoin="round"/>
<path d="M43.88 337.4L49.95 340.84" stroke="#263238" stroke-linecap="round" stroke-linejoin="round"/>
<path d="M126.37 348.74H66.95C63.7081 348.74 61.08 351.368 61.08 354.61V389.01C61.08 392.252 63.7081 394.88 66.95 394.88H126.37C129.612 394.88 132.24 392.252 132.24 389.01V354.61C132.24 351.368 129.612 348.74 126.37 348.74Z" fill="#7C53E0" stroke="#263238" stroke-linecap="round" stroke-linejoin="round"/>
<path d="M114.64 365.99L132.25 354.6" stroke="#263238" stroke-linecap="round" stroke-linejoin="round"/>
<path d="M69.9 359.6L94.44 373.52C95.8207 374.305 97.3905 374.694 98.9778 374.647C100.565 374.599 102.109 374.116 103.44 373.25L110.28 368.83" stroke="#263238" stroke-linecap="round" stroke-linejoin="round"/>
<path d="M61.08 354.6L67.18 358.06" stroke="#263238" stroke-linecap="round" stroke-linejoin="round"/>
<path d="M139.262 357.471C141.507 352.089 138.965 345.905 133.583 343.659C128.2 341.413 122.016 343.956 119.77 349.338C117.524 354.72 120.067 360.904 125.449 363.15C130.832 365.396 137.016 362.854 139.262 357.471Z" fill="#263238" stroke="#263238" stroke-linecap="round" stroke-linejoin="round"/>
<path d="M125.33 350.56C125.688 350.607 126.05 350.515 126.342 350.303C126.634 350.091 126.834 349.775 126.9 349.42H127.9V358.5H126.47V351.57H125.37L125.33 350.56Z" fill="white"/>
<path d="M129.47 351.6C129.47 351.024 129.699 350.472 130.106 350.066C130.513 349.659 131.064 349.43 131.64 349.43C132.216 349.43 132.767 349.659 133.174 350.066C133.581 350.472 133.81 351.024 133.81 351.6V356.32C133.81 356.895 133.581 357.447 133.174 357.854C132.767 358.261 132.216 358.49 131.64 358.49C131.064 358.49 130.513 358.261 130.106 357.854C129.699 357.447 129.47 356.895 129.47 356.32V351.6ZM130.9 356.41C130.9 357.06 131.19 357.31 131.64 357.31C132.09 357.31 132.38 357.06 132.38 356.41V351.51C132.38 350.86 132.1 350.61 131.64 350.61C131.18 350.61 130.9 350.86 130.9 351.51V356.41Z" fill="white"/>
<path d="M115.54 219.22V258.22C115.54 259.546 115.013 260.818 114.076 261.755C113.138 262.693 111.866 263.22 110.54 263.22H48.78C47.4539 263.22 46.1821 262.693 45.2445 261.755C44.3068 260.818 43.78 259.546 43.78 258.22V219.22C43.78 217.894 44.3068 216.622 45.2445 215.684C46.1821 214.747 47.4539 214.22 48.78 214.22H110.5C111.16 214.215 111.814 214.34 112.426 214.589C113.037 214.838 113.593 215.205 114.061 215.67C114.53 216.135 114.902 216.688 115.156 217.297C115.409 217.906 115.54 218.56 115.54 219.22Z" fill="#7C53E0" stroke="#263238" stroke-linecap="round" stroke-linejoin="round"/>
<path d="M105.46 224.57C107.548 224.57 109.24 222.877 109.24 220.79C109.24 218.702 107.548 217.01 105.46 217.01C103.372 217.01 101.68 218.702 101.68 220.79C101.68 222.877 103.372 224.57 105.46 224.57Z" fill="white" stroke="#263238" stroke-linecap="round" stroke-linejoin="round"/>
<path d="M115.54 229.77H43.74V241.2H115.54V229.77Z" fill="#263238" stroke="#263238" stroke-linecap="round" stroke-linejoin="round"/>
<path d="M132 234.71V273.71C132 275.036 131.473 276.308 130.536 277.245C129.598 278.183 128.326 278.71 127 278.71H65.28C63.9539 278.71 62.6821 278.183 61.7445 277.245C60.8068 276.308 60.28 275.036 60.28 273.71V234.71C60.28 233.384 60.8068 232.112 61.7445 231.174C62.6821 230.237 63.9539 229.71 65.28 229.71H127C128.326 229.71 129.598 230.237 130.536 231.174C131.473 232.112 132 233.384 132 234.71Z" fill="white" stroke="#263238" stroke-linecap="round" stroke-linejoin="round"/>
<path d="M121.96 240.06C124.048 240.06 125.74 238.368 125.74 236.28C125.74 234.192 124.048 232.5 121.96 232.5C119.872 232.5 118.18 234.192 118.18 236.28C118.18 238.368 119.872 240.06 121.96 240.06Z" fill="white" stroke="#263238" stroke-linecap="round" stroke-linejoin="round"/>
<path d="M132.04 245.26H60.24V256.69H132.04V245.26Z" fill="#263238" stroke="#263238" stroke-linecap="round" stroke-linejoin="round"/>
<path d="M124.1 109.88H46.37V156.64H124.1V109.88Z" fill="white" stroke="#263238" stroke-linecap="round" stroke-linejoin="round"/>
<path d="M118.03 114.74H52.44V151.78H118.03V114.74Z" fill="#7C53E0" stroke="#263238" stroke-linecap="round" stroke-linejoin="round"/>
<path d="M85.24 146.01C92.2816 146.01 97.99 140.302 97.99 133.26C97.99 126.219 92.2816 120.51 85.24 120.51C78.1984 120.51 72.49 126.219 72.49 133.26C72.49 140.302 78.1984 146.01 85.24 146.01Z" fill="white" stroke="#263238" stroke-linecap="round" stroke-linejoin="round"/>
<path d="M128.412 110.548L51.1062 102.437L46.2266 148.941L123.532 157.053L128.412 110.548Z" fill="white" stroke="#263238" stroke-linecap="round" stroke-linejoin="round"/>
<path d="M121.878 114.749L56.6459 107.904L52.7806 144.742L118.012 151.587L121.878 114.749Z" fill="#7C53E0" stroke="#263238" stroke-linecap="round" stroke-linejoin="round"/>
<path d="M100 131.07C100.263 128.562 99.7769 126.032 98.602 123.8C97.4272 121.568 95.6167 119.735 93.3998 118.532C91.1828 117.329 88.6589 116.811 86.1474 117.043C83.6359 117.275 81.2495 118.246 79.2903 119.835C77.3311 121.423 75.8869 123.557 75.1406 125.966C74.3943 128.375 74.3794 130.952 75.0976 133.37C75.8159 135.787 77.2351 137.938 79.1758 139.549C81.1164 141.16 83.4913 142.159 86 142.42C89.3613 142.77 92.724 141.771 95.3491 139.643C97.9742 137.515 99.6471 134.431 100 131.07Z" fill="white" stroke="#263238" stroke-linecap="round" stroke-linejoin="round"/>
<path d="M136.475 113.068L62.3716 89.6035L48.2561 134.182L122.36 157.647L136.475 113.068Z" fill="white" stroke="#263238" stroke-linecap="round" stroke-linejoin="round"/>
<path d="M129.231 115.872L66.7009 96.0723L55.5196 131.384L118.05 151.184L129.231 115.872Z" fill="#7C53E0" stroke="#263238" stroke-linecap="round" stroke-linejoin="round"/>
<path d="M104.53 127.48C105.291 125.076 105.322 122.5 104.618 120.078C103.915 117.656 102.51 115.497 100.579 113.874C98.6491 112.251 96.281 111.237 93.7744 110.96C91.2678 110.683 88.7354 111.156 86.4974 112.318C84.2595 113.481 82.4164 115.281 81.2014 117.491C79.9865 119.7 79.4541 122.221 79.6717 124.733C79.8892 127.246 80.847 129.637 82.4237 131.605C84.0005 133.573 86.1255 135.03 88.53 135.79C91.7538 136.804 95.2479 136.499 98.247 134.941C101.246 133.383 103.505 130.7 104.53 127.48Z" fill="white" stroke="#263238" stroke-linecap="round" stroke-linejoin="round"/>
<path d="M110.335 182.36C120.018 180.159 126.083 170.524 123.881 160.841C121.68 151.158 112.045 145.094 102.362 147.295C92.6795 149.497 86.6147 159.131 88.8164 168.814C91.0181 178.497 100.652 184.562 110.335 182.36Z" fill="white" stroke="#263238" stroke-linecap="round" stroke-linejoin="round"/>
<path d="M94.48 153.54H92.51" stroke="#263238" stroke-linecap="round" stroke-linejoin="round"/>
<path d="M92.36 156.27H90.54" stroke="#263238" stroke-linecap="round" stroke-linejoin="round"/>
<path d="M91.15 159.76H89.48" stroke="#263238" stroke-linecap="round" stroke-linejoin="round"/>
<path d="M90.69 166.89H88.72" stroke="#263238" stroke-linecap="round" stroke-linejoin="round"/>
<path d="M120.468 178.101C127.787 171.39 128.28 160.016 121.568 152.697C114.857 145.378 103.483 144.886 96.1645 151.597C88.8457 158.308 88.3531 169.682 95.0643 177.001C101.775 184.319 113.149 184.812 120.468 178.101Z" fill="white" stroke="#263238" stroke-linecap="round" stroke-linejoin="round"/>
<path d="M110.356 177.712C117.47 176.588 122.325 169.91 121.201 162.797C120.077 155.683 113.399 150.828 106.285 151.952C99.1716 153.076 94.3163 159.754 95.4404 166.867C96.5645 173.981 103.242 178.836 110.356 177.712Z" fill="white" stroke="#263238" stroke-width="2" stroke-linecap="round" stroke-linejoin="round"/>
<path d="M107.44 157V155.88H109.37V157C111.04 157.34 111.9 158.62 111.9 160.66V161.13H109.67V160.51C109.67 159.44 109.24 159.03 108.49 159.03C107.74 159.03 107.31 159.44 107.31 160.51C107.31 163.6 111.92 163.75 111.92 168.03C111.92 170.03 111.04 171.37 109.37 171.72V172.81H107.44V171.72C105.75 171.37 104.89 170.07 104.89 168.03V167.03H107.12V168.21C107.12 169.28 107.59 169.67 108.34 169.67C109.09 169.67 109.56 169.28 109.56 168.21C109.56 165.13 104.95 164.98 104.95 160.69C105 158.6 105.79 157.31 107.44 157Z" fill="#263238"/>
<path d="M116.295 167.623C125.938 165.252 131.834 155.514 129.464 145.871C127.093 136.228 117.354 130.332 107.711 132.702C98.0684 135.073 92.1728 144.811 94.5431 154.454C96.9134 164.097 106.652 169.993 116.295 167.623Z" fill="white" stroke="#263238" stroke-linecap="round" stroke-linejoin="round"/>
<path d="M100.14 138.87H98.17" stroke="#263238" stroke-linecap="round" stroke-linejoin="round"/>
<path d="M98.02 141.6H96.2" stroke="#263238" stroke-linecap="round" stroke-linejoin="round"/>
<path d="M96.8 145.08H95.14" stroke="#263238" stroke-linecap="round" stroke-linejoin="round"/>
<path d="M96.35 152.21H94.38" stroke="#263238" stroke-linecap="round" stroke-linejoin="round"/>
<path d="M127.253 162.262C133.949 154.929 133.433 143.556 126.1 136.86C118.767 130.164 107.395 130.681 100.699 138.014C94.0028 145.347 94.5192 156.719 101.852 163.415C109.185 170.111 120.558 169.594 127.253 162.262Z" fill="white" stroke="#263238" stroke-linecap="round" stroke-linejoin="round"/>
<path d="M126.033 155.092C128.767 148.429 125.582 140.812 118.919 138.078C112.257 135.344 104.639 138.529 101.905 145.191C99.1713 151.854 102.356 159.472 109.019 162.206C115.682 164.94 123.299 161.755 126.033 155.092Z" fill="white" stroke="#263238" stroke-width="2" stroke-linecap="round" stroke-linejoin="round"/>
<path d="M113.1 142.27V141.15H115V142.27C116.68 142.61 117.53 143.89 117.53 145.93V146.4H115.3V145.78C115.3 144.71 114.88 144.3 114.13 144.3C113.38 144.3 112.95 144.71 112.95 145.78C112.95 148.87 117.55 149.02 117.55 153.3C117.55 155.3 116.68 156.64 115 156.99V158.08H113.1V157C111.4 156.65 110.55 155.35 110.55 153.31V152.31H112.77V153.49C112.77 154.56 113.25 154.95 114 154.95C114.75 154.95 115.22 154.56 115.22 153.49C115.22 150.41 110.61 150.26 110.61 145.97C110.61 143.92 111.45 142.63 113.1 142.27Z" fill="#263238"/>
<path d="M196.5 279.5C196.5 279.5 197.5 285 198.75 287C200 289 203.5 291.25 203.75 295.5C203.895 298.331 203.895 301.168 203.75 304C203.75 304 214.5 310.5 223.25 315C228.472 317.693 233.907 319.951 239.5 321.75L237 342.5C237 342.5 210.5 324 204.25 318.25C198 312.5 192.25 306 191.25 305.75C190.25 305.5 182.25 294.5 182 293.25C181.75 292 185.75 289.5 187 289.75C188.25 290 189.75 287 190.5 284.5C191.25 282 191.25 279 193 279C194.183 279.024 195.358 279.192 196.5 279.5Z" fill="white" stroke="#263238" stroke-linecap="round" stroke-linejoin="round"/>
<path d="M160.2 279.74L190.91 310.89C191.358 311.344 191.949 311.629 192.584 311.697C193.218 311.764 193.857 311.61 194.39 311.26L202.29 306.04C202.623 305.819 202.904 305.528 203.113 305.188C203.323 304.847 203.455 304.465 203.502 304.068C203.549 303.671 203.508 303.269 203.384 302.889C203.259 302.51 203.053 302.162 202.78 301.87L174.78 271.87C174.407 271.467 173.921 271.187 173.386 271.064C172.851 270.941 172.292 270.981 171.78 271.18L161.18 275.25C160.755 275.413 160.376 275.68 160.08 276.025C159.783 276.371 159.576 276.785 159.479 277.23C159.382 277.676 159.397 278.138 159.523 278.576C159.649 279.014 159.881 279.414 160.2 279.74Z" fill="#263238" stroke="#263238" stroke-linecap="round" stroke-linejoin="round"/>
<path d="M223.85 381.39C236.803 385.855 250.521 387.679 264.191 386.753C277.861 385.828 291.207 382.171 303.44 376C304.08 367.1 304.5 356.37 304.5 352.47C304.5 345.72 310.25 320.72 313.25 307.22C316.25 293.72 312.25 278.72 308.75 264.47C305.25 250.22 291.5 240.47 291.5 240.47L257.5 256.72C257.5 256.72 232 279.47 229.75 291.72C227.5 303.97 236.5 315.22 236.5 317.97C236.5 320.27 227.11 364.53 223.85 381.39Z" fill="#7C53E0" stroke="#263238" stroke-linecap="round" stroke-linejoin="round"/>
<path d="M292.14 318.18C292.14 318.18 305.03 308.64 306.06 308.12" stroke="#263238" stroke-linecap="round" stroke-linejoin="round"/>
<path d="M289.56 322.56L303.74 319.47" stroke="#263238" stroke-linecap="round" stroke-linejoin="round"/>
<path d="M252.25 238L255.25 244.25L282.25 226.25L275 216.25L251 236.25L252.25 238Z" fill="#263238" stroke="#263238" stroke-linecap="round" stroke-linejoin="round"/>
<path d="M278.9 223.65L252.78 242C252.061 242.504 251.536 243.24 251.292 244.084C251.048 244.928 251.1 245.83 251.44 246.64L256.75 259.42C256.935 259.866 257.214 260.266 257.568 260.594C257.923 260.922 258.344 261.169 258.803 261.318C259.262 261.467 259.748 261.515 260.228 261.458C260.707 261.402 261.168 261.242 261.58 260.99L291.88 242.44C292.276 242.197 292.617 241.874 292.882 241.492C293.146 241.111 293.329 240.678 293.417 240.222C293.506 239.766 293.498 239.296 293.395 238.843C293.293 238.39 293.097 237.963 292.82 237.59L283 224.3C282.532 223.684 281.845 223.272 281.081 223.151C280.317 223.03 279.535 223.209 278.9 223.65Z" fill="#7C53E0" stroke="#263238" stroke-linecap="round" stroke-linejoin="round"/>
<path d="M213.57 183.52C213.57 183.52 214.43 195.52 217.01 200.69C219.59 205.86 223.88 211 222.59 213.14C221.3 215.28 219.15 220.44 222.16 222.59C223.741 223.838 225.731 224.452 227.74 224.31C227.74 224.31 235.17 242.31 240.29 243.31C249.18 245.12 262.95 229.02 264.29 228.59C265.63 228.16 276.74 220.43 277.6 210.59C278.46 200.75 273.3 186.59 269.01 184.83C264.72 183.07 255.7 185.25 248.01 182.25C240.32 179.25 215.29 171.92 213.57 183.52Z" fill="white" stroke="#263238" stroke-linecap="round" stroke-linejoin="round"/>
<path d="M227.31 205L228.6 208.86C230.041 209.193 231.548 209.085 232.927 208.55C234.305 208.015 235.491 207.078 236.33 205.86" stroke="#263238" stroke-linecap="round" stroke-linejoin="round"/>
<path d="M224.12 199.07C224.12 199.07 226.34 195.23 233.62 197.25" stroke="#263238" stroke-linecap="round" stroke-linejoin="round"/>
<path d="M231 227C232.433 226.883 233.811 226.397 235 225.59" stroke="#263238" stroke-linecap="round" stroke-linejoin="round"/>
<path d="M210.57 158.61C210.57 158.61 201.98 167.61 203.27 174.93C204.56 182.25 214 189.1 219.15 189.1C224.3 189.1 227.31 187.81 233.75 187.81C240.19 187.81 247.06 192.53 249.64 195.11C252.22 197.69 255.64 201.11 257.8 197.69C259.96 194.27 258.66 191.25 267.24 192.1C275.82 192.95 274.11 206.27 271.11 212.71C268.11 219.15 265.96 222.59 262.52 222.59C259.08 222.59 254.36 220.44 256.94 224.31C259.52 228.18 267.24 237.19 284.85 233.75C302.46 230.31 308.03 215.75 308.03 207.13C308.03 198.51 302.03 185.66 297.73 176.65C293.43 167.64 284.85 148.74 263.81 142.73C242.77 136.72 219.15 144.44 210.57 158.61Z" fill="#263238" stroke="#263238" stroke-linecap="round" stroke-linejoin="round"/>
<path d="M257.86 200.88C257.86 200.88 257.46 192.4 262.51 190.78C267.56 189.16 272.61 192.2 272.82 198.26C273.03 204.32 272.21 210.58 269.99 212.81C267.77 215.04 261.7 213.21 261.7 213.21" fill="white"/>
<path d="M257.86 200.88C257.86 200.88 257.46 192.4 262.51 190.78C267.56 189.16 272.61 192.2 272.82 198.26C273.03 204.32 272.21 210.58 269.99 212.81C267.77 215.04 261.7 213.21 261.7 213.21" stroke="#263238" stroke-linecap="round" stroke-linejoin="round"/>
<path d="M276.5 263C276.5 263 264.25 272 261.75 283C259.25 294 253.25 325.25 253.25 325.25C253.25 325.25 249.25 324.75 249.25 325.75C249.047 327.031 248.711 328.287 248.25 329.5C248.25 329.5 245 329.5 244.75 330.75C244.5 332 217.75 318.25 211 313.75C204.25 309.25 195.75 303 194.25 301C191.314 297.219 188.141 293.628 184.75 290.25C182 287.75 176.5 284.25 175.5 283.5C174.5 282.75 173 276.25 170.75 277.25C168.5 278.25 169 282.75 170 284.5C171 286.25 175 293.5 175 293.5C175 293.5 166.5 294.25 164.75 295.5C163 296.75 162 301 164 302.5C166 304 170.5 304.5 170.5 304.5C170.5 304.5 171.75 310.75 174.25 312.5C176.75 314.25 181 316 183.25 317C185.5 318 193.25 318.25 193.25 318.25C193.25 318.25 203.75 330 211 337.25C218.25 344.5 246.75 365 251 366.5C255.25 368 260.25 364.75 262 362.25C263.75 359.75 293 318.5 300 304.75" fill="white"/>
<path d="M276.5 263C276.5 263 264.25 272 261.75 283C259.25 294 253.25 325.25 253.25 325.25C253.25 325.25 249.25 324.75 249.25 325.75C249.047 327.031 248.711 328.287 248.25 329.5C248.25 329.5 245 329.5 244.75 330.75C244.5 332 217.75 318.25 211 313.75C204.25 309.25 195.75 303 194.25 301C191.314 297.219 188.141 293.628 184.75 290.25C182 287.75 176.5 284.25 175.5 283.5C174.5 282.75 173 276.25 170.75 277.25C168.5 278.25 169 282.75 170 284.5C171 286.25 175 293.5 175 293.5C175 293.5 166.5 294.25 164.75 295.5C163 296.75 162 301 164 302.5C166 304 170.5 304.5 170.5 304.5C170.5 304.5 171.75 310.75 174.25 312.5C176.75 314.25 181 316 183.25 317C185.5 318 193.25 318.25 193.25 318.25C193.25 318.25 203.75 330 211 337.25C218.25 344.5 246.75 365 251 366.5C255.25 368 260.25 364.75 262 362.25C263.75 359.75 293 318.5 300 304.75" stroke="#263238" stroke-linecap="round" stroke-linejoin="round"/>
<path d="M276.5 263C276.5 263 264.25 272 261.75 283C259.25 294 253.25 325.25 253.25 325.25C253.25 325.25 249.25 324.75 249.25 325.75C249.047 327.031 248.711 328.287 248.25 329.5C248.25 329.5 245 329.5 244.75 330.75C244.63 331.34 238.67 328.61 231.67 325.09L220.6 345.36C231.85 354.17 247.89 365.36 251 366.5C255.25 368 260.25 364.75 262 362.25C263.75 359.75 294.38 317.61 302 303.25" fill="#7C53E0"/>
<path d="M276.5 263C276.5 263 264.25 272 261.75 283C259.25 294 253.25 325.25 253.25 325.25C253.25 325.25 249.25 324.75 249.25 325.75C249.047 327.031 248.711 328.287 248.25 329.5C248.25 329.5 245 329.5 244.75 330.75C244.63 331.34 238.67 328.61 231.67 325.09L220.6 345.36C231.85 354.17 247.89 365.36 251 366.5C255.25 368 260.25 364.75 262 362.25C263.75 359.75 294.38 317.61 302 303.25" stroke="#263238" stroke-linecap="round" stroke-linejoin="round"/>
<path d="M195.75 282C195.75 282 192.5 290.75 191 291.5C189.5 292.25 188 292 187 289.75C186 287.5 189.25 280.5 189.25 280.5C189.25 280.5 190.25 277.25 193.25 277.25C196.25 277.25 196.5 279.5 196.5 279.5L195.75 282Z" fill="white" stroke="#263238" stroke-linecap="round" stroke-linejoin="round"/>
<defs>
<linearGradient id="paint0_linear" x1="18.4402" y1="251.42" x2="481.294" y2="251.42" gradientUnits="userSpaceOnUse">
<stop stop-color="#262364"/>
<stop offset="1" stop-color="#CD4FA5"/>
</linearGradient>
</defs>
</svg>
