<?xml version="1.0" encoding="UTF-8"?> <svg xmlns="http://www.w3.org/2000/svg" id="Слой_1" data-name="Слой 1" viewBox="0 0 278.06 67.97"> <g id="Сгруппировать_4907" data-name="Сгруппировать 4907"> <g id="_" data-name=" " style="isolation:isolate"> <g style="isolation:isolate"> <path d="M268.47,20.68h5.15q.39,0,.39.36v.73q0,.36-.39.36h-5.15v5.22a.35.35,0,0,1-.4.39h-.76a.34.34,0,0,1-.39-.39V22.13h-5.15c-.27,0-.4-.12-.4-.36V21c0-.24.13-.36.4-.36h5.15V15.47a.35.35,0,0,1,.39-.4h.76a.35.35,0,0,1,.4.4Z" fill="#fff"></path> </g> <g style="isolation:isolate"> <path d="M268.47,20.68h5.15q.39,0,.39.36v.73q0,.36-.39.36h-5.15v5.22a.35.35,0,0,1-.4.39h-.76a.34.34,0,0,1-.39-.39V22.13h-5.15c-.27,0-.4-.12-.4-.36V21c0-.24.13-.36.4-.36h5.15V15.47a.35.35,0,0,1,.39-.4h.76a.35.35,0,0,1,.4.4Z" fill="none" stroke="#fff"></path> </g> </g> <g id="MAGNUS_CAPITAL" data-name="MAGNUS CAPITAL" style="isolation:isolate"> <g style="isolation:isolate"> <path d="M17.71,32.82H23a.68.68,0,0,1,.76.76V55.22A.67.67,0,0,1,23,56H20.09a.67.67,0,0,1-.76-.75V38.15h-.14L15.52,50.21a.89.89,0,0,1-.9.72h-3a.89.89,0,0,1-.9-.72L7,38.12H6.8v17.1a.9.9,0,0,1-.14.59.83.83,0,0,1-.61.16H3.1a.67.67,0,0,1-.76-.75V33.58a.67.67,0,0,1,.76-.76H8.46a.67.67,0,0,1,.68.51L13,46h.22L17,33.33A.61.61,0,0,1,17.71,32.82Z" fill="#fff"></path> <path d="M30.89,56H27.43c-.43,0-.57-.25-.43-.75l5.69-21.64a1,1,0,0,1,1.08-.76h4.79a1,1,0,0,1,1.08.76l5.68,21.64c.15.5,0,.75-.43.75H41.44a.68.68,0,0,1-.54-.16,1.23,1.23,0,0,1-.22-.59l-1-4h-7l-1,4a1.05,1.05,0,0,1-.23.59A.7.7,0,0,1,30.89,56Zm5.22-18.79-2.59,10.4h5.32l-2.59-10.4Z" fill="#fff"></path> <path d="M57.92,56H54.11a6,6,0,0,1-4.39-1.51,5.79,5.79,0,0,1-1.55-4.36V38.69a5.77,5.77,0,0,1,1.55-4.35,6,6,0,0,1,4.39-1.52h3.81a5.92,5.92,0,0,1,4.36,1.53,5.86,5.86,0,0,1,1.55,4.34v1.08c0,.53-.25.79-.76.79H60c-.5,0-.75-.26-.75-.79v-.86a2.33,2.33,0,0,0-.47-1.64,2.21,2.21,0,0,0-1.62-.49H54.83a2.2,2.2,0,0,0-1.6.49,2.23,2.23,0,0,0-.49,1.64v11a2.25,2.25,0,0,0,.49,1.64,2.2,2.2,0,0,0,1.6.48h2.34a2.21,2.21,0,0,0,1.62-.48,2.35,2.35,0,0,0,.47-1.64V47.62a.36.36,0,0,0-.4-.4H56.7a.67.67,0,0,1-.76-.75V44a.68.68,0,0,1,.76-.76H63a.74.74,0,0,1,.83.83v6a5.83,5.83,0,0,1-1.55,4.34A5.92,5.92,0,0,1,57.92,56Z" fill="#fff"></path> <path d="M71.89,56h-3a.66.66,0,0,1-.75-.75V33.58a.67.67,0,0,1,.75-.76h2.7a1,1,0,0,1,1,.51L79.88,47H80V33.58a.67.67,0,0,1,.75-.76h3a.67.67,0,0,1,.76.76V55.22a.67.67,0,0,1-.76.75H81.14A1.21,1.21,0,0,1,80,55.25l-7.2-13.39h-.14V55.22A.67.67,0,0,1,71.89,56Z" fill="#fff"></path> <path d="M101.05,32.82h3c.52,0,.79.24.79.72V50.1a5.76,5.76,0,0,1-1.57,4.34A6,6,0,0,1,98.93,56H95a6,6,0,0,1-4.39-1.51A5.79,5.79,0,0,1,89,50.1V33.58a.67.67,0,0,1,.75-.76h3.06a.67.67,0,0,1,.76.76V49.89a2.3,2.3,0,0,0,.48,1.64,2.25,2.25,0,0,0,1.61.48h2.48a1.79,1.79,0,0,0,2.13-2.12V33.58A.67.67,0,0,1,101.05,32.82Z" fill="#fff"></path> <path d="M108.79,50.07v-.72a.67.67,0,0,1,.76-.76h3.06a.67.67,0,0,1,.75.76v.29a2.53,2.53,0,0,0,.54,1.87,3,3,0,0,0,2,.5h1.7a2.8,2.8,0,0,0,2-.54,2.79,2.79,0,0,0,.56-2V49a1.82,1.82,0,0,0-.85-1.6,4.46,4.46,0,0,0-2.11-.66,23.07,23.07,0,0,1-2.71-.42,16.34,16.34,0,0,1-2.72-.79,4.27,4.27,0,0,1-2.11-1.91,7.07,7.07,0,0,1-.84-3.65V38.73a5.8,5.8,0,0,1,1.58-4.36,6,6,0,0,1,4.39-1.55h3.6a6.08,6.08,0,0,1,4.43,1.55,5.84,5.84,0,0,1,1.58,4.36v.68a.67.67,0,0,1-.75.76h-3.06a.67.67,0,0,1-.76-.76V39.2a2.58,2.58,0,0,0-.54-1.91,2.91,2.91,0,0,0-2-.51h-1.4a2.73,2.73,0,0,0-2,.56,3.28,3.28,0,0,0-.52,2.18v.69c0,1.12,1,1.77,3,1.94a18.35,18.35,0,0,1,5.44,1.22,4.61,4.61,0,0,1,2.1,1.93,6.72,6.72,0,0,1,.85,3.54v1.23a5.79,5.79,0,0,1-1.59,4.35A6,6,0,0,1,118.69,56h-3.92a6,6,0,0,1-4.39-1.55A5.79,5.79,0,0,1,108.79,50.07Z" fill="#fff"></path> </g> <g style="isolation:isolate"> <path d="M147.6,56h-4.18a5.55,5.55,0,0,1-4.12-1.47,5.62,5.62,0,0,1-1.46-4.11v-12a5.08,5.08,0,0,1,5.58-5.58h4.18a5.58,5.58,0,0,1,4.1,1.46,5.51,5.51,0,0,1,1.48,4.12v1.73a.58.58,0,0,1-.65.65h-2.27c-.41,0-.61-.22-.61-.65V38.55c0-1.78-.86-2.67-2.59-2.67h-3.13c-1.73,0-2.6.89-2.6,2.67v11.7c0,1.78.87,2.66,2.6,2.66h3.13c1.73,0,2.59-.88,2.59-2.66V48.66c0-.43.2-.64.61-.64h2.27a.57.57,0,0,1,.65.64v1.73A5.12,5.12,0,0,1,147.6,56Z" fill="#fff"></path> <path d="M158.9,56h-2.59c-.34,0-.46-.2-.36-.61l6.26-21.92a.82.82,0,0,1,.87-.62h3.6a.77.77,0,0,1,.86.62l6.27,21.92c.09.41,0,.61-.4.61h-2.56a.67.67,0,0,1-.45-.12,1,1,0,0,1-.19-.49l-1.37-4.68h-7.92l-1.37,4.68C159.45,55.77,159.24,56,158.9,56Zm5.91-19.69L161.64,47.8h6.51L165,36.28Z" fill="#fff"></path> <path d="M180.25,56H178a.54.54,0,0,1-.61-.61V33.44a.54.54,0,0,1,.61-.62h8.57a5.58,5.58,0,0,1,4.1,1.46,5.51,5.51,0,0,1,1.48,4.12v3.75a5.13,5.13,0,0,1-5.58,5.58h-5.26c-.28,0-.43.12-.43.36v7.27A.54.54,0,0,1,180.25,56Zm1-11.34h4.79c1.7,0,2.55-.89,2.55-2.66V38.55q0-2.67-2.55-2.67h-4.79c-.27,0-.4.12-.4.36v8C180.86,44.51,181,44.63,181.26,44.63Z" fill="#fff"></path> <path d="M200.05,33.44V55.36a.54.54,0,0,1-.61.61h-2.27a.54.54,0,0,1-.61-.61V33.44a.54.54,0,0,1,.61-.62h2.27A.54.54,0,0,1,200.05,33.44Z" fill="#fff"></path> <path d="M211.82,56h-2.27c-.43,0-.64-.2-.64-.61V36.24a.32.32,0,0,0-.36-.36H204c-.43,0-.65-.2-.65-.61V33.44c0-.41.22-.62.65-.62h13.36a.56.56,0,0,1,.64.62v1.83c0,.41-.21.61-.64.61h-4.54c-.26,0-.4.12-.4.36V55.36A.54.54,0,0,1,211.82,56Z" fill="#fff"></path> <path d="M222.37,56h-2.59c-.34,0-.46-.2-.36-.61l6.26-21.92a.81.81,0,0,1,.86-.62h3.61a.78.78,0,0,1,.86.62l6.26,21.92c.1.41,0,.61-.39.61h-2.56a.67.67,0,0,1-.45-.12,1.09,1.09,0,0,1-.2-.49l-1.36-4.68h-7.93L223,55.36C222.92,55.77,222.71,56,222.37,56Zm5.9-19.69L225.11,47.8h6.51l-3.2-11.52Z" fill="#fff"></path> <path d="M253.11,56H241.45a.54.54,0,0,1-.61-.61V33.44a.54.54,0,0,1,.61-.62h2.27a.55.55,0,0,1,.61.62v19c0,.24.14.36.43.36h8.35c.41,0,.61.22.61.65v1.87A.54.54,0,0,1,253.11,56Z" fill="#fff"></path> </g> </g> </g> </svg> 