<svg width="954" height="220" viewBox="0 0 954 220" fill="#ffffff" xmlns="http://www.w3.org/2000/svg">
<path fill-rule="evenodd" clip-rule="evenodd" d="M56.5461 0.314171C56.5461 0.486965 56.122 0.628342 55.6036 0.628342C55.0853 0.628342 54.6612 0.769719 54.6612 0.942513C54.6612 1.11531 54.3785 1.25668 54.0329 1.25668C53.6873 1.25668 53.4046 1.39806 53.4046 1.57086C53.4046 1.74365 53.1219 1.88503 52.7763 1.88503C52.4308 1.88503 52.148 2.0264 52.148 2.1992C52.148 2.37199 51.8964 2.51337 51.5892 2.51337C51.2816 2.51337 50.8264 2.79612 50.5773 3.14171C50.3282 3.4873 49.9418 3.77005 49.7184 3.77005C49.1891 3.77005 43.352 9.60767 43.352 10.137C43.352 10.3604 43.0692 10.7469 42.7237 10.996C42.3781 11.2451 42.0954 11.7004 42.0954 12.0079C42.0954 12.3152 41.954 12.5668 41.7812 12.5668C41.6085 12.5668 41.4671 12.8496 41.4671 13.1952C41.4671 13.5408 41.3257 13.8235 41.153 13.8235C40.9802 13.8235 40.8388 14.1063 40.8388 14.4519C40.8388 14.7975 40.6974 15.0802 40.5247 15.0802C40.3519 15.0802 40.2105 15.363 40.2105 15.7086C40.2105 16.0541 40.0692 16.3369 39.8964 16.3369C39.7236 16.3369 39.5822 16.6197 39.5822 16.9652C39.5822 17.3108 39.4409 17.5936 39.2681 17.5936C39.0953 17.5936 38.9539 18.0177 38.9539 18.5361C38.9539 19.0545 38.8126 19.4786 38.6398 19.4786C38.467 19.4786 38.3257 19.9027 38.3257 20.4211C38.3257 20.9395 38.1843 21.3636 38.0115 21.3636C37.8387 21.3636 37.6974 21.7878 37.6974 22.3062C37.6974 22.8245 37.556 23.2487 37.3832 23.2487C37.2104 23.2487 37.0691 23.8142 37.0691 24.5053C37.0691 25.1965 36.9277 25.762 36.7549 25.762C36.5822 25.762 36.4408 26.3275 36.4408 27.0187C36.4408 27.7099 36.2994 28.2754 36.1266 28.2754C35.9539 28.2754 35.8125 28.8409 35.8125 29.5321C35.8125 30.2233 35.6711 30.7888 35.4984 30.7888C35.3256 30.7888 35.1842 31.3543 35.1842 32.0455C35.1842 32.7366 35.0428 33.3021 34.8701 33.3021C34.6973 33.3021 34.5559 33.8676 34.5559 34.5588C34.5559 35.25 34.4146 35.8155 34.2418 35.8155C34.069 35.8155 33.9276 36.381 33.9276 37.0722C33.9276 37.7634 33.7863 38.3289 33.6135 38.3289C33.4407 38.3289 33.2993 38.8944 33.2993 39.5856C33.2993 40.2767 33.158 40.8422 32.9852 40.8422C32.8124 40.8422 32.6711 41.4078 32.6711 42.0989C32.6711 42.7901 32.5297 43.3556 32.3569 43.3556C32.1841 43.3556 32.0428 43.7797 32.0428 44.2981C32.0428 44.8165 31.9014 45.2406 31.7286 45.2406C31.5558 45.2406 31.4145 45.8062 31.4145 46.4973C31.4145 47.1885 31.2731 47.754 31.1003 47.754C30.9275 47.754 30.7862 48.3195 30.7862 49.0107C30.7862 49.7019 30.6448 50.2674 30.472 50.2674C30.2993 50.2674 30.1579 50.8329 30.1579 51.5241C30.1579 52.2152 30.0165 52.7808 29.8437 52.7808C29.671 52.7808 29.5296 53.3463 29.5296 54.0374C29.5296 54.9614 29.6581 55.2941 30.015 55.2941C30.6087 55.2941 32.0428 53.9089 32.0428 53.3356C32.0428 53.1069 32.3255 52.7157 32.6711 52.4666C33.0166 52.2174 33.2993 51.7622 33.2993 51.4546C33.2993 51.1474 33.4407 50.8957 33.6135 50.8957C33.7863 50.8957 33.9276 50.6441 33.9276 50.3368C33.9276 50.0292 34.2104 49.574 34.5559 49.3249C34.9015 49.0757 35.1842 48.6516 35.1842 48.3824C35.1842 48.1131 35.4669 47.689 35.8125 47.4398C36.1581 47.1907 36.4408 46.7666 36.4408 46.4973C36.4408 46.2281 36.7235 45.804 37.0691 45.5548C37.4146 45.3057 37.6974 44.8815 37.6974 44.6123C37.6974 44.3431 37.9801 43.9189 38.3257 43.6698C38.6712 43.4207 38.9539 42.9965 38.9539 42.7273C38.9539 42.458 39.2367 42.0339 39.5822 41.7848C39.9278 41.5356 40.2105 41.1369 40.2105 40.8988C40.2105 40.661 40.6346 40.0697 41.153 39.5856C41.6713 39.1014 42.0954 38.5102 42.0954 38.2723C42.0954 38.0342 42.3781 37.6355 42.7237 37.3864C43.0692 37.1372 43.352 36.7131 43.352 36.4439C43.352 36.1746 43.6347 35.7505 43.9803 35.5013C44.3258 35.2522 44.6086 34.8567 44.6086 34.622C44.6086 34.3873 45.174 33.6521 45.8651 32.988C46.5562 32.3238 47.1217 31.6245 47.1217 31.4335C47.1217 30.9779 49.8293 28.2754 50.2858 28.2754C50.4802 28.2754 51.0356 27.8513 51.5197 27.3329C52.0038 26.8145 52.6262 26.3904 52.9023 26.3904C53.1787 26.3904 53.4046 26.249 53.4046 26.0762C53.4046 25.9034 53.6873 25.762 54.0329 25.762C54.3785 25.762 54.6612 25.6207 54.6612 25.4479C54.6612 25.2751 54.9439 25.1337 55.2895 25.1337C55.635 25.1337 55.9178 24.9923 55.9178 24.8195C55.9178 24.6467 56.3419 24.5053 56.8602 24.5053C57.3785 24.5053 57.8026 24.364 57.8026 24.1912C57.8026 24.0184 58.3681 23.877 59.0592 23.877C59.7503 23.877 60.3158 23.7356 60.3158 23.5628C60.3158 23.3882 61.1536 23.2487 62.2007 23.2487C63.2477 23.2487 64.0855 23.1092 64.0855 22.9345C64.0855 22.7381 65.9704 22.6203 69.1118 22.6203C72.2533 22.6203 74.1382 22.5025 74.1382 22.3062C74.1382 22.1176 75.3947 21.992 77.2796 21.992C79.1645 21.992 80.4211 21.8663 80.4211 21.6778C80.4211 21.4946 81.4681 21.3636 82.9342 21.3636C84.4003 21.3636 85.4474 21.2326 85.4474 21.0495C85.4474 20.8701 86.3898 20.7353 87.6464 20.7353C88.903 20.7353 89.8454 20.6005 89.8454 20.4211C89.8454 20.2191 92.9868 20.107 98.6414 20.107C104.296 20.107 107.437 20.2191 107.437 20.4211C107.437 20.5939 108.144 20.7353 109.008 20.7353C109.872 20.7353 110.579 20.8767 110.579 21.0495C110.579 21.2223 111.003 21.3636 111.521 21.3636C112.04 21.3636 112.464 21.505 112.464 21.6778C112.464 21.8506 112.888 21.992 113.406 21.992C113.925 21.992 114.349 22.1334 114.349 22.3062C114.349 22.4789 114.773 22.6203 115.291 22.6203C115.809 22.6203 116.234 22.7617 116.234 22.9345C116.234 23.1073 116.516 23.2487 116.862 23.2487C117.207 23.2487 117.49 23.39 117.49 23.5628C117.49 23.7356 117.773 23.877 118.118 23.877C118.464 23.877 118.747 24.0184 118.747 24.1912C118.747 24.364 119.029 24.5053 119.375 24.5053C119.721 24.5053 120.003 24.6467 120.003 24.8195C120.003 24.9923 120.286 25.1337 120.632 25.1337C120.977 25.1337 121.26 25.2751 121.26 25.4479C121.26 25.6207 121.543 25.762 121.888 25.762C122.234 25.762 122.516 25.9034 122.516 26.0762C122.516 26.249 122.742 26.3904 123.019 26.3904C123.295 26.3904 123.917 26.8145 124.401 27.3329C124.885 27.8513 125.477 28.2754 125.714 28.2754C125.953 28.2754 126.351 28.5582 126.6 28.9037C126.849 29.2493 127.248 29.5321 127.486 29.5321C127.724 29.5321 128.315 29.9562 128.799 30.4746C129.341 31.0542 129.994 31.4171 130.496 31.4171C130.945 31.4171 131.312 31.5585 131.312 31.7313C131.312 31.9041 131.595 32.0455 131.941 32.0455C132.286 32.0455 132.569 32.1868 132.569 32.3596C132.569 32.5324 133.135 32.6738 133.826 32.6738C134.517 32.6738 135.082 32.8152 135.082 32.988C135.082 33.1608 135.648 33.3021 136.339 33.3021C137.03 33.3021 137.595 33.4435 137.595 33.6163C137.595 33.791 138.433 33.9305 139.48 33.9305C140.527 33.9305 141.365 34.07 141.365 34.2447C141.365 34.4379 142.936 34.5588 145.449 34.5588C147.962 34.5588 149.533 34.4379 149.533 34.2447C149.533 34.0719 150.24 33.9305 151.104 33.9305C151.968 33.9305 152.674 33.7891 152.674 33.6163C152.674 33.4435 153.098 33.3021 153.617 33.3021C154.135 33.3021 154.559 33.1608 154.559 32.988C154.559 32.8152 154.983 32.6738 155.502 32.6738C156.02 32.6738 156.444 32.5324 156.444 32.3596C156.444 32.1868 156.727 32.0455 157.072 32.0455C157.418 32.0455 157.701 31.9041 157.701 31.7313C157.701 31.5585 157.983 31.4171 158.329 31.4171C158.675 31.4171 158.957 31.2757 158.957 31.1029C158.957 30.9301 159.209 30.7888 159.516 30.7888C159.824 30.7888 160.279 30.506 160.528 30.1604C160.777 29.8148 161.163 29.5321 161.387 29.5321C161.876 29.5321 167.753 23.7146 167.753 23.2301C167.753 22.7249 168.691 21.8798 168.946 22.1547C169.068 22.2854 168.99 22.4554 168.774 22.5324C168.558 22.6096 168.382 23.085 168.382 23.5889C168.382 24.0932 168.24 24.5053 168.067 24.5053C167.895 24.5053 167.753 24.9295 167.753 25.4479C167.753 25.9662 167.612 26.3904 167.439 26.3904C167.266 26.3904 167.125 26.6731 167.125 27.0187C167.125 27.3643 166.984 27.6471 166.811 27.6471C166.638 27.6471 166.497 27.9298 166.497 28.2754C166.497 28.621 166.355 28.9037 166.183 28.9037C166.01 28.9037 165.868 29.1865 165.868 29.5321C165.868 29.8777 165.727 30.1604 165.554 30.1604C165.381 30.1604 165.24 30.4432 165.24 30.7888C165.24 31.1344 165.099 31.4171 164.926 31.4171C164.753 31.4171 164.612 31.6688 164.612 31.976C164.612 32.2836 164.329 32.7388 163.984 32.988C163.638 33.2371 163.355 33.6358 163.355 33.8739C163.355 34.1118 162.931 34.703 162.413 35.1872C161.894 35.6713 161.47 36.2246 161.47 36.4162C161.47 36.9063 154.34 43.984 153.846 43.984C153.624 43.984 153.238 44.2667 152.988 44.6123C152.739 44.9579 152.315 45.2406 152.046 45.2406C151.777 45.2406 151.353 45.5234 151.104 45.869C150.854 46.2146 150.399 46.4973 150.092 46.4973C149.785 46.4973 149.533 46.6387 149.533 46.8115C149.533 46.9843 149.25 47.1257 148.905 47.1257C148.559 47.1257 148.276 47.267 148.276 47.4398C148.276 47.6126 147.994 47.754 147.648 47.754C147.302 47.754 147.02 47.8954 147.02 48.0682C147.02 48.241 146.737 48.3824 146.391 48.3824C146.046 48.3824 145.763 48.5237 145.763 48.6965C145.763 48.8693 145.118 49.0107 144.329 49.0107C143.022 49.0107 142.76 48.8721 141.365 47.4398C140.524 46.5759 139.755 45.869 139.658 45.869C139.56 45.869 139.48 46.7172 139.48 47.754C139.48 48.8011 139.62 49.639 139.794 49.639C139.969 49.639 140.109 50.4769 140.109 51.5241C140.109 52.5712 140.248 53.4091 140.423 53.4091C140.609 53.4091 140.737 54.5612 140.737 56.2366C140.737 57.9121 140.865 59.0642 141.051 59.0642C141.23 59.0642 141.365 60.0067 141.365 61.2634C141.365 62.5201 141.5 63.4626 141.679 63.4626C141.852 63.4626 141.993 64.1695 141.993 65.0334C141.993 65.8974 142.135 66.6043 142.308 66.6043C142.48 66.6043 142.622 67.3112 142.622 68.1751C142.622 69.0391 142.763 69.746 142.936 69.746C143.109 69.746 143.25 70.3115 143.25 71.0027C143.25 71.6939 143.391 72.2594 143.564 72.2594C143.737 72.2594 143.878 72.8249 143.878 73.516C143.878 74.2072 144.02 74.7727 144.192 74.7727C144.365 74.7727 144.507 75.1969 144.507 75.7152C144.507 76.2336 144.648 76.6578 144.821 76.6578C144.994 76.6578 145.135 77.0819 145.135 77.6003C145.135 78.1187 145.276 78.5428 145.449 78.5428C145.622 78.5428 145.763 78.9669 145.763 79.4853C145.763 80.0037 145.905 80.4278 146.077 80.4278C146.25 80.4278 146.391 80.7106 146.391 81.0562C146.391 81.4017 146.533 81.6845 146.706 81.6845C146.878 81.6845 147.02 81.9672 147.02 82.3128C147.02 82.6584 147.161 82.9412 147.334 82.9412C147.507 82.9412 147.648 83.725 147.648 84.6833C147.648 86.1143 147.51 86.5636 146.877 87.1966C146.453 87.6208 145.887 87.9679 145.62 87.9679C145.353 87.9679 145.135 88.1093 145.135 88.2821C145.135 88.4549 144.711 88.5963 144.192 88.5963C143.674 88.5963 143.25 88.7376 143.25 88.9104C143.25 89.0832 142.543 89.2246 141.679 89.2246C140.815 89.2246 140.109 89.366 140.109 89.5388C140.109 89.7301 138.687 89.8529 136.474 89.8529C132.721 89.8529 131.941 89.6136 131.941 88.4615C131.941 88.19 131.799 87.9679 131.627 87.9679C131.454 87.9679 131.312 87.7163 131.312 87.409C131.312 87.1014 131.03 86.6462 130.684 86.3971C130.339 86.1479 130.056 85.7605 130.056 85.5365C130.056 84.9648 126.087 81.0562 125.507 81.0562C125.244 81.0562 125.03 80.9148 125.03 80.742C125.03 80.5692 124.747 80.4278 124.401 80.4278C124.056 80.4278 123.773 80.2864 123.773 80.1136C123.773 79.9408 123.49 79.7995 123.145 79.7995C122.799 79.7995 122.516 79.6581 122.516 79.4853C122.516 79.3125 121.951 79.1711 121.26 79.1711C120.569 79.1711 120.003 79.0297 120.003 78.857C120.003 78.6707 118.851 78.5428 117.176 78.5428C115.501 78.5428 114.349 78.4149 114.349 78.2286C114.349 78.0558 113.783 77.9144 113.092 77.9144C112.401 77.9144 111.836 77.7731 111.836 77.6003C111.836 77.4275 111.411 77.2861 110.893 77.2861C110.375 77.2861 109.951 77.1447 109.951 76.9719C109.951 76.7991 109.668 76.6578 109.322 76.6578C108.977 76.6578 108.694 76.5164 108.694 76.3436C108.694 76.1708 108.477 76.0294 108.212 76.0294C107.587 76.0294 105.553 73.9948 105.553 73.3693C105.553 73.1045 105.411 72.8877 105.238 72.8877C105.045 72.8877 104.924 71.3168 104.924 68.8035C104.924 66.5572 104.814 64.7193 104.68 64.7193C104.545 64.7193 104.231 65.002 103.982 65.3476C103.733 65.6932 103.342 65.9759 103.113 65.9759C102.608 65.9759 101.155 67.38 101.155 67.8669C101.155 68.0589 100.448 68.9043 99.5839 69.746C98.72 70.5877 98.0132 71.4972 98.0132 71.7677C98.0132 72.0382 97.8718 72.2594 97.699 72.2594C97.5262 72.2594 97.3849 72.511 97.3849 72.8183C97.3849 73.1258 97.1021 73.5811 96.7566 73.8302C96.411 74.0794 96.1283 74.5346 96.1283 74.8422C96.1283 75.1494 95.9869 75.4011 95.8141 75.4011C95.6414 75.4011 95.5 75.8252 95.5 76.3436C95.5 76.862 95.3586 77.2861 95.1859 77.2861C95.0131 77.2861 94.8717 77.8397 94.8717 78.5167C94.8717 79.2066 94.6992 79.8171 94.479 79.9066C94.1825 80.0266 94.2016 80.1545 94.5576 80.4278C94.9135 80.7011 94.9327 80.829 94.6361 80.949C94.1709 81.1382 94.103 82.3128 94.5576 82.3128C94.7303 82.3128 94.8717 83.0197 94.8717 83.8837C94.8717 84.7477 95.0131 85.4545 95.1859 85.4545C95.3586 85.4545 95.5 85.7373 95.5 86.0829C95.5 86.4285 95.6414 86.7112 95.8141 86.7112C95.9869 86.7112 96.1283 86.994 96.1283 87.3396C96.1283 87.6852 96.2697 87.9679 96.4424 87.9679C96.6152 87.9679 96.7566 88.1822 96.7566 88.4442C96.7566 89.065 101.314 93.623 101.935 93.623C102.197 93.623 102.411 93.7644 102.411 93.9372C102.411 94.11 102.663 94.2513 102.97 94.2513C103.278 94.2513 103.733 94.5341 103.982 94.8797C104.231 95.2253 104.686 95.508 104.994 95.508C105.301 95.508 105.553 95.6494 105.553 95.8222C105.553 95.995 105.835 96.1364 106.181 96.1364C106.526 96.1364 106.809 96.2777 106.809 96.4505C106.809 96.6233 107.092 96.7647 107.437 96.7647C107.783 96.7647 108.066 96.9061 108.066 97.0789C108.066 97.2517 108.349 97.3931 108.694 97.3931C109.04 97.3931 109.322 97.5344 109.322 97.7072C109.322 97.88 109.605 98.0214 109.951 98.0214C110.296 98.0214 110.579 98.1628 110.579 98.3356C110.579 98.5084 110.862 98.6497 111.207 98.6497C111.553 98.6497 111.836 98.7911 111.836 98.9639C111.836 99.1367 112.118 99.2781 112.464 99.2781C112.809 99.2781 113.092 99.4195 113.092 99.5922C113.092 99.765 113.375 99.9064 113.72 99.9064C114.066 99.9064 114.349 100.048 114.349 100.221C114.349 100.393 114.631 100.535 114.977 100.535C115.323 100.535 115.605 100.676 115.605 100.849C115.605 101.022 115.888 101.163 116.234 101.163C116.579 101.163 116.862 101.304 116.862 101.477C116.862 101.65 117.145 101.791 117.49 101.791C117.836 101.791 118.118 101.933 118.118 102.106C118.118 102.278 118.401 102.42 118.747 102.42C119.092 102.42 119.375 102.561 119.375 102.734C119.375 102.907 119.597 103.048 119.869 103.048C120.14 103.048 120.573 103.258 120.829 103.515C121.243 103.929 121.206 104.073 120.507 104.772C120.073 105.206 119.556 105.562 119.358 105.562C119.16 105.562 118.603 105.986 118.118 106.504C117.634 107.022 117.074 107.447 116.873 107.447C116.671 107.447 115.819 108.153 114.977 109.017C114.135 109.881 113.295 110.588 113.11 110.588C112.667 110.588 102.411 120.849 102.411 121.292C102.411 121.48 101.846 122.177 101.155 122.841C100.463 123.505 99.898 124.24 99.898 124.475C99.898 124.71 99.6153 125.105 99.2697 125.354C98.9242 125.603 98.6414 126.059 98.6414 126.366C98.6414 126.673 98.5001 126.925 98.3273 126.925C98.1545 126.925 98.0132 127.208 98.0132 127.553C98.0132 127.899 97.8718 128.182 97.699 128.182C97.5262 128.182 97.3849 128.465 97.3849 128.81C97.3849 129.156 97.2435 129.439 97.0707 129.439C96.8979 129.439 96.7566 129.721 96.7566 130.067C96.7566 130.591 96.547 130.695 95.5 130.695C94.8089 130.695 94.2434 130.837 94.2434 131.009C94.2434 131.184 93.4056 131.324 92.3586 131.324C91.3115 131.324 90.4737 131.463 90.4737 131.638C90.4737 131.81 89.7669 131.952 88.903 131.952C88.0391 131.952 87.3322 132.093 87.3322 132.266C87.3322 132.439 86.7668 132.58 86.0757 132.58C85.3845 132.58 84.8191 132.722 84.8191 132.894C84.8191 133.067 84.2536 133.209 83.5625 133.209C82.8714 133.209 82.3059 133.35 82.3059 133.523C82.3059 133.696 81.8818 133.837 81.3635 133.837C80.8451 133.837 80.4211 133.978 80.4211 134.151C80.4211 134.324 79.997 134.465 79.4786 134.465C78.9603 134.465 78.5362 134.607 78.5362 134.779C78.5362 134.952 78.1121 135.094 77.5937 135.094C77.0754 135.094 76.6513 135.235 76.6513 135.408C76.6513 135.581 76.3686 135.722 76.023 135.722C75.6775 135.722 75.3947 135.863 75.3947 136.036C75.3947 136.209 75.112 136.35 74.7664 136.35C74.4209 136.35 74.1382 136.492 74.1382 136.664C74.1382 136.837 73.8554 136.979 73.5099 136.979C73.1643 136.979 72.8816 137.12 72.8816 137.293C72.8816 137.466 72.5988 137.607 72.2533 137.607C71.9077 137.607 71.625 137.748 71.625 137.921C71.625 138.094 71.3734 138.235 71.0661 138.235C70.7586 138.235 70.3034 138.518 70.0543 138.864C69.8052 139.209 69.35 139.492 69.0424 139.492C68.7352 139.492 68.4836 139.633 68.4836 139.806C68.4836 139.979 68.2008 140.12 67.8553 140.12C67.2593 140.12 67.227 139.911 67.227 136.036C67.227 133.523 67.3479 131.952 67.5411 131.952C67.7139 131.952 67.8553 131.528 67.8553 131.009C67.8553 130.491 67.9966 130.067 68.1694 130.067C68.3422 130.067 68.4836 129.71 68.4836 129.275C68.4836 128.386 71.581 125.04 72.4034 125.04C72.6664 125.04 72.8816 124.899 72.8816 124.726C72.8816 124.54 74.0335 124.412 75.7089 124.412C77.3842 124.412 78.5362 124.54 78.5362 124.726C78.5362 124.899 78.7583 125.04 79.0297 125.04C79.598 125.04 80.4211 124.305 80.4211 123.798C80.4211 123.274 83.1648 120.642 83.7114 120.642C83.975 120.642 84.1908 120.5 84.1908 120.328C84.1908 120.155 84.7562 120.013 85.4474 120.013C86.1385 120.013 86.7039 120.155 86.7039 120.328C86.7039 120.5 86.9867 120.642 87.3322 120.642C87.6778 120.642 87.9605 120.783 87.9605 120.956C87.9605 121.129 88.3846 121.27 88.903 121.27C89.4213 121.27 89.8454 121.129 89.8454 120.956C89.8454 120.783 90.3798 120.642 91.0325 120.642C91.8594 120.642 92.3573 120.451 92.6727 120.013C92.9218 119.668 93.3205 119.385 93.5586 119.385C93.7964 119.385 94.3876 118.961 94.8717 118.443C95.3558 117.924 95.9137 117.5 96.1116 117.5C96.6403 117.5 98.0132 116.036 98.0132 115.472C98.0132 115.205 98.1545 114.987 98.3273 114.987C98.8827 114.987 98.6622 113.884 98.0132 113.416C97.6676 113.167 97.3849 112.771 97.3849 112.536C97.3849 112.302 96.8194 111.567 96.1283 110.902C95.4372 110.238 94.8717 109.532 94.8717 109.334C94.8717 108.64 93.9654 108.075 92.8521 108.075C92.2351 108.075 91.7303 108.216 91.7303 108.389C91.7303 108.562 91.3062 108.703 90.7878 108.703C90.2695 108.703 89.8454 108.845 89.8454 109.017C89.8454 109.19 89.1386 109.332 88.2747 109.332C87.4108 109.332 86.7039 109.473 86.7039 109.646C86.7039 109.82 85.8661 109.96 84.8191 109.96C83.772 109.96 82.9342 110.099 82.9342 110.274C82.9342 110.469 81.2589 110.588 78.5362 110.588C75.8135 110.588 74.1382 110.469 74.1382 110.274C74.1382 110.099 73.3003 109.96 72.2533 109.96C71.2062 109.96 70.3684 109.82 70.3684 109.646C70.3684 109.473 69.9443 109.332 69.426 109.332C68.9076 109.332 68.4836 109.19 68.4836 109.017C68.4836 108.845 68.0595 108.703 67.5411 108.703C67.0228 108.703 66.5987 108.562 66.5987 108.389C66.5987 108.216 66.316 108.075 65.9704 108.075C65.6248 108.075 65.3421 107.933 65.3421 107.761C65.3421 107.588 65.1253 107.447 64.8605 107.447C64.2724 107.447 62.2007 105.429 62.2007 104.856C62.2007 104.629 61.9179 104.24 61.5724 103.991C61.2268 103.742 60.9441 103.317 60.9441 103.048C60.9441 102.779 60.6613 102.355 60.3158 102.106C59.9702 101.856 59.6875 101.401 59.6875 101.094C59.6875 100.786 59.5461 100.535 59.3734 100.535C59.2006 100.535 59.0592 100.252 59.0592 99.9064C59.0592 99.5608 58.9178 99.2781 58.7451 99.2781C58.5723 99.2781 58.4309 98.8539 58.4309 98.3356C58.4309 97.8172 58.2896 97.3931 58.1168 97.3931C57.944 97.3931 57.8026 96.9689 57.8026 96.4505C57.8026 95.9322 57.6613 95.508 57.4885 95.508C57.3157 95.508 57.1743 94.9425 57.1743 94.2513C57.1743 93.5602 57.033 92.9947 56.8602 92.9947C56.6623 92.9947 56.5461 90.9001 56.5461 87.3396C56.5461 83.7791 56.6623 81.6845 56.8602 81.6845C57.033 81.6845 57.1743 80.9776 57.1743 80.1136C57.1743 79.2497 57.3157 78.5428 57.4885 78.5428C57.6613 78.5428 57.8026 77.8359 57.8026 76.9719C57.8026 76.108 57.7219 75.4011 57.6233 75.4011C57.1633 75.4011 56.5461 76.3788 56.5461 77.1067C56.5461 77.5509 56.4047 77.9144 56.2319 77.9144C56.0591 77.9144 55.9178 78.1972 55.9178 78.5428C55.9178 78.8884 55.7764 79.1711 55.6036 79.1711C55.4308 79.1711 55.2895 79.5953 55.2895 80.1136C55.2895 80.632 55.1481 81.0562 54.9753 81.0562C54.8025 81.0562 54.6612 81.4803 54.6612 81.9987C54.6612 82.517 54.5198 82.9412 54.347 82.9412C54.1743 82.9412 54.0329 83.3653 54.0329 83.8837C54.0329 84.4021 53.8915 84.8262 53.7187 84.8262C53.546 84.8262 53.4046 85.3917 53.4046 86.0829C53.4046 86.7741 53.2632 87.3396 53.0905 87.3396C52.9073 87.3396 52.7763 88.3867 52.7763 89.8529C52.7763 91.3192 52.6453 92.3663 52.4622 92.3663C52.2718 92.3663 52.148 93.7276 52.148 95.8222C52.148 97.9168 52.2718 99.2781 52.4622 99.2781C52.6368 99.2781 52.7763 100.116 52.7763 101.163C52.7763 102.21 52.9158 103.048 53.0905 103.048C53.2632 103.048 53.4046 103.614 53.4046 104.305C53.4046 104.996 53.546 105.562 53.7187 105.562C53.8915 105.562 54.0329 106.127 54.0329 106.818C54.0329 107.509 54.1743 108.075 54.347 108.075C54.5198 108.075 54.6612 108.358 54.6612 108.703C54.6612 109.049 54.8025 109.332 54.9753 109.332C55.1481 109.332 55.2895 109.756 55.2895 110.274C55.2895 111.112 55.1849 111.217 54.347 111.217C53.8287 111.217 53.4046 111.358 53.4046 111.531C53.4046 111.704 53.1219 111.845 52.7763 111.845C52.4308 111.845 52.148 111.986 52.148 112.159C52.148 112.332 51.8653 112.473 51.5197 112.473C51.1742 112.473 50.8914 112.615 50.8914 112.787C50.8914 112.96 50.6087 113.102 50.2632 113.102C49.9176 113.102 49.6349 113.243 49.6349 113.416C49.6349 113.589 49.3521 113.73 49.0066 113.73C48.661 113.73 48.3783 113.871 48.3783 114.044C48.3783 114.217 48.0956 114.358 47.75 114.358C47.4044 114.358 47.1217 114.5 47.1217 114.672C47.1217 114.845 46.839 114.987 46.4934 114.987C46.1479 114.987 45.8651 115.128 45.8651 115.301C45.8651 115.474 45.5824 115.615 45.2368 115.615C44.8913 115.615 44.6086 115.756 44.6086 115.929C44.6086 116.102 44.3569 116.243 44.0497 116.243C43.7421 116.243 43.2869 116.526 43.0378 116.872C42.7887 117.217 42.3335 117.5 42.026 117.5C41.7187 117.5 41.4671 117.641 41.4671 117.814C41.4671 117.987 41.1844 118.128 40.8388 118.128C40.4933 118.128 40.2105 118.27 40.2105 118.443C40.2105 118.615 39.9589 118.757 39.6517 118.757C39.3441 118.757 38.8889 119.039 38.6398 119.385C38.3907 119.731 37.9666 120.013 37.6974 120.013C37.4281 120.013 37.0041 120.296 36.7549 120.642C36.5058 120.987 36.0506 121.27 35.7431 121.27C35.4358 121.27 35.1842 121.411 35.1842 121.584C35.1842 121.757 34.9326 121.898 34.6253 121.898C34.3178 121.898 33.8626 122.181 33.6135 122.527C33.3644 122.872 32.9657 123.155 32.7276 123.155C32.4898 123.155 31.8986 123.579 31.4145 124.098C30.9304 124.616 30.3649 125.04 30.1579 125.04C29.9509 125.04 29.3854 125.464 28.9013 125.983C28.4172 126.501 27.8643 126.925 27.6727 126.925C27.2181 126.925 19.477 134.667 19.477 135.122C19.477 135.313 19.0529 135.866 18.5345 136.35C18.0162 136.834 17.5921 137.426 17.5921 137.664C17.5921 137.902 17.3094 138.3 16.9638 138.549C16.6183 138.799 16.3355 139.223 16.3355 139.492C16.3355 139.761 16.0528 140.185 15.7072 140.434C15.3617 140.684 15.0789 141.139 15.0789 141.446C15.0789 141.754 14.9376 142.005 14.7648 142.005C14.592 142.005 14.4507 142.257 14.4507 142.564C14.4507 142.872 14.1679 143.327 13.8224 143.576C13.4768 143.825 13.1941 144.281 13.1941 144.588C13.1941 144.895 13.0527 145.147 12.8799 145.147C12.7072 145.147 12.5658 145.43 12.5658 145.775C12.5658 146.121 12.4244 146.404 12.2516 146.404C12.0789 146.404 11.9375 146.687 11.9375 147.032C11.9375 147.378 11.7961 147.66 11.6234 147.66C11.4506 147.66 11.3092 147.943 11.3092 148.289C11.3092 148.634 11.1678 148.917 10.9951 148.917C10.8223 148.917 10.6809 149.2 10.6809 149.545C10.6809 149.891 10.5396 150.174 10.3668 150.174C10.194 150.174 10.0526 150.457 10.0526 150.802C10.0526 151.148 9.91127 151.43 9.73849 151.43C9.56571 151.43 9.42434 151.713 9.42434 152.059C9.42434 152.404 9.28298 152.687 9.1102 152.687C8.93742 152.687 8.79605 153.111 8.79605 153.63C8.79605 154.148 8.65469 154.572 8.48191 154.572C8.30913 154.572 8.16776 154.855 8.16776 155.201C8.16776 155.546 8.0264 155.829 7.85362 155.829C7.68084 155.829 7.53947 156.112 7.53947 156.457C7.53947 156.803 7.39811 157.086 7.22533 157.086C7.05255 157.086 6.91118 157.51 6.91118 158.028C6.91118 158.546 6.76982 158.971 6.59704 158.971C6.42426 158.971 6.28289 159.395 6.28289 159.913C6.28289 160.431 6.14153 160.856 5.96875 160.856C5.79597 160.856 5.65461 161.28 5.65461 161.798C5.65461 162.317 5.51324 162.741 5.34046 162.741C5.16768 162.741 5.02632 163.165 5.02632 163.683C5.02632 164.202 4.88495 164.626 4.71217 164.626C4.53939 164.626 4.39803 165.05 4.39803 165.568C4.39803 166.087 4.25666 166.511 4.08388 166.511C3.9111 166.511 3.76974 167.218 3.76974 168.082C3.76974 168.946 3.62837 169.652 3.45559 169.652C3.28281 169.652 3.14145 170.218 3.14145 170.909C3.14145 171.6 3.00008 172.166 2.8273 172.166C2.65452 172.166 2.51316 172.731 2.51316 173.422C2.51316 174.114 2.37179 174.679 2.19901 174.679C2.02623 174.679 1.88487 175.245 1.88487 175.936C1.88487 176.627 1.7435 177.193 1.57072 177.193C1.39794 177.193 1.25658 177.899 1.25658 178.763C1.25658 179.627 1.11521 180.334 0.942434 180.334C0.769655 180.334 0.628289 181.041 0.628289 181.905C0.628289 182.769 0.486924 183.476 0.314145 183.476C0.117804 183.476 0 185.361 0 188.503C0 191.644 0.117804 193.529 0.314145 193.529C0.486924 193.529 0.628289 194.095 0.628289 194.786C0.628289 195.477 0.769655 196.043 0.942434 196.043C1.11521 196.043 1.25658 196.326 1.25658 196.671C1.25658 197.017 1.39794 197.299 1.57072 197.299C1.7435 197.299 1.88487 197.724 1.88487 198.242C1.88487 198.76 2.02623 199.184 2.19901 199.184C2.37179 199.184 2.51316 199.467 2.51316 199.813C2.51316 200.158 2.65452 200.441 2.8273 200.441C3.00008 200.441 3.14145 200.724 3.14145 201.07C3.14145 201.415 3.28281 201.698 3.45559 201.698C3.62837 201.698 3.76974 201.95 3.76974 202.257C3.76974 202.564 4.05247 203.02 4.39803 203.269C4.74359 203.518 5.02632 203.917 5.02632 204.155C5.02632 204.393 5.45041 204.984 5.96875 205.468C6.48709 205.952 6.91118 206.543 6.91118 206.781C6.91118 207.019 7.19391 207.418 7.53947 207.667C7.88503 207.916 8.16776 208.312 8.16776 208.546C8.16776 208.781 8.73322 209.516 9.42434 210.18C10.1155 210.845 10.6809 211.554 10.6809 211.758C10.6809 211.961 11.105 212.524 11.6234 213.008C12.1417 213.492 12.5658 214.055 12.5658 214.258C12.5658 214.462 13.1312 215.171 13.8224 215.836C14.5135 216.5 15.0789 217.207 15.0789 217.406C15.0789 217.606 15.6444 218.313 16.3355 218.977C17.0266 219.641 17.5921 220.348 17.5921 220.548C17.5921 220.748 18.1576 221.455 18.8487 222.119C19.5398 222.783 20.1053 223.493 20.1053 223.696C20.1053 223.9 20.5294 224.462 21.0477 224.947C21.566 225.431 21.9901 225.993 21.9901 226.197C21.9901 226.4 22.5556 227.11 23.2467 227.774C23.9378 228.438 24.5033 229.145 24.5033 229.345C24.5033 229.545 25.0687 230.252 25.7599 230.916C26.451 231.58 27.0164 232.28 27.0164 232.473C27.0164 232.926 29.0889 235 29.5415 235C30.2223 235 30.7862 234.085 30.7862 232.98C30.7862 232.363 30.9275 231.858 31.1003 231.858C31.2731 231.858 31.4145 231.293 31.4145 230.602C31.4145 229.91 31.5558 229.345 31.7286 229.345C31.9014 229.345 32.0428 228.779 32.0428 228.088C32.0428 227.397 32.1841 226.832 32.3569 226.832C32.5297 226.832 32.6711 226.266 32.6711 225.575C32.6711 224.884 32.8124 224.318 32.9852 224.318C33.158 224.318 33.2993 223.894 33.2993 223.376C33.2993 222.857 33.4407 222.433 33.6135 222.433C33.7863 222.433 33.9276 221.868 33.9276 221.176C33.9276 220.485 34.069 219.92 34.2418 219.92C34.4146 219.92 34.5559 219.354 34.5559 218.663C34.5559 217.972 34.6973 217.406 34.8701 217.406C35.0428 217.406 35.1842 216.841 35.1842 216.15C35.1842 215.459 35.3256 214.893 35.4984 214.893C35.6711 214.893 35.8125 214.328 35.8125 213.636C35.8125 212.945 35.9539 212.38 36.1266 212.38C36.2994 212.38 36.4408 211.956 36.4408 211.437C36.4408 210.919 36.5822 210.495 36.7549 210.495C36.9277 210.495 37.0691 209.929 37.0691 209.238C37.0691 208.547 37.2104 207.981 37.3832 207.981C37.556 207.981 37.6974 207.416 37.6974 206.725C37.6974 206.033 37.8387 205.468 38.0115 205.468C38.1843 205.468 38.3257 204.902 38.3257 204.211C38.3257 203.52 38.467 202.955 38.6398 202.955C38.8126 202.955 38.9539 202.389 38.9539 201.698C38.9539 201.007 39.0953 200.441 39.2681 200.441C39.4409 200.441 39.5822 200.017 39.5822 199.499C39.5822 198.98 39.7236 198.556 39.8964 198.556C40.0692 198.556 40.2105 197.991 40.2105 197.299C40.2105 196.608 40.3519 196.043 40.5247 196.043C40.6974 196.043 40.8388 195.477 40.8388 194.786C40.8388 194.095 40.9802 193.529 41.153 193.529C41.3257 193.529 41.4671 192.964 41.4671 192.273C41.4671 191.582 41.6085 191.016 41.7812 191.016C41.954 191.016 42.0954 190.451 42.0954 189.759C42.0954 189.068 42.2368 188.503 42.4095 188.503C42.5823 188.503 42.7237 187.937 42.7237 187.246C42.7237 186.555 42.865 185.989 43.0378 185.989C43.2106 185.989 43.352 185.424 43.352 184.733C43.352 184.041 43.4933 183.476 43.6661 183.476C43.8389 183.476 43.9803 182.91 43.9803 182.219C43.9803 181.528 44.1216 180.963 44.2944 180.963C44.4672 180.963 44.6086 180.538 44.6086 180.02C44.6086 179.502 44.7499 179.078 44.9227 179.078C45.0955 179.078 45.2368 178.512 45.2368 177.821C45.2368 177.13 45.3782 176.564 45.551 176.564C45.7238 176.564 45.8651 175.999 45.8651 175.307C45.8651 174.616 46.0065 174.051 46.1793 174.051C46.3521 174.051 46.4934 173.485 46.4934 172.794C46.4934 172.103 46.6348 171.537 46.8076 171.537C46.9803 171.537 47.1217 170.972 47.1217 170.281C47.1217 169.59 47.2631 169.024 47.4359 169.024C47.6086 169.024 47.75 168.6 47.75 168.082C47.75 167.563 47.8914 167.139 48.0641 167.139C48.2369 167.139 48.3783 166.715 48.3783 166.197C48.3783 165.678 48.5197 165.254 48.6924 165.254C48.8652 165.254 49.0066 165.002 49.0066 164.695C49.0066 164.388 49.2893 163.932 49.6349 163.683C49.9804 163.434 50.2632 163.01 50.2632 162.741C50.2632 162.471 50.5459 162.047 50.8914 161.798C51.237 161.549 51.5197 161.161 51.5197 160.935C51.5197 160.434 54.1915 157.714 54.6838 157.714C54.8783 157.714 55.4337 157.29 55.9178 156.771C56.4019 156.253 57.0242 155.829 57.3003 155.829C57.5768 155.829 57.8026 155.688 57.8026 155.515C57.8026 155.342 58.0854 155.201 58.4309 155.201C58.7765 155.201 59.0592 155.059 59.0592 154.886C59.0592 154.714 59.3419 154.572 59.6875 154.572C60.0331 154.572 60.3158 154.431 60.3158 154.258C60.3158 154.085 60.7399 153.944 61.2582 153.944C61.7766 153.944 62.2007 153.802 62.2007 153.63C62.2007 153.457 62.7661 153.316 63.4572 153.316C64.1484 153.316 64.7138 153.174 64.7138 153.001C64.7138 152.795 71.2062 152.687 83.5625 152.687C95.9188 152.687 102.411 152.579 102.411 152.373C102.411 152.184 103.668 152.059 105.553 152.059C107.437 152.059 108.694 151.933 108.694 151.745C108.694 151.565 109.637 151.43 110.893 151.43C112.15 151.43 113.092 151.296 113.092 151.116C113.092 150.942 113.93 150.802 114.977 150.802C116.024 150.802 116.862 150.663 116.862 150.488C116.862 150.315 117.569 150.174 118.433 150.174C119.296 150.174 120.003 150.032 120.003 149.86C120.003 149.687 120.569 149.545 121.26 149.545C121.951 149.545 122.516 149.404 122.516 149.231C122.516 149.058 123.082 148.917 123.773 148.917C124.464 148.917 125.03 148.776 125.03 148.603C125.03 148.43 125.595 148.289 126.286 148.289C126.977 148.289 127.543 148.147 127.543 147.975C127.543 147.802 127.967 147.66 128.485 147.66C129.004 147.66 129.428 147.519 129.428 147.346C129.428 147.173 129.852 147.032 130.37 147.032C130.888 147.032 131.312 146.891 131.312 146.718C131.312 146.545 131.737 146.404 132.255 146.404C132.773 146.404 133.197 146.262 133.197 146.09C133.197 145.917 133.621 145.775 134.14 145.775C134.658 145.775 135.082 145.634 135.082 145.461C135.082 145.288 135.506 145.147 136.025 145.147C136.543 145.147 136.967 145.006 136.967 144.833C136.967 144.66 137.391 144.519 137.91 144.519C138.428 144.519 138.852 144.377 138.852 144.205C138.852 144.032 139.135 143.89 139.48 143.89C139.826 143.89 140.109 143.749 140.109 143.576C140.109 143.403 140.391 143.262 140.737 143.262C141.082 143.262 141.365 143.121 141.365 142.948C141.365 142.775 141.789 142.634 142.308 142.634C142.826 142.634 143.25 142.492 143.25 142.32C143.25 142.147 143.533 142.005 143.878 142.005C144.224 142.005 144.507 141.864 144.507 141.691C144.507 141.518 144.789 141.377 145.135 141.377C145.48 141.377 145.763 141.236 145.763 141.063C145.763 140.89 146.046 140.749 146.391 140.749C146.737 140.749 147.02 140.607 147.02 140.434C147.02 140.262 147.302 140.12 147.648 140.12C147.994 140.12 148.276 139.979 148.276 139.806C148.276 139.633 148.528 139.492 148.835 139.492C149.143 139.492 149.598 139.209 149.847 138.864C150.096 138.518 150.551 138.235 150.859 138.235C151.166 138.235 151.418 138.094 151.418 137.921C151.418 137.748 151.7 137.607 152.046 137.607C152.392 137.607 152.674 137.466 152.674 137.293C152.674 137.12 152.926 136.979 153.233 136.979C153.541 136.979 153.996 136.696 154.245 136.35C154.494 136.005 154.918 135.722 155.187 135.722C155.457 135.722 155.881 135.439 156.13 135.094C156.379 134.748 156.803 134.465 157.072 134.465C157.342 134.465 157.766 134.182 158.015 133.837C158.264 133.491 158.663 133.209 158.901 133.209C159.138 133.209 159.73 132.784 160.214 132.266C160.698 131.748 161.259 131.324 161.46 131.324C161.661 131.324 162.514 130.617 163.355 129.753C164.197 128.889 165.038 128.182 165.223 128.182C165.409 128.182 167.044 126.699 168.857 124.887C170.669 123.074 172.151 121.439 172.151 121.253C172.151 121.067 172.858 120.227 173.722 119.385C174.586 118.543 175.293 117.69 175.293 117.489C175.293 117.288 175.717 116.727 176.235 116.243C176.754 115.759 177.178 115.168 177.178 114.93C177.178 114.692 177.46 114.293 177.806 114.044C178.151 113.795 178.434 113.371 178.434 113.102C178.434 112.832 178.717 112.408 179.062 112.159C179.408 111.91 179.691 111.486 179.691 111.217C179.691 110.947 179.974 110.523 180.319 110.274C180.665 110.025 180.947 109.57 180.947 109.262C180.947 108.955 181.089 108.703 181.262 108.703C181.434 108.703 181.576 108.42 181.576 108.075C181.576 107.729 181.717 107.447 181.89 107.447C182.063 107.447 182.204 107.164 182.204 106.818C182.204 106.473 182.345 106.19 182.518 106.19C182.691 106.19 182.832 105.907 182.832 105.562C182.832 105.216 182.974 104.933 183.146 104.933C183.319 104.933 183.461 104.65 183.461 104.305C183.461 103.959 183.602 103.676 183.775 103.676C183.947 103.676 184.089 103.394 184.089 103.048C184.089 102.703 184.23 102.42 184.403 102.42C184.576 102.42 184.717 102.137 184.717 101.791C184.717 101.446 184.858 101.163 185.031 101.163C185.204 101.163 185.345 100.739 185.345 100.221C185.345 99.7022 185.487 99.2781 185.66 99.2781C185.832 99.2781 185.974 98.9953 185.974 98.6497C185.974 98.3041 186.115 98.0214 186.288 98.0214C186.461 98.0214 186.602 97.5973 186.602 97.0789C186.602 96.5605 186.743 96.1364 186.916 96.1364C187.089 96.1364 187.23 95.7122 187.23 95.1939C187.23 94.6755 187.372 94.2513 187.544 94.2513C187.717 94.2513 187.859 93.8272 187.859 93.3088C187.859 92.7904 188 92.3663 188.173 92.3663C188.345 92.3663 188.487 91.8008 188.487 91.1096C188.487 90.4185 188.628 89.8529 188.801 89.8529C188.974 89.8529 189.115 89.2874 189.115 88.5963C189.115 87.9051 189.256 87.3396 189.429 87.3396C189.602 87.3396 189.743 86.6327 189.743 85.7687C189.743 84.9047 189.885 84.1979 190.058 84.1979C190.237 84.1979 190.372 83.2554 190.372 81.9987C190.372 80.742 190.506 79.7995 190.686 79.7995C190.89 79.7995 191 75.4011 191 67.2326C191 59.0642 190.89 54.6658 190.686 54.6658C190.511 54.6658 190.372 53.8279 190.372 52.7808C190.372 51.7336 190.232 50.8957 190.058 50.8957C189.885 50.8957 189.743 50.3302 189.743 49.639C189.743 48.9479 189.602 48.3824 189.429 48.3824C189.256 48.3824 189.115 47.8168 189.115 47.1257C189.115 46.4345 188.974 45.869 188.801 45.869C188.628 45.869 188.487 45.4449 188.487 44.9265C188.487 44.4081 188.345 43.984 188.173 43.984C188 43.984 187.859 43.5598 187.859 43.0414C187.859 42.5231 187.717 42.0989 187.544 42.0989C187.372 42.0989 187.23 41.6748 187.23 41.1564C187.23 40.638 187.089 40.2139 186.916 40.2139C186.743 40.2139 186.602 39.7898 186.602 39.2714C186.602 38.753 186.461 38.3289 186.288 38.3289C186.115 38.3289 185.974 38.0461 185.974 37.7005C185.974 37.3549 185.832 37.0722 185.66 37.0722C185.487 37.0722 185.345 36.7894 185.345 36.4439C185.345 36.0983 185.204 35.8155 185.031 35.8155C184.858 35.8155 184.717 35.5328 184.717 35.1872C184.717 34.8416 184.576 34.5588 184.403 34.5588C184.23 34.5588 184.089 34.2761 184.089 33.9305C184.089 33.5849 183.947 33.3021 183.775 33.3021C183.602 33.3021 183.461 33.0505 183.461 32.7432C183.461 32.4357 183.178 31.9804 182.832 31.7313C182.487 31.4821 182.204 31.058 182.204 30.7888C182.204 30.5195 181.921 30.0954 181.576 29.8463C181.23 29.5971 180.947 29.1984 180.947 28.9603C180.947 28.7225 180.523 28.1312 180.005 27.6471C179.487 27.1629 179.062 26.6021 179.062 26.4011C179.062 26.2 178.356 25.347 177.492 24.5053C176.628 23.6637 175.921 22.822 175.921 22.6348C175.921 22.1912 171.952 18.2219 171.509 18.2219C171.321 18.2219 170.48 17.515 169.638 16.6511C168.797 15.7871 167.944 15.0802 167.743 15.0802C167.542 15.0802 166.981 14.6561 166.497 14.1377C166.013 13.6193 165.421 13.1952 165.184 13.1952C164.945 13.1952 164.547 12.9124 164.298 12.5668C164.049 12.2213 163.593 11.9385 163.286 11.9385C162.979 11.9385 162.727 11.7971 162.727 11.6243C162.727 11.4515 162.475 11.3102 162.168 11.3102C161.861 11.3102 161.405 11.0274 161.156 10.6818C160.907 10.3362 160.452 10.0535 160.144 10.0535C159.837 10.0535 159.586 9.9121 159.586 9.73931C159.586 9.56651 159.303 9.42513 158.957 9.42513C158.612 9.42513 158.329 9.28376 158.329 9.11096C158.329 8.93817 158.046 8.79679 157.701 8.79679C157.355 8.79679 157.072 8.65541 157.072 8.48262C157.072 8.30983 156.79 8.16845 156.444 8.16845C156.099 8.16845 155.816 8.02707 155.816 7.85428C155.816 7.68148 155.533 7.54011 155.187 7.54011C154.842 7.54011 154.559 7.39873 154.559 7.22594C154.559 7.05314 154.276 6.91176 153.931 6.91176C153.585 6.91176 153.303 6.77039 153.303 6.59759C153.303 6.4248 152.879 6.28342 152.36 6.28342C151.842 6.28342 151.418 6.14205 151.418 5.96925C151.418 5.79646 150.994 5.65508 150.475 5.65508C149.957 5.65508 149.533 5.5137 149.533 5.34091C149.533 5.16812 149.25 5.02674 148.905 5.02674C148.559 5.02674 148.276 4.88536 148.276 4.71257C148.276 4.53977 147.711 4.3984 147.02 4.3984C146.329 4.3984 145.763 4.25702 145.763 4.08422C145.763 3.91143 145.339 3.77005 144.821 3.77005C144.302 3.77005 143.878 3.62868 143.878 3.45588C143.878 3.28309 143.313 3.14171 142.622 3.14171C141.931 3.14171 141.365 3.00033 141.365 2.82754C141.365 2.65475 140.8 2.51337 140.109 2.51337C139.417 2.51337 138.852 2.37199 138.852 2.1992C138.852 2.0264 138.145 1.88503 137.281 1.88503C136.417 1.88503 135.711 1.74365 135.711 1.57086C135.711 1.39146 134.768 1.25668 133.512 1.25668C132.255 1.25668 131.312 1.12191 131.312 0.942513C131.312 0.759352 130.265 0.628342 128.799 0.628342C127.333 0.628342 126.286 0.497333 126.286 0.314171C126.286 0.106504 114.453 0 91.4161 0C68.3789 0 56.5461 0.106504 56.5461 0.314171ZM128.799 61.2634C128.799 62.5201 128.934 63.4626 129.113 63.4626C129.286 63.4626 129.428 64.0281 129.428 64.7193C129.428 65.7664 129.532 65.9759 130.056 65.9759C130.401 65.9759 130.684 66.1173 130.684 66.2901C130.684 66.4695 131.627 66.6043 132.883 66.6043C134.14 66.6043 135.082 66.4695 135.082 66.2901C135.082 66.1173 134.941 65.9759 134.768 65.9759C134.595 65.9759 134.454 65.7548 134.454 65.4843C134.454 65.2138 133.747 64.3042 132.883 63.4626C132.019 62.6209 131.312 61.7774 131.312 61.5876C131.312 61.2439 129.286 59.0642 128.967 59.0642C128.875 59.0642 128.799 60.0538 128.799 61.2634Z" fill="white"/>
<path d="M292.784 25.1C303.384 25.1 311.117 27.1333 315.984 31.2C320.851 35.2667 323.284 41.5333 323.284 50C323.284 58.4667 320.784 64.6667 315.784 68.6C310.851 72.5333 303.251 74.5 292.984 74.5H280.584V95H268.784V25.1H292.784ZM294.284 63.8C300.817 63.8 305.251 62.5667 307.584 60.1C309.984 57.5667 311.184 53.9 311.184 49.1C311.184 44.2333 309.684 40.8 306.684 38.8C303.684 36.8 298.984 35.8 292.584 35.8H280.584V63.8H294.284ZM360.243 34.3C356.843 34.3 354.043 35 351.843 36.4C349.643 37.8 348.543 39.9333 348.543 42.8C348.543 45.6 349.643 47.7667 351.843 49.3C354.043 50.7667 358.71 52.3667 365.843 54.1C373.043 55.8333 378.443 58.2667 382.043 61.4C385.71 64.5333 387.543 69.1667 387.543 75.3C387.543 81.3667 385.243 86.3 380.643 90.1C376.043 93.9 370.01 95.8 362.543 95.8C351.61 95.8 341.91 92.0333 333.443 84.5L340.843 75.6C347.91 81.7333 355.243 84.8 362.843 84.8C366.643 84.8 369.643 84 371.843 82.4C374.11 80.7333 375.243 78.5667 375.243 75.9C375.243 73.1667 374.177 71.0667 372.043 69.6C369.977 68.0667 366.377 66.7 361.243 65.5C356.11 64.2333 352.21 63.1 349.543 62.1C346.877 61.0333 344.51 59.6667 342.443 58C338.31 54.8667 336.243 50.0667 336.243 43.6C336.243 37.1333 338.577 32.1667 343.243 28.7C347.977 25.1667 353.81 23.4 360.743 23.4C365.21 23.4 369.643 24.1333 374.043 25.6C378.443 27.0667 382.243 29.1333 385.443 31.8L379.143 40.7C377.077 38.8333 374.277 37.3 370.743 36.1C367.21 34.9 363.71 34.3 360.243 34.3ZM437.932 95.6L436.432 95.7C426.032 95.7 417.298 92.2667 410.232 85.4C403.165 78.4667 399.632 69.8667 399.632 59.6C399.632 49.2667 403.165 40.6667 410.232 33.8C417.298 26.8667 426.032 23.4 436.432 23.4C446.832 23.4 455.565 26.8667 462.632 33.8C469.698 40.6667 473.232 49.2333 473.232 59.5C473.232 67.3 471.132 74.2333 466.932 80.3C462.732 86.3 457.132 90.6333 450.132 93.3C452.398 96.3 455.265 97.8 458.732 97.8C461.265 97.8 463.732 97.1333 466.132 95.8C468.598 94.4667 470.465 92.7333 471.732 90.6L478.432 99.9C472.632 106.033 465.998 109.1 458.532 109.1C454.265 109.1 450.165 107.9 446.232 105.5C442.298 103.1 439.532 99.8 437.932 95.6ZM453.932 41.6C449.198 36.6667 443.365 34.2 436.432 34.2C429.498 34.2 423.632 36.6667 418.832 41.6C414.098 46.5333 411.732 52.5333 411.732 59.6C411.732 66.6 414.098 72.5667 418.832 77.5C423.632 82.4333 429.498 84.9 436.432 84.9C443.365 84.9 449.198 82.4333 453.932 77.5C458.732 72.5667 461.132 66.6 461.132 59.6C461.132 52.5333 458.732 46.5333 453.932 41.6ZM505.816 79C509.016 82.7333 513.349 84.6 518.816 84.6C524.283 84.6 528.616 82.7333 531.816 79C535.016 75.2667 536.616 70.2 536.616 63.8V25.1H548.416V64.3C548.416 74.3667 545.649 82.1333 540.116 87.6C534.583 93 527.483 95.7 518.816 95.7C510.149 95.7 503.049 93 497.516 87.6C491.983 82.1333 489.216 74.3667 489.216 64.3V25.1H501.016V63.8C501.016 70.2 502.616 75.2667 505.816 79ZM577.114 79.1L570.114 95H557.514L588.314 25.1H600.914L631.714 95H619.114L612.114 79.1H577.114ZM607.314 68.2L594.614 39.4L581.914 68.2H607.314ZM699.232 47.8C699.232 59.3333 694.199 66.6 684.132 69.6L702.432 95H687.432L670.732 71.5H655.232V95H643.432V25.1H669.432C680.099 25.1 687.732 26.9 692.332 30.5C696.932 34.1 699.232 39.8667 699.232 47.8ZM669.932 60.8C676.599 60.8 681.132 59.7667 683.532 57.7C685.932 55.6333 687.132 52.3333 687.132 47.8C687.132 43.2 685.899 40.0667 683.432 38.4C680.966 36.6667 676.566 35.8 670.232 35.8H655.232V60.8H669.932ZM767.286 25.1V36.2H729.986V54.7H763.486V65.2H729.986V83.9H768.486V95H718.186V25.1H767.286ZM335.547 194.3C339.614 194.3 343.114 193.633 346.047 192.3C348.981 190.9 352.047 188.7 355.247 185.7L362.847 193.5C355.447 201.7 346.447 205.8 335.847 205.8C325.314 205.8 316.547 202.4 309.547 195.6C302.614 188.8 299.147 180.2 299.147 169.8C299.147 159.4 302.681 150.733 309.747 143.8C316.881 136.867 325.847 133.4 336.647 133.4C347.514 133.4 356.581 137.4 363.847 145.4L356.347 153.6C353.014 150.4 349.847 148.167 346.847 146.9C343.914 145.633 340.447 145 336.447 145C329.381 145 323.447 147.3 318.647 151.9C313.847 156.433 311.447 162.267 311.447 169.4C311.447 176.467 313.814 182.4 318.547 187.2C323.347 191.933 329.014 194.3 335.547 194.3ZM389.18 189.1L382.18 205H369.58L400.38 135.1H412.98L443.78 205H431.18L424.18 189.1H389.18ZM419.38 178.2L406.68 149.4L393.98 178.2H419.38ZM479.499 135.1C490.099 135.1 497.832 137.133 502.699 141.2C507.565 145.267 509.999 151.533 509.999 160C509.999 168.467 507.499 174.667 502.499 178.6C497.565 182.533 489.965 184.5 479.699 184.5H467.299V205H455.499V135.1H479.499ZM480.999 173.8C487.532 173.8 491.965 172.567 494.299 170.1C496.699 167.567 497.899 163.9 497.899 159.1C497.899 154.233 496.399 150.8 493.399 148.8C490.399 146.8 485.699 145.8 479.299 145.8H467.299V173.8H480.999ZM525.858 135.1H537.658V205H525.858V135.1ZM585.411 145.9V205H573.611V145.9H552.411V135.1H606.611V145.9H585.411ZM625.793 189.1L618.793 205H606.193L636.993 135.1H649.593L680.393 205H667.793L660.793 189.1H625.793ZM655.993 178.2L643.293 149.4L630.593 178.2H655.993ZM692.112 205V135.1H703.912V193.8H735.812V205H692.112Z" fill="white"/>
</svg>
