<svg width="517" height="517" viewBox="0 0 517 517" fill="none" xmlns="http://www.w3.org/2000/svg">
<path d="M168.448 412.107C168.932 412.312 169.394 412.503 169.88 412.702C177.182 415.701 239.097 439.359 303.293 407.81C371.651 374.215 409.619 300.408 441.952 241.429C474.285 182.449 461.598 119.137 412.949 87.1558C364.299 55.1742 327.468 94.3938 256.649 91.2918C185.83 88.1898 167.446 76.609 106.326 112.623C45.2065 148.637 28.7865 242.99 70.7669 316.766C109.982 385.682 161.793 409.296 168.448 412.107Z" fill="url(#paint0_linear)"/>
<path d="M170.449 411.315C169.966 411.116 169.509 410.927 169.032 410.726L168.448 412.107L169.032 410.726C162.566 407.994 111.07 384.562 72.0707 316.024C30.368 242.736 46.8773 149.394 107.088 113.916C137.511 95.9889 157.156 89.9875 177.937 88.7865C188.373 88.1833 199.133 88.7885 211.766 89.7474C214.357 89.9441 217.027 90.1556 219.787 90.3743C230.462 91.2201 242.491 92.1731 256.583 92.7904C285.592 94.061 308.998 88.2729 329.633 83.1699C334.37 81.9985 338.961 80.8631 343.441 79.8575C367.433 74.4715 388.305 72.7508 412.125 88.4092C460.001 119.882 472.668 182.28 440.637 240.708C439.183 243.359 437.719 246.04 436.241 248.744C421.268 276.15 404.953 306.012 384.923 333.25C362.926 363.163 336.516 389.81 302.631 406.463C239.039 437.716 177.654 414.273 170.449 411.315Z" stroke="url(#paint1_linear)" stroke-width="3"/>
<path d="M108.446 141.803C92.6627 162.074 82.9469 186.403 80.4245 211.97L61.006 209.137C64.0417 179.988 75.2618 152.293 93.3702 129.25L108.446 141.803Z" stroke="#808080" stroke-linecap="round" stroke-linejoin="round"/>
<path d="M278.342 368.817C251.075 380.612 221.009 384.387 191.672 379.7C162.335 375.014 134.942 362.06 112.706 342.357L125.724 327.675C145.172 344.891 169.123 356.209 194.771 360.304C220.42 364.399 246.705 361.1 270.546 350.795L278.342 368.817Z" stroke="#808080" stroke-linecap="round" stroke-linejoin="round"/>
<path d="M270.536 350.795C246.694 361.1 220.41 364.399 194.761 360.304C169.112 356.209 145.161 344.891 125.714 327.675L112.706 342.357C92.1259 324.139 76.7176 300.813 68.0372 274.734L86.9077 269.223L94.8591 266.906L108.777 262.843L202.736 235.4L209.147 233.529L140.8 310.634C149.582 318.445 159.528 324.839 170.279 329.587L213.231 232.34L215.878 231.564L214.317 229.879L213.283 228.845L212.642 228.152L210.771 226.146L210.222 225.557L206.086 221.08L135.65 145.277L125.796 134.668L120.161 128.599L106.812 114.174C135.98 85.4306 175.3 69.3405 216.251 69.3917V225.526L204.029 112.437C184.169 114.549 165.223 121.888 149.123 133.707L216.251 225.526L228.514 338.614C239.897 337.406 251.03 334.47 261.53 329.908L267.279 343.195L270.536 350.795Z" stroke="#808080" stroke-linecap="round" stroke-linejoin="round"/>
<path d="M114.774 147.118C99.9687 166.2 90.8893 189.096 88.5931 213.138L80.4245 211.97C82.9507 186.41 92.6663 162.089 108.446 141.823L114.774 147.118Z" stroke="#808080" stroke-linecap="round" stroke-linejoin="round"/>
<path d="M209.158 233.529L211.463 230.923L213.025 229.165L213.335 228.814L216.251 225.526H210.274H208.661H174.177H102.511" stroke="#808080" stroke-linecap="round" stroke-linejoin="round"/>
<path d="M88.0347 225.526H79.7627H48.7427" stroke="#808080" stroke-linecap="round" stroke-linejoin="round"/>
<path d="M112.696 342.357L95.2727 362.014" stroke="#808080" stroke-linecap="round" stroke-linejoin="round"/>
<path d="M125.714 327.675L131.204 321.481L140.81 310.634" stroke="#808080" stroke-linecap="round" stroke-linejoin="round"/>
<path d="M352.739 225.526C352.747 252.148 344.969 278.191 330.363 300.449C315.758 322.706 294.962 340.207 270.536 350.795L267.237 343.195C287.555 334.393 305.247 320.478 318.59 302.808C331.932 285.137 340.472 264.312 343.375 242.361C346.279 220.409 343.449 198.08 335.16 177.548C326.871 157.015 313.405 138.98 296.076 125.197L301.246 118.714C317.321 131.488 330.302 147.729 339.219 166.225C348.136 184.721 352.757 204.993 352.739 225.526Z" stroke="#808080" stroke-linecap="round" stroke-linejoin="round"/>
<path d="M296.076 125.197L287.059 136.571C279.469 130.506 271.128 125.446 262.243 121.516L268.095 108.26C278.108 112.687 287.511 118.379 296.076 125.197V125.197Z" stroke="#808080" stroke-linecap="round" stroke-linejoin="round"/>
<path d="M301.235 118.713L328.957 83.8677H359.977" stroke="#808080" stroke-linecap="round" stroke-linejoin="round"/>
<path d="M287.059 136.519L216.251 225.526" stroke="#808080" stroke-linecap="round" stroke-linejoin="round"/>
<path d="M206.324 133.686L204.029 112.437C184.169 114.549 165.223 121.888 149.123 133.707L161.738 150.964C174.815 141.371 190.198 135.409 206.324 133.686V133.686Z" stroke="#808080" stroke-linecap="round" stroke-linejoin="round"/>
<path d="M226.539 320.736L228.514 338.614C239.897 337.406 251.03 334.47 261.53 329.908L254.292 313.157C245.493 317.116 236.129 319.673 226.539 320.736V320.736Z" stroke="#808080" stroke-linecap="round" stroke-linejoin="round"/>
<path d="M228.514 338.614C208.664 340.744 188.602 337.631 170.331 329.587L213.283 232.34L209.199 233.529L140.851 310.634C128.809 299.968 119.171 286.864 112.576 272.192C105.98 257.519 102.577 241.613 102.593 225.526C102.593 222.052 102.749 218.608 103.069 215.186C104.983 193.803 112.937 173.405 126.003 156.372C129.011 152.445 132.272 148.718 135.764 145.215C139.935 141.021 144.429 137.163 149.206 133.676L216.333 225.495L228.514 338.614Z" stroke="#808080" stroke-linecap="round" stroke-linejoin="round"/>
<path d="M271.053 101.446L268.064 108.208" stroke="#808080" stroke-linecap="round" stroke-linejoin="round"/>
<path d="M262.212 121.464L216.251 225.526" stroke="#808080" stroke-linecap="round" stroke-linejoin="round"/>
<path d="M201.671 90.6714L202.468 98.0438L204.029 112.437" stroke="#808080" stroke-linecap="round" stroke-linejoin="round"/>
<path d="M216.251 225.526L92.1707 170.724" stroke="#808080" stroke-linecap="round" stroke-linejoin="round"/>
<path d="M103.162 237.748L88.7689 239.309C88.2787 234.731 88.0337 230.13 88.0347 225.526H102.511C102.508 229.608 102.726 233.688 103.162 237.748V237.748Z" stroke="#808080" stroke-linecap="round" stroke-linejoin="round"/>
<path d="M88.7689 239.309L81.3965 240.105" stroke="#808080" stroke-linecap="round" stroke-linejoin="round"/>
<path d="M216.251 225.526L106.75 305.578" stroke="#808080" stroke-linecap="round" stroke-linejoin="round"/>
<path d="M161.449 349.606L164.437 342.843L170.289 329.587" stroke="#808080" stroke-linecap="round" stroke-linejoin="round"/>
<path d="M213.242 232.34L213.717 231.254L214.203 230.158L214.327 229.879L216.251 225.526" stroke="#808080" stroke-linecap="round" stroke-linejoin="round"/>
<path d="M231.885 378.682L230.034 353.008L228.473 338.614" stroke="#808080" stroke-linecap="round" stroke-linejoin="round"/>
<path d="M296.303 335.026L291.919 329.04L283.378 317.345" stroke="#808080" stroke-linecap="round" stroke-linejoin="round"/>
<path d="M216.251 225.526L340.331 280.328" stroke="#808080" stroke-linecap="round" stroke-linejoin="round"/>
<path d="M216.251 225.526L351.105 210.946" stroke="#808080" stroke-linecap="round" stroke-linejoin="round"/>
<path d="M325.751 145.473L319.764 149.858" stroke="#808080" stroke-linecap="round" stroke-linejoin="round"/>
<path d="M308.07 158.398L216.251 225.526" stroke="#808080" stroke-linecap="round" stroke-linejoin="round"/>
<path d="M216.251 139.683C203.553 151.512 171.055 163.465 133.158 188.808C133.158 188.808 135.526 274.475 216.251 321.305V139.683Z" fill="#7C53E0" stroke="#263238" stroke-linecap="round" stroke-linejoin="round"/>
<path d="M216.251 139.683C228.948 151.512 261.447 163.465 299.343 188.808C299.343 188.808 296.975 274.475 216.251 321.305V139.683Z" fill="#263238" stroke="#263238" stroke-linecap="round" stroke-linejoin="round"/>
<path d="M216.251 146.973C200.927 157.613 174.363 167.746 139.249 191.238C139.249 191.238 141.451 270.618 216.251 314.005C291.05 270.618 293.242 191.29 293.242 191.29C258.138 167.746 231.699 157.613 216.251 146.973Z" fill="#263238" stroke="#263238" stroke-linecap="round" stroke-linejoin="round"/>
<path d="M293.242 191.29C258.086 167.797 231.699 157.664 216.251 147.024V314.005C291.05 270.618 293.242 191.29 293.242 191.29Z" fill="#7C53E0" stroke="#263238" stroke-linecap="round" stroke-linejoin="round"/>
<path d="M245.42 227.004H188.033C187.414 227.011 186.799 226.896 186.225 226.665C185.65 226.435 185.126 226.093 184.684 225.66C184.241 225.227 183.888 224.711 183.645 224.142C183.402 223.572 183.273 222.96 183.266 222.341V195.881C183.266 177.817 198.269 163.114 216.726 163.114C235.183 163.114 250.228 177.848 250.228 195.881V222.31C250.224 222.935 250.096 223.553 249.852 224.128C249.607 224.703 249.251 225.224 248.804 225.661C248.357 226.097 247.827 226.441 247.246 226.672C246.666 226.902 246.045 227.015 245.42 227.004ZM192.8 217.698H240.653V195.881C240.47 189.657 237.869 183.749 233.402 179.411C228.935 175.074 222.953 172.647 216.726 172.647C210.5 172.647 204.518 175.074 200.051 179.411C195.584 183.749 192.983 189.657 192.8 195.881V217.698Z" fill="white" stroke="#263238" stroke-linecap="round" stroke-linejoin="round"/>
<path d="M252.782 214.255H179.72V274.692H252.782V214.255Z" fill="white" stroke="#263238" stroke-linecap="round" stroke-linejoin="round"/>
<path d="M223.851 239.35C223.776 237.29 222.906 235.338 221.421 233.907C219.937 232.475 217.956 231.675 215.894 231.675C213.832 231.675 211.851 232.475 210.367 233.907C208.882 235.338 208.012 237.29 207.937 239.35C207.939 240.761 208.325 242.144 209.054 243.352C209.782 244.56 210.826 245.546 212.073 246.206L210.74 259.937H220.966L219.632 246.206C220.894 245.558 221.955 244.576 222.699 243.367C223.443 242.159 223.841 240.769 223.851 239.35Z" fill="#263238" stroke="#263238" stroke-linecap="round" stroke-linejoin="round"/>
<path d="M396.766 96.6273H417.519V83.8677H405.473L404.253 80.7554H396.766V96.6273Z" fill="#7C53E0" stroke="#263238" stroke-miterlimit="10"/>
<path d="M396.766 117.245H417.519V104.496H405.473L404.253 101.373H396.766V117.245Z" fill="#7C53E0" stroke="#263238" stroke-miterlimit="10"/>
<path d="M396.766 137.873H417.519V125.114H405.473L404.253 121.991H396.766V137.873Z" fill="#263238" stroke="#263238" stroke-miterlimit="10"/>
<path d="M396.766 267.237H417.519V254.478H405.473L404.253 251.365H396.766V267.237Z" fill="#7C53E0" stroke="#263238" stroke-miterlimit="10"/>
<path d="M396.766 287.855H417.519V275.106H405.473L404.253 271.983H396.766V287.855Z" fill="#7C53E0" stroke="#263238" stroke-miterlimit="10"/>
<path d="M396.766 308.483H417.519V295.724H405.473L404.253 292.612H396.766V308.483Z" fill="#263238" stroke="#263238" stroke-miterlimit="10"/>
<path d="M396.766 330.311H417.519V317.552H405.473L404.253 314.439H396.766V330.311Z" fill="#7C53E0" stroke="#263238" stroke-miterlimit="10"/>
<path d="M396.766 350.929H417.519V338.18H405.473L404.253 335.057H396.766V350.929Z" fill="#7C53E0" stroke="#263238" stroke-miterlimit="10"/>
<path d="M396.766 371.557H417.519V358.798H405.473L404.253 355.686H396.766V371.557Z" fill="#263238" stroke="#263238" stroke-miterlimit="10"/>
<path d="M365.922 199.066C365.772 197 365.772 194.927 365.922 192.862" stroke="#263238" stroke-linecap="round" stroke-linejoin="round"/>
<path d="M372.654 198.528C372.53 196.783 372.53 195.031 372.654 193.286" stroke="#263238" stroke-linecap="round" stroke-linejoin="round"/>
<path d="M365.788 195.974L372.54 195.922" stroke="#263238" stroke-linecap="round" stroke-linejoin="round"/>
<path d="M365.933 192.055C366.111 189.992 366.429 187.944 366.884 185.924" stroke="#263238" stroke-linecap="round" stroke-linejoin="round"/>
<path d="M372.664 192.613C372.819 190.874 373.088 189.147 373.47 187.443" stroke="#263238" stroke-linecap="round" stroke-linejoin="round"/>
<path d="M366.305 188.974L372.974 190.008" stroke="#263238" stroke-linecap="round" stroke-linejoin="round"/>
<path d="M367.07 185.138C367.564 183.123 368.211 181.15 369.004 179.233" stroke="#263238" stroke-linecap="round" stroke-linejoin="round"/>
<path d="M373.626 186.771C374.046 185.073 374.589 183.408 375.249 181.788" stroke="#263238" stroke-linecap="round" stroke-linejoin="round"/>
<path d="M367.928 182.149L374.349 184.248" stroke="#263238" stroke-linecap="round" stroke-linejoin="round"/>
<path d="M369.314 178.489C370.132 176.586 371.086 174.744 372.168 172.978" stroke="#263238" stroke-linecap="round" stroke-linejoin="round"/>
<path d="M375.518 181.157C376.211 179.551 377.016 177.996 377.927 176.504" stroke="#263238" stroke-linecap="round" stroke-linejoin="round"/>
<path d="M370.637 175.687L376.635 178.789" stroke="#263238" stroke-linecap="round" stroke-linejoin="round"/>
<path d="M372.592 172.295C373.14 171.417 373.729 170.569 374.36 169.741L376.304 167.332" stroke="#263238" stroke-linecap="round" stroke-linejoin="round"/>
<path d="M378.289 175.925C378.752 175.179 379.252 174.458 379.788 173.764L381.432 171.696" stroke="#263238" stroke-linecap="round" stroke-linejoin="round"/>
<path d="M374.36 169.741L379.788 173.764" stroke="#263238" stroke-linecap="round" stroke-linejoin="round"/>
<path d="M376.81 166.701C377.513 165.947 378.258 165.223 378.982 164.478C379.354 164.116 379.695 163.734 380.088 163.444L381.277 162.41" stroke="#263238" stroke-linecap="round" stroke-linejoin="round"/>
<path d="M381.856 171.189L383.697 169.317C384.007 169.007 384.296 168.676 384.627 168.387L385.661 167.56" stroke="#263238" stroke-linecap="round" stroke-linejoin="round"/>
<path d="M378.982 164.478L383.697 169.317" stroke="#263238" stroke-linecap="round" stroke-linejoin="round"/>
<path d="M381.908 161.883C382.684 161.196 383.51 160.567 384.379 160.001C385.237 159.432 386.085 158.833 386.964 158.285" stroke="#263238" stroke-linecap="round" stroke-linejoin="round"/>
<path d="M386.168 167.115C386.816 166.536 387.508 166.007 388.236 165.533C388.97 165.057 389.684 164.499 390.418 164.085" stroke="#263238" stroke-linecap="round" stroke-linejoin="round"/>
<path d="M384.379 160.001L388.246 165.533" stroke="#263238" stroke-linecap="round" stroke-linejoin="round"/>
<path d="M387.678 157.902L390.407 156.423C391.348 155.999 392.31 155.617 393.261 155.214" stroke="#263238" stroke-linecap="round" stroke-linejoin="round"/>
<path d="M391.038 163.754L393.344 162.514L395.753 161.49" stroke="#263238" stroke-linecap="round" stroke-linejoin="round"/>
<path d="M390.407 156.424L393.344 162.514" stroke="#263238" stroke-linecap="round" stroke-linejoin="round"/>
<path d="M394.016 154.893C394.967 154.511 395.981 154.262 396.963 153.932L398.442 153.477L399.962 153.156" stroke="#263238" stroke-linecap="round" stroke-linejoin="round"/>
<path d="M396.384 161.221C397.201 160.89 398.049 160.684 398.876 160.415L400.137 160.022L401.419 159.753" stroke="#263238" stroke-linecap="round" stroke-linejoin="round"/>
<path d="M396.963 153.932L398.876 160.415" stroke="#263238" stroke-linecap="round" stroke-linejoin="round"/>
<path d="M400.758 153.032C401.762 152.797 402.781 152.628 403.808 152.525C404.842 152.422 405.876 152.277 406.91 152.215" stroke="#263238" stroke-linecap="round" stroke-linejoin="round"/>
<path d="M402.092 159.618C402.94 159.406 403.805 159.261 404.677 159.184C405.545 159.101 406.414 158.967 407.282 158.915" stroke="#263238" stroke-linecap="round" stroke-linejoin="round"/>
<path d="M403.808 152.484L404.677 159.184" stroke="#263238" stroke-linecap="round" stroke-linejoin="round"/>
<path d="M407.706 152.153L410.808 152.112L413.91 152.36" stroke="#263238" stroke-linecap="round" stroke-linejoin="round"/>
<path d="M407.965 158.905L410.591 158.864L413.207 159.081" stroke="#263238" stroke-linecap="round" stroke-linejoin="round"/>
<path d="M410.808 152.112L410.591 158.864" stroke="#263238" stroke-linecap="round" stroke-linejoin="round"/>
<path d="M414.717 152.422C415.751 152.546 416.785 152.773 417.819 152.949C418.325 153.042 418.853 153.125 419.339 153.228L420.838 153.652" stroke="#263238" stroke-linecap="round" stroke-linejoin="round"/>
<path d="M413.89 159.133C414.758 159.236 415.616 159.432 416.475 159.577C416.898 159.65 417.333 159.722 417.767 159.815L419.018 160.167" stroke="#263238" stroke-linecap="round" stroke-linejoin="round"/>
<path d="M417.777 152.949L416.474 159.577" stroke="#263238" stroke-linecap="round" stroke-linejoin="round"/>
<path d="M421.572 153.88C423.563 154.45 425.512 155.159 427.404 156" stroke="#263238" stroke-linecap="round" stroke-linejoin="round"/>
<path d="M419.68 160.363C421.358 160.848 423.002 161.442 424.602 162.142" stroke="#263238" stroke-linecap="round" stroke-linejoin="round"/>
<path d="M424.519 154.842L422.172 161.18" stroke="#263238" stroke-linecap="round" stroke-linejoin="round"/>
<path d="M428.128 156.372L430.888 157.788C431.788 158.295 432.636 158.895 433.504 159.453" stroke="#263238" stroke-linecap="round" stroke-linejoin="round"/>
<path d="M425.212 162.462L427.549 163.661C428.303 164.085 429.017 164.602 429.761 165.068" stroke="#263238" stroke-linecap="round" stroke-linejoin="round"/>
<path d="M430.888 157.788L427.549 163.661" stroke="#263238" stroke-linecap="round" stroke-linejoin="round"/>
<path d="M434.187 159.887C435.046 160.464 435.871 161.089 436.658 161.759C437.484 162.383 438.271 163.056 439.016 163.775" stroke="#263238" stroke-linecap="round" stroke-linejoin="round"/>
<path d="M430.33 165.44C431.052 165.924 431.742 166.452 432.398 167.022C433.104 167.546 433.774 168.116 434.404 168.728" stroke="#263238" stroke-linecap="round" stroke-linejoin="round"/>
<path d="M436.658 161.759L432.419 167.022" stroke="#263238" stroke-linecap="round" stroke-linejoin="round"/>
<path d="M439.595 164.344C440.319 165.078 441.094 165.771 441.776 166.546L443.751 168.945" stroke="#263238" stroke-linecap="round" stroke-linejoin="round"/>
<path d="M434.911 169.204C435.521 169.834 436.183 170.413 436.751 171.065L438.426 173.133" stroke="#263238" stroke-linecap="round" stroke-linejoin="round"/>
<path d="M441.776 166.546L436.751 171.065" stroke="#263238" stroke-linecap="round" stroke-linejoin="round"/>
<path d="M444.268 169.576C445.488 171.253 446.596 173.008 447.588 174.829" stroke="#263238" stroke-linecap="round" stroke-linejoin="round"/>
<path d="M438.861 173.609C439.884 175.027 440.817 176.508 441.652 178.045" stroke="#263238" stroke-linecap="round" stroke-linejoin="round"/>
<path d="M446.005 172.14L440.329 175.79" stroke="#263238" stroke-linecap="round" stroke-linejoin="round"/>
<path d="M447.97 175.532L448.694 176.897L449.304 178.334C449.687 179.285 450.142 180.226 450.452 181.208" stroke="#263238" stroke-linecap="round" stroke-linejoin="round"/>
<path d="M441.973 178.644L442.593 179.802L443.1 181.012C443.421 181.829 443.824 182.615 444.134 183.442" stroke="#263238" stroke-linecap="round" stroke-linejoin="round"/>
<path d="M449.304 178.334L443.1 181.012" stroke="#263238" stroke-linecap="round" stroke-linejoin="round"/>
<path d="M450.7 181.984C451 183.018 451.331 183.948 451.589 184.951L452.23 187.991" stroke="#263238" stroke-linecap="round" stroke-linejoin="round"/>
<path d="M444.279 184.104C444.527 184.941 444.816 185.768 445.044 186.616L445.582 189.181" stroke="#263238" stroke-linecap="round" stroke-linejoin="round"/>
<path d="M451.589 184.951L445.044 186.616" stroke="#263238" stroke-linecap="round" stroke-linejoin="round"/>
<path d="M452.396 188.788C452.692 190.843 452.857 192.915 452.892 194.992" stroke="#263238" stroke-linecap="round" stroke-linejoin="round"/>
<path d="M445.726 189.853C445.965 191.567 446.103 193.293 446.14 195.023" stroke="#263238" stroke-linecap="round" stroke-linejoin="round"/>
<path d="M452.737 191.869L446.005 192.458" stroke="#263238" stroke-linecap="round" stroke-linejoin="round"/>
<path d="M452.892 195.778C452.892 196.295 452.892 196.812 452.892 197.329L452.768 198.869C452.665 199.903 452.654 200.937 452.458 201.971" stroke="#263238" stroke-linecap="round" stroke-linejoin="round"/>
<path d="M446.15 195.767C446.15 196.201 446.15 196.636 446.15 197.07L446.047 198.383C446.004 199.256 445.914 200.126 445.778 200.989" stroke="#263238" stroke-linecap="round" stroke-linejoin="round"/>
<path d="M452.778 198.869L446.047 198.383" stroke="#263238" stroke-linecap="round" stroke-linejoin="round"/>
<path d="M452.323 202.757C452.127 203.791 451.982 204.825 451.744 205.807L450.896 208.796" stroke="#263238" stroke-linecap="round" stroke-linejoin="round"/>
<path d="M445.654 201.63C445.478 202.488 445.364 203.357 445.158 204.205L444.444 206.728" stroke="#263238" stroke-linecap="round" stroke-linejoin="round"/>
<path d="M451.744 205.807L445.168 204.236" stroke="#263238" stroke-linecap="round" stroke-linejoin="round"/>
<path d="M450.669 209.571C449.984 211.526 449.168 213.433 448.229 215.279" stroke="#263238" stroke-linecap="round" stroke-linejoin="round"/>
<path d="M444.268 207.42C443.682 209.065 442.991 210.671 442.2 212.229" stroke="#263238" stroke-linecap="round" stroke-linejoin="round"/>
<path d="M449.542 212.466L443.307 209.861" stroke="#263238" stroke-linecap="round" stroke-linejoin="round"/>
<path d="M447.856 216.002L447.143 217.378C446.884 217.822 446.585 218.246 446.316 218.691L444.62 221.276" stroke="#263238" stroke-linecap="round" stroke-linejoin="round"/>
<path d="M441.89 212.838L441.291 214.007C441.073 214.389 440.815 214.741 440.587 215.113L439.15 217.316" stroke="#263238" stroke-linecap="round" stroke-linejoin="round"/>
<path d="M446.316 218.691L440.587 215.113" stroke="#263238" stroke-linecap="round" stroke-linejoin="round"/>
<path d="M444.113 221.917L442.159 224.378C441.508 225.184 440.732 225.877 440.019 226.622" stroke="#263238" stroke-linecap="round" stroke-linejoin="round"/>
<path d="M438.716 217.843L437.072 219.911C436.524 220.593 435.862 221.172 435.262 221.803" stroke="#263238" stroke-linecap="round" stroke-linejoin="round"/>
<path d="M442.159 224.326L437.072 219.89" stroke="#263238" stroke-linecap="round" stroke-linejoin="round"/>
<path d="M439.45 227.149C438.719 227.887 437.942 228.578 437.124 229.217C436.345 229.9 435.527 230.535 434.673 231.119" stroke="#263238" stroke-linecap="round" stroke-linejoin="round"/>
<path d="M434.776 222.31C434.164 222.935 433.507 223.515 432.812 224.047C432.157 224.628 431.466 225.167 430.744 225.66" stroke="#263238" stroke-linecap="round" stroke-linejoin="round"/>
<path d="M437.124 229.207L432.812 224.006" stroke="#263238" stroke-linecap="round" stroke-linejoin="round"/>
<path d="M434.011 231.616C433.132 232.174 432.315 232.815 431.395 233.301L428.665 234.718" stroke="#263238" stroke-linecap="round" stroke-linejoin="round"/>
<path d="M430.144 225.991C429.399 226.467 428.717 227.025 427.942 227.418L425.636 228.669" stroke="#263238" stroke-linecap="round" stroke-linejoin="round"/>
<path d="M431.395 233.25L427.983 227.418" stroke="#263238" stroke-linecap="round" stroke-linejoin="round"/>
<path d="M427.942 235.08C426.061 235.946 424.123 236.682 422.141 237.282" stroke="#263238" stroke-linecap="round" stroke-linejoin="round"/>
<path d="M425.067 228.969C423.476 229.696 421.838 230.317 420.166 230.83" stroke="#263238" stroke-linecap="round" stroke-linejoin="round"/>
<path d="M425.077 236.29L422.647 229.982" stroke="#263238" stroke-linecap="round" stroke-linejoin="round"/>
<path d="M421.365 237.52C420.38 237.836 419.375 238.085 418.356 238.264C417.333 238.502 416.298 238.682 415.254 238.802" stroke="#263238" stroke-linecap="round" stroke-linejoin="round"/>
<path d="M419.504 231.027C418.673 231.296 417.823 231.504 416.961 231.647C416.113 231.858 415.253 232.013 414.386 232.112" stroke="#263238" stroke-linecap="round" stroke-linejoin="round"/>
<path d="M418.356 238.265L416.961 231.647" stroke="#263238" stroke-linecap="round" stroke-linejoin="round"/>
<path d="M414.5 238.854C413.466 238.947 412.432 239.144 411.398 239.133H408.296" stroke="#263238" stroke-linecap="round" stroke-linejoin="round"/>
<path d="M413.703 232.185C412.836 232.31 411.963 232.39 411.087 232.422H408.461" stroke="#263238" stroke-linecap="round" stroke-linejoin="round"/>
<path d="M411.408 239.174L411.087 232.422" stroke="#263238" stroke-linecap="round" stroke-linejoin="round"/>
<path d="M407.499 239.195C405.417 239.098 403.343 238.852 401.295 238.461" stroke="#263238" stroke-linecap="round" stroke-linejoin="round"/>
<path d="M407.779 232.443C406.043 232.354 404.316 232.146 402.609 231.823" stroke="#263238" stroke-linecap="round" stroke-linejoin="round"/>
<path d="M404.408 238.947L405.163 232.236" stroke="#263238" stroke-linecap="round" stroke-linejoin="round"/>
<path d="M400.541 238.316C399.523 238.13 398.518 237.882 397.532 237.572C396.527 237.322 395.539 237.008 394.574 236.631" stroke="#263238" stroke-linecap="round" stroke-linejoin="round"/>
<path d="M401.905 231.699C401.045 231.545 400.195 231.334 399.362 231.068C398.516 230.858 397.683 230.595 396.87 230.282" stroke="#263238" stroke-linecap="round" stroke-linejoin="round"/>
<path d="M397.532 237.572L399.362 231.068" stroke="#263238" stroke-linecap="round" stroke-linejoin="round"/>
<path d="M393.82 236.341C392.858 235.938 391.865 235.617 390.945 235.152L388.184 233.684" stroke="#263238" stroke-linecap="round" stroke-linejoin="round"/>
<path d="M396.229 230.034C395.422 229.693 394.585 229.434 393.809 229L391.483 227.801" stroke="#263238" stroke-linecap="round" stroke-linejoin="round"/>
<path d="M390.945 235.152L393.809 229.031" stroke="#263238" stroke-linecap="round" stroke-linejoin="round"/>
<path d="M387.471 233.353C385.754 232.195 383.955 231.171 382.301 229.848" stroke="#263238" stroke-linecap="round" stroke-linejoin="round"/>
<path d="M390.852 227.48C389.404 226.446 387.864 225.639 386.52 224.523" stroke="#263238" stroke-linecap="round" stroke-linejoin="round"/>
<path d="M384.865 231.657L388.67 226.074" stroke="#263238" stroke-linecap="round" stroke-linejoin="round"/>
<path d="M381.722 229.351C380.118 228.039 378.611 226.612 377.214 225.081" stroke="#263238" stroke-linecap="round" stroke-linejoin="round"/>
<path d="M386.003 224.13C384.653 223.016 383.381 221.81 382.197 220.521" stroke="#263238" stroke-linecap="round" stroke-linejoin="round"/>
<path d="M379.395 227.294L384.038 222.382" stroke="#263238" stroke-linecap="round" stroke-linejoin="round"/>
<path d="M376.666 224.492C375.304 222.931 374.05 221.28 372.912 219.549" stroke="#263238" stroke-linecap="round" stroke-linejoin="round"/>
<path d="M381.732 220.014C380.579 218.711 379.519 217.329 378.558 215.878" stroke="#263238" stroke-linecap="round" stroke-linejoin="round"/>
<path d="M374.701 222.082L380.078 217.988" stroke="#263238" stroke-linecap="round" stroke-linejoin="round"/>
<path d="M372.468 218.867C371.368 217.111 370.394 215.279 369.552 213.386" stroke="#263238" stroke-linecap="round" stroke-linejoin="round"/>
<path d="M378.186 215.279C377.258 213.794 376.436 212.246 375.725 210.646" stroke="#263238" stroke-linecap="round" stroke-linejoin="round"/>
<path d="M370.917 216.178L376.883 213.004" stroke="#263238" stroke-linecap="round" stroke-linejoin="round"/>
<path d="M369.221 212.652C368.427 210.739 367.763 208.773 367.235 206.769" stroke="#263238" stroke-linecap="round" stroke-linejoin="round"/>
<path d="M375.445 210.026C374.775 208.408 374.215 206.747 373.77 205.052" stroke="#263238" stroke-linecap="round" stroke-linejoin="round"/>
<path d="M368.135 209.747L374.525 207.565" stroke="#263238" stroke-linecap="round" stroke-linejoin="round"/>
<path d="M367.07 205.993C366.586 203.979 366.24 201.934 366.036 199.872" stroke="#263238" stroke-linecap="round" stroke-linejoin="round"/>
<path d="M373.595 204.391C373.189 202.688 372.895 200.961 372.716 199.221" stroke="#263238" stroke-linecap="round" stroke-linejoin="round"/>
<path d="M366.408 202.954L373.067 201.816" stroke="#263238" stroke-linecap="round" stroke-linejoin="round"/>
<path d="M409.671 169.317C413.406 169.364 417.089 170.203 420.475 171.78C423.862 173.358 426.874 175.636 429.313 178.466C431.753 181.295 433.563 184.61 434.624 188.192C435.685 191.774 435.973 195.54 435.469 199.241" stroke="#263238" stroke-width="2" stroke-miterlimit="10"/>
<path d="M384.762 186.203C386.697 181.184 390.12 176.877 394.572 173.859C399.024 170.841 404.293 169.257 409.671 169.317" stroke="#7C53E0" stroke-width="5" stroke-miterlimit="10"/>
<path d="M414.107 221.586C409.502 222.429 404.756 222.03 400.357 220.43C395.958 218.83 392.064 216.088 389.076 212.485C386.088 208.882 384.113 204.548 383.355 199.929C382.596 195.31 383.082 190.572 384.762 186.203" stroke="#263238" stroke-width="2" stroke-miterlimit="10"/>
<path d="M435.469 199.241C434.714 204.74 432.242 209.861 428.406 213.873C424.57 217.885 419.566 220.584 414.107 221.586" stroke="#7C53E0" stroke-width="5" stroke-miterlimit="10"/>
<path d="M189.822 353.007H210.574V340.248H198.528L197.308 337.125H189.822V353.007Z" fill="#7C53E0" stroke="#263238" stroke-miterlimit="10"/>
<path d="M189.822 373.626H210.574V360.866H198.528L197.308 357.754H189.822V373.626Z" fill="#7C53E0" stroke="#263238" stroke-miterlimit="10"/>
<path d="M189.822 394.243H210.574V381.484H198.528L197.308 378.372H189.822V394.243Z" fill="#263238" stroke="#263238" stroke-miterlimit="10"/>
<path d="M222.91 353.007H243.662V340.248H231.616L230.396 337.125H222.91V353.007Z" fill="#7C53E0" stroke="#263238" stroke-miterlimit="10"/>
<path d="M222.91 373.626H243.662V360.866H231.616L230.396 357.754H222.91V373.626Z" fill="#263238" stroke="#263238" stroke-miterlimit="10"/>
<path d="M222.91 394.243H243.662V381.484H231.616L230.396 378.372H222.91V394.243Z" fill="#7C53E0" stroke="#263238" stroke-miterlimit="10"/>
<path d="M189.822 93.4735H210.574V80.714H198.528L197.308 77.5913H189.822V93.4735Z" fill="#7C53E0" stroke="#263238" stroke-miterlimit="10"/>
<path d="M189.822 114.092H210.574V101.332H198.528L197.308 98.2197H189.822V114.092Z" fill="#7C53E0" stroke="#263238" stroke-miterlimit="10"/>
<path d="M189.822 134.71H210.574V121.95H198.528L197.308 118.838H189.822V134.71Z" fill="#7C53E0" stroke="#263238" stroke-miterlimit="10"/>
<path d="M222.91 93.4735H243.662V80.714H231.616L230.396 77.5913H222.91V93.4735Z" fill="#263238" stroke="#263238" stroke-miterlimit="10"/>
<path d="M222.91 114.092H243.662V101.332H231.616L230.396 98.2197H222.91V114.092Z" fill="#7C53E0" stroke="#263238" stroke-miterlimit="10"/>
<path d="M222.91 134.71H243.662V121.95H231.616L230.396 118.838H222.91V134.71Z" fill="#263238" stroke="#263238" stroke-miterlimit="10"/>
<path d="M339.224 459.21C370.633 459.21 396.094 455.275 396.094 450.421C396.094 445.567 370.633 441.632 339.224 441.632C307.816 441.632 282.354 445.567 282.354 450.421C282.354 455.275 307.816 459.21 339.224 459.21Z" fill="#263238"/>
<path d="M328.657 438.333C328.657 438.333 317.8 445.313 311.854 446.605C305.909 447.898 304.099 449.707 309.011 452.034C313.922 454.36 328.915 455.136 335.895 453.585C342.874 452.034 345.459 454.102 346.235 451C346.81 448.088 346.721 445.084 345.976 442.211C345.459 439.884 332.793 436.265 328.657 438.333Z" fill="white" stroke="#263238" stroke-linecap="round" stroke-linejoin="round"/>
<path d="M314.439 298.743C314.439 298.743 315.732 318.906 319.351 334.675C322.97 350.443 324.779 371.64 326.589 383.273C328.398 394.905 329.691 414.034 329.949 422.565C330.208 431.095 330.725 433.68 330.208 434.456C329.691 435.231 328.398 435.49 328.398 436.524C328.398 437.558 328.14 439.884 328.14 439.884C328.14 439.884 330.466 441.952 336.67 444.279C342.874 446.605 347.01 447.898 347.01 447.898C348.871 446.111 350.057 443.737 350.371 441.177C351.146 436.524 348.82 431.095 348.82 427.993C348.82 424.891 355.541 397.749 353.214 386.633C350.888 375.518 346.235 362.851 346.235 356.13C346.235 349.409 348.82 329.505 348.82 329.505C348.82 329.505 355.541 318.389 355.799 310.376C355.959 305.635 355.873 300.89 355.541 296.158C355.541 296.158 325.038 300.553 314.439 298.743Z" fill="#263238" stroke="#263238" stroke-linecap="round" stroke-linejoin="round"/>
<path d="M319.764 226.766C317.408 233.192 316.129 239.963 315.98 246.805C315.98 257.197 314.47 279.697 312.95 289.52C311.43 299.343 310.314 299.922 312.95 301.432C315.587 302.941 323.352 304.647 334.882 303.893C346.411 303.138 358.664 299.353 359.274 297.689C359.884 296.024 359.46 293.718 358.891 291.485C358.322 289.251 360.959 265.397 355.303 245.554C349.647 225.712 345.656 215.682 343.009 213.035L340.362 210.388L319.764 226.766Z" fill="#7C53E0" stroke="#263238" stroke-linecap="round" stroke-linejoin="round"/>
<path d="M301.99 176.473C301.99 176.473 301.618 183.473 302.559 185.934C303.5 188.395 303.882 191.218 302.941 193.11C302 195.002 300.098 197.246 301.421 198.404C302.294 199.135 303.244 199.77 304.254 200.296C304.254 200.296 308.039 207.1 309.931 210.884C311.823 214.669 312.764 215.61 314.657 214.855C316.032 214.271 317.36 213.58 318.627 212.787C318.627 212.787 323.921 218.836 324.676 220.345C325.355 221.461 326.256 222.425 327.323 223.179L340.186 209.178C337.967 206.707 336.406 203.716 335.647 200.482C334.323 195.002 333.951 194.278 335.275 191.786C336.598 189.294 339.245 189.139 337.725 183.09C336.205 177.042 338.294 175.149 332.814 171.375C327.333 167.601 316.931 167.022 313.912 167.022C311.48 166.955 309.092 167.681 307.108 169.09C305.578 170.238 301.99 176.473 301.99 176.473Z" fill="white" stroke="#263238" stroke-linecap="round" stroke-linejoin="round"/>
<path d="M314.274 162.493C314.274 162.493 300.667 166.836 298.764 168.542C296.861 170.248 301.607 180.64 301.607 180.64L311.058 175.149L307.098 179.916C307.098 179.916 305.03 180.474 312.392 180.102C319.754 179.73 323.352 177.072 323.352 177.072C323.352 177.072 318.627 182.367 319.01 183.876C319.392 185.386 322.029 187.847 322.784 188.984C323.539 190.122 324.676 188.612 324.676 188.612C324.676 188.612 325.813 193.337 326.186 192.2C326.545 190.515 326.797 188.809 326.94 187.092C326.94 187.092 328.647 183.318 331.076 184.259C333.506 185.2 334.851 191.249 333.144 194.092C332.078 195.803 330.38 197.025 328.419 197.494C328.419 197.494 332.39 201.837 333.517 200.896C334.644 199.955 335.037 198.063 335.791 197.111C336.546 196.16 345.997 188.043 347.165 182.18C348.334 176.318 339.793 162.142 333.175 160.818C326.558 159.494 314.274 162.493 314.274 162.493Z" fill="#263238" stroke="#263238" stroke-linecap="round" stroke-linejoin="round"/>
<path d="M303.014 186.947L304.554 193.151C304.627 193.48 304.803 193.778 305.055 194.001C305.308 194.224 305.625 194.361 305.961 194.392C307.687 194.547 310.841 194.702 311.255 193.885C311.823 192.758 311.069 185.386 310.117 184.248C308.959 182.853 306.322 183.969 305.04 184.579C304.521 184.869 304.02 185.19 303.541 185.541C303.327 185.7 303.164 185.917 303.07 186.166C302.977 186.416 302.957 186.687 303.014 186.947Z" fill="white" stroke="#263238" stroke-linecap="round" stroke-linejoin="round"/>
<path d="M311.441 187.247L327.137 185.737L311.513 188.953L311.441 187.247Z" fill="#263238" stroke="#263238" stroke-linecap="round" stroke-linejoin="round"/>
<path d="M327.509 197.494C327.509 197.494 329.784 204.111 328.264 205.993C326.744 207.875 321.843 210.915 321.843 210.915" fill="white"/>
<path d="M327.509 197.494C327.509 197.494 329.784 204.111 328.264 205.993C326.744 207.875 321.843 210.915 321.843 210.915" stroke="#263238" stroke-linecap="round" stroke-linejoin="round"/>
<path d="M340.186 205.404C340.186 205.404 315.99 227.521 316.559 228.09C317.128 228.659 321.44 235.225 321.44 235.225C324.747 230.291 328.312 225.534 332.121 220.976C336.108 216.762 340.315 212.762 344.725 208.992L340.186 205.404Z" fill="#263238" stroke="#263238" stroke-linecap="round" stroke-linejoin="round"/>
<path d="M283.316 264.756C283.316 264.756 276.512 264.756 275.189 266.276C273.865 267.796 277.453 269.295 278.777 269.481C280.433 269.473 282.083 269.286 283.699 268.923L283.316 264.756Z" fill="white" stroke="#263238" stroke-linecap="round" stroke-linejoin="round"/>
<path d="M286.304 263.06C286.304 263.06 283.275 261.922 282.52 264.383C281.765 266.844 283.657 274.206 284.784 274.403C285.911 274.599 286.49 273.834 286.49 271.57C286.49 269.305 286.304 263.06 286.304 263.06Z" fill="white" stroke="#263238" stroke-linecap="round" stroke-linejoin="round"/>
<path d="M291.588 262.636C291.588 262.636 287.617 260.372 286.097 262.067C284.578 263.763 286.294 273.793 286.294 273.793C287.421 274.362 289.313 267.744 291.019 265.666C291.79 264.783 292.482 263.835 293.087 262.832L291.588 262.636Z" fill="white" stroke="#263238" stroke-linecap="round" stroke-linejoin="round"/>
<path d="M316.166 262.874C316.166 262.874 306.343 271.942 304.637 271.942C302.931 271.942 295.941 263.815 294.245 262.874C292.55 261.933 290.275 267.217 289.706 268.923C289.277 270.784 289.024 272.681 288.951 274.589C289.065 274.741 289.217 274.861 289.391 274.937C289.565 275.014 289.755 275.044 289.945 275.025C290.134 275.007 290.315 274.939 290.47 274.83C290.626 274.721 290.751 274.574 290.833 274.403C292.013 272.393 293.086 270.322 294.049 268.199L295.186 269.719" fill="white"/>
<path d="M316.166 262.874C316.166 262.874 306.343 271.942 304.637 271.942C302.931 271.942 295.941 263.815 294.245 262.874C292.55 261.933 290.275 267.217 289.706 268.923C289.277 270.784 289.024 272.681 288.951 274.589C289.065 274.741 289.217 274.861 289.391 274.937C289.565 275.014 289.755 275.044 289.945 275.025C290.134 275.007 290.315 274.939 290.47 274.83C290.626 274.721 290.751 274.574 290.833 274.403C292.013 272.393 293.086 270.322 294.049 268.199L295.186 269.719" stroke="#263238" stroke-linecap="round" stroke-linejoin="round"/>
<path d="M300.48 269.295C300.48 269.295 294.618 270.246 293.677 271.942C292.736 273.638 292.539 273.834 294.618 274.01C296.696 274.186 301.618 274.765 302.373 273.824C303.127 272.883 301.235 269.481 300.48 269.295Z" fill="white" stroke="#263238" stroke-linecap="round" stroke-linejoin="round"/>
<path d="M266.451 280.824L243.011 229.6L257.373 230.354L277.608 278.373L266.451 280.824Z" fill="#7D7D7D" stroke="#263238" stroke-linecap="round" stroke-linejoin="round"/>
<path d="M276.285 274.775L265.883 279.314H322.784L315.039 274.403L276.285 274.775Z" fill="#7D7D7D" stroke="#263238" stroke-linecap="round" stroke-linejoin="round"/>
<path d="M337.911 226.384C337.911 226.384 330.725 227.708 329.587 234.139C328.45 240.571 331.655 265.159 331.655 265.707V270.246C331.655 271.373 336.195 271.001 341.489 273.452C346.783 275.902 349.999 279.883 349.999 276.854C349.999 273.824 349.244 237.562 349.244 237.562" fill="#7C53E0"/>
<path d="M337.911 226.384C337.911 226.384 330.725 227.708 329.587 234.139C328.45 240.571 331.655 265.159 331.655 265.707V270.246C331.655 271.373 336.195 271.001 341.489 273.452C346.783 275.902 349.999 279.883 349.999 276.854C349.999 273.824 349.244 237.562 349.244 237.562" stroke="#263238" stroke-linecap="round" stroke-linejoin="round"/>
<path d="M349.626 252.089L352.656 241.698" stroke="#263238" stroke-linecap="round" stroke-linejoin="round"/>
<path d="M328.078 267.217L329.019 275.344C329.019 275.344 349.626 287.442 350.195 287.07C350.764 286.697 351.332 285.55 351.332 283.668C351.332 281.786 354.352 271.942 350.764 269.678C347.176 267.413 333.982 267.031 333.982 267.031C333.982 267.031 330.156 266.276 328.078 267.217Z" fill="#263238" stroke="#263238" stroke-linecap="round" stroke-linejoin="round"/>
<path d="M330.539 274.972C330.539 274.972 311.069 281.961 298.402 282.716C285.736 283.471 284.226 282.716 284.226 282.716C284.226 282.716 283.089 278.177 281.196 277.05C279.304 275.923 273.255 276.854 272.118 276.099C270.98 275.344 270.991 272.893 270.236 272.128C269.481 271.363 266.1 271.756 266.1 271.756C266.1 271.756 264.404 272.697 264.404 274.02C264.404 275.344 263.267 283.854 264.776 284.609C266.286 285.363 285.953 289.148 293.325 289.148C300.698 289.148 322.443 291.216 333.589 289.52C344.736 287.824 348.903 286.501 348.53 283.471C348.158 280.441 334.127 274.206 330.539 274.972Z" fill="white" stroke="#263238" stroke-linecap="round" stroke-linejoin="round"/>
<path d="M265.128 272.893L265.51 282.902" stroke="#263238" stroke-linecap="round" stroke-linejoin="round"/>
<path d="M268.158 271.942L268.716 281.775" stroke="#263238" stroke-linecap="round" stroke-linejoin="round"/>
<path d="M272.118 276.078C272.118 276.078 271.363 278.353 272.686 279.294C274.01 280.235 279.118 281 279.118 281" fill="white"/>
<path d="M272.118 276.078C272.118 276.078 271.363 278.353 272.686 279.294C274.01 280.235 279.118 281 279.118 281" stroke="#263238" stroke-linecap="round" stroke-linejoin="round"/>
<path d="M328.46 248.315H319.382V263.246H328.46V248.315Z" fill="white" stroke="#263238" stroke-linecap="round" stroke-linejoin="round"/>
<defs>
<linearGradient id="paint0_linear" x1="48.5171" y1="248.405" x2="464.999" y2="248.405" gradientUnits="userSpaceOnUse">
<stop stop-color="#7353E5"/>
<stop offset="1" stop-color="#CE4EA4"/>
</linearGradient>
<linearGradient id="paint1_linear" x1="47.454" y1="249.279" x2="459.812" y2="249.279" gradientUnits="userSpaceOnUse">
<stop stop-color="#262364"/>
<stop offset="1" stop-color="#CD4FA5"/>
</linearGradient>
</defs>
</svg>
