





<svg class="no-sticky" viewBox="0 0 90 32" fill="none" xmlns="http://www.w3.org/2000/svg">
                    <path fill-rule="evenodd" clip-rule="evenodd" d="M40.6045 8C41.3459 8 41.9613 8.1818 42.4507 8.54539C42.94 8.90899 43.1995 9.40614 43.2292 10.0369H41.2829C41.2607 9.82168 41.1865 9.67699 41.0605 9.60278C40.9344 9.52116 40.7454 9.48035 40.4933 9.48035C40.256 9.48035 40.0707 9.52116 39.9372 9.60278C39.8112 9.67699 39.7481 9.78829 39.7481 9.9367C39.7481 10.1074 39.8408 10.2335 40.0262 10.3151C40.219 10.3893 40.5304 10.4747 40.9604 10.5711C41.4275 10.6676 41.8131 10.7715 42.117 10.8828C42.4284 10.9867 42.6954 11.161 42.9178 11.4059C43.1402 11.6434 43.2514 11.9699 43.2514 12.3854C43.2514 12.7712 43.1365 13.1126 42.9067 13.4094C42.6842 13.7062 42.3728 13.9399 41.9725 14.1106C41.5795 14.2739 41.1383 14.3555 40.649 14.3555C39.8779 14.3555 39.2403 14.1848 38.7361 13.8435C38.2319 13.4947 37.9576 12.9827 37.9131 12.3075H39.8594C39.889 12.5078 39.9706 12.6525 40.104 12.7416C40.2375 12.8306 40.4229 12.8751 40.6601 12.8751C40.8825 12.8751 41.0642 12.8232 41.2051 12.7193C41.3534 12.6154 41.4275 12.4893 41.4275 12.3409C41.4275 12.1628 41.3274 12.0329 41.1272 11.9513C40.927 11.8623 40.6119 11.7732 40.1819 11.6842C39.7148 11.5877 39.3292 11.4875 39.0252 11.3837C38.7287 11.2798 38.4692 11.1128 38.2467 10.8828C38.0317 10.6453 37.9242 10.33 37.9242 9.9367C37.9242 9.58052 38.0243 9.25774 38.2245 8.96835C38.4321 8.67154 38.7361 8.4378 39.1365 8.26713C39.5443 8.08904 40.0336 8 40.6045 8ZM45.8838 8.06678L47.2629 12.1294L48.7754 8.06678H50.7662L46.8069 17.2383H44.8161L46.1396 14.1551L43.7262 8.06678H45.8838ZM56.6564 8.32278C56.3005 8.10759 55.889 8 55.4219 8C54.9993 8 54.6249 8.08904 54.2986 8.26713C53.9798 8.4378 53.7277 8.67525 53.5424 8.97948V8.06678H51.6406V14.2776H53.5424V10.905C53.5424 10.5043 53.6462 10.1964 53.8538 9.98122C54.0688 9.75861 54.3617 9.6473 54.7324 9.6473C55.1031 9.6473 55.3923 9.75861 55.5999 9.98122C55.8149 10.1964 55.9224 10.5043 55.9224 10.905V14.2776H57.8131V10.649C57.8131 10.1074 57.7093 9.63617 57.5017 9.23548C57.3015 8.83478 57.0197 8.53055 56.6564 8.32278ZM61.7968 8C62.5901 8 63.1981 8.2931 63.6207 8.8793V8.06678H65.5225V14.2776H63.6207V13.376C63.161 14.029 62.553 14.3555 61.7968 14.3555C61.2852 14.3555 60.8106 14.2219 60.3732 13.9548C59.9432 13.6877 59.6021 13.3129 59.35 12.8306C59.0979 12.3483 58.9719 11.7992 58.9719 11.1833C58.9719 10.5674 59.0979 10.0183 59.35 9.536C59.6021 9.05368 59.9432 8.67896 60.3732 8.41183C60.8106 8.13728 61.2852 8 61.7968 8ZM62.2639 9.6473C62.0414 9.6473 61.8227 9.70667 61.6077 9.82539C61.4001 9.9367 61.2296 10.1074 61.0961 10.3374C60.97 10.5674 60.907 10.8494 60.907 11.1833C60.907 11.5172 60.97 11.7992 61.0961 12.0292C61.2296 12.2518 61.4001 12.4225 61.6077 12.5412C61.8153 12.6525 62.034 12.7082 62.2639 12.7082C62.4863 12.7082 62.7013 12.6525 62.9089 12.5412C63.1239 12.4225 63.2945 12.2481 63.4205 12.0181C63.554 11.7881 63.6207 11.5061 63.6207 11.1722C63.6207 10.8383 63.554 10.56 63.4205 10.3374C63.2945 10.1074 63.1276 9.9367 62.92 9.82539C62.7124 9.70667 62.4937 9.6473 62.2639 9.6473ZM72.3316 8.41183C71.9015 8.13728 71.4307 8 70.9191 8C70.1258 8 69.5178 8.2931 69.0952 8.8793V8.06678H67.1934V17.2383H69.0952V13.376C69.5401 14.029 70.148 14.3555 70.9191 14.3555C71.4307 14.3555 71.9015 14.2219 72.3316 13.9548C72.769 13.6877 73.1138 13.3129 73.3659 12.8306C73.618 12.3483 73.744 11.7992 73.744 11.1833C73.744 10.5674 73.618 10.0183 73.3659 9.536C73.1138 9.05368 72.769 8.67896 72.3316 8.41183ZM69.7959 9.82539C70.0035 9.70667 70.2222 9.6473 70.452 9.6473C70.6745 9.6473 70.8895 9.70667 71.0971 9.82539C71.3121 9.9367 71.4826 10.1074 71.6087 10.3374C71.7421 10.5674 71.8089 10.8494 71.8089 11.1833C71.8089 11.5172 71.7421 11.7992 71.6087 12.0292C71.4826 12.2518 71.3158 12.4225 71.1082 12.5412C70.9006 12.6525 70.6819 12.7082 70.452 12.7082C70.2296 12.7082 70.0109 12.6525 69.7959 12.5412C69.5883 12.4225 69.4177 12.2481 69.2843 12.0181C69.1582 11.7881 69.0952 11.5061 69.0952 11.1722C69.0952 10.8383 69.1582 10.56 69.2843 10.3374C69.4177 10.1074 69.5883 9.9367 69.7959 9.82539ZM77.2166 8C77.9581 8 78.5735 8.1818 79.0628 8.54539C79.5522 8.90899 79.8117 9.40614 79.8413 10.0369H77.8951C77.8728 9.82168 77.7987 9.67699 77.6726 9.60278C77.5466 9.52116 77.3575 9.48035 77.1054 9.48035C76.8682 9.48035 76.6828 9.52116 76.5493 9.60278C76.4233 9.67699 76.3603 9.78829 76.3603 9.9367C76.3603 10.1074 76.453 10.2335 76.6383 10.3151C76.8311 10.3893 77.1425 10.4747 77.5725 10.5711C78.0396 10.6676 78.4252 10.7715 78.7292 10.8828C79.0406 10.9867 79.3075 11.161 79.5299 11.4059C79.7524 11.6434 79.8636 11.9699 79.8636 12.3854C79.8636 12.7712 79.7487 13.1126 79.5188 13.4094C79.2964 13.7062 78.985 13.9399 78.5846 14.1106C78.1916 14.2739 77.7505 14.3555 77.2611 14.3555C76.49 14.3555 75.8524 14.1848 75.3482 13.8435C74.844 13.4947 74.5697 12.9827 74.5252 12.3075H76.4715C76.5012 12.5078 76.5827 12.6525 76.7162 12.7416C76.8496 12.8306 77.035 12.8751 77.2722 12.8751C77.4947 12.8751 77.6763 12.8232 77.8172 12.7193C77.9655 12.6154 78.0396 12.4893 78.0396 12.3409C78.0396 12.1628 77.9395 12.0329 77.7394 11.9513C77.5392 11.8623 77.2241 11.7732 76.794 11.6842C76.3269 11.5877 75.9414 11.4875 75.6374 11.3837C75.3408 11.2798 75.0813 11.1128 74.8589 10.8828C74.6438 10.6453 74.5363 10.33 74.5363 9.9367C74.5363 9.58052 74.6364 9.25774 74.8366 8.96835C75.0442 8.67154 75.3482 8.4378 75.7486 8.26713C76.1564 8.08904 76.6457 8 77.2166 8ZM86.8889 11.7955C86.9186 11.61 86.9334 11.4096 86.9334 11.1944C86.9334 10.5266 86.7925 9.95154 86.5108 9.46922C86.2365 8.9869 85.8583 8.6233 85.3764 8.37843C84.8945 8.12614 84.3532 8 83.7527 8C83.1595 8 82.6294 8.12985 82.1623 8.38956C81.6952 8.64185 81.3281 9.00916 81.0612 9.49148C80.8017 9.96638 80.672 10.5229 80.672 11.161C80.672 11.7992 80.8017 12.3631 81.0612 12.8529C81.3281 13.3352 81.6952 13.7062 82.1623 13.9659C82.6368 14.2256 83.1706 14.3555 83.7638 14.3555C84.4978 14.3555 85.1317 14.1663 85.6656 13.7878C86.1994 13.402 86.5553 12.8974 86.7332 12.2741H84.6757C84.5423 12.4373 84.4162 12.5561 84.2976 12.6303C84.179 12.697 84.001 12.7304 83.7638 12.7304C83.4524 12.7304 83.1929 12.6451 82.9853 12.4744C82.7777 12.2963 82.6553 12.07 82.6183 11.7955H86.8889ZM84.5756 9.9033C84.7981 10.0814 84.9241 10.3151 84.9538 10.6045H82.6294C82.6813 10.3151 82.811 10.0814 83.0186 9.9033C83.2262 9.7178 83.4709 9.62504 83.7527 9.62504C84.0789 9.62504 84.3532 9.7178 84.5756 9.9033ZM82.3592 25.408L79.5343 22.3472L82.3592 19.2752H80.602L78.3776 21.9576V17.1715H77.1098V25.408H78.3776V22.7701L80.6464 25.408H82.3592ZM53.913 23.7051V20.3103H55.4033V19.2752H53.913V17.7503H52.634V19.2752H51.9111V20.3103H52.634V23.7051C52.634 24.3061 52.786 24.7402 53.09 25.0073C53.394 25.2745 53.8314 25.408 54.4023 25.408H55.4033V24.3506H54.6247C54.3652 24.3506 54.1799 24.3024 54.0687 24.2059C53.9649 24.1021 53.913 23.9351 53.913 23.7051ZM41.5724 19.175C42.0173 19.175 42.4177 19.2752 42.7736 19.4755C43.1369 19.6759 43.4223 19.9727 43.6299 20.3659C43.845 20.7592 43.9525 21.2341 43.9525 21.7906V25.408H42.6957V21.9799C42.6957 21.4308 42.5586 21.0115 42.2842 20.7221C42.0099 20.4253 41.6355 20.2769 41.1609 20.2769C40.6864 20.2769 40.3083 20.4253 40.0265 20.7221C39.7522 21.0115 39.615 21.4308 39.615 21.9799V25.408H38.3472V19.2752H39.615V20.2435C39.8152 19.8948 40.0822 19.6313 40.4158 19.4532C40.7569 19.2677 41.1424 19.175 41.5724 19.175ZM51.1861 22.1691C51.1861 22.3843 51.1713 22.5846 51.1416 22.7701H46.4483C46.478 23.2821 46.6485 23.6902 46.9599 23.9945C47.2787 24.2913 47.6754 24.4397 48.1499 24.4397C48.8394 24.4397 49.3251 24.154 49.6068 23.5826H50.9748C50.7894 24.1466 50.4521 24.6104 49.9627 24.9739C49.4734 25.3301 48.8691 25.5082 48.1499 25.5082C47.5642 25.5082 47.0452 25.3784 46.5929 25.1186C46.1406 24.8515 45.7847 24.4805 45.5252 24.0056C45.2731 23.5233 45.1471 22.9668 45.1471 22.336C45.1471 21.7053 45.2731 21.1525 45.5252 20.6776C45.7847 20.1953 46.1443 19.8243 46.604 19.5646C47.0711 19.3048 47.6049 19.175 48.2055 19.175C48.7838 19.175 49.2991 19.3011 49.7514 19.5534C50.2037 19.8057 50.5559 20.1582 50.808 20.6108C51.06 21.0635 51.1861 21.5829 51.1861 22.1691ZM49.8626 21.9019C49.8552 21.3974 49.6884 20.9967 49.3622 20.6999C49.0359 20.3956 48.6318 20.2435 48.1499 20.2435C47.6976 20.2435 47.3121 20.3956 46.9933 20.6999C46.6819 20.9967 46.5039 21.3974 46.4594 21.9019H49.8626ZM64.8018 19.2752L62.9 25.408H61.5654L60.3309 20.8779L59.0964 25.408H57.7618L55.8489 19.2752H57.139L58.418 24.2059L59.7192 19.2752H61.0427L62.2883 24.1837L63.5561 19.2752H64.8018ZM70.0533 19.5646C69.5788 19.3048 69.0487 19.175 68.4629 19.175C67.8772 19.175 67.3471 19.3048 66.8725 19.5646C66.398 19.8243 66.0236 20.1953 65.7493 20.6776C65.4749 21.1599 65.3378 21.7127 65.3378 22.336C65.3378 22.9668 65.4712 23.5233 65.7381 24.0056C66.0051 24.4805 66.3721 24.8515 66.8392 25.1186C67.3063 25.3784 67.829 25.5082 68.4073 25.5082C68.9931 25.5082 69.5269 25.3784 70.0088 25.1186C70.4982 24.8515 70.8837 24.4768 71.1655 23.9945C71.4472 23.5121 71.5881 22.9593 71.5881 22.336C71.5881 21.7127 71.4509 21.1599 71.1766 20.6776C70.9023 20.1953 70.5278 19.8243 70.0533 19.5646ZM67.5398 20.4884C67.8142 20.3251 68.1145 20.2435 68.4407 20.2435C68.7669 20.2435 69.0709 20.3251 69.3527 20.4884C69.6344 20.6442 69.8605 20.8817 70.0311 21.2007C70.2016 21.5124 70.2869 21.8908 70.2869 22.336C70.2869 22.7812 70.1979 23.1634 70.02 23.4825C69.842 23.7941 69.6085 24.0316 69.3193 24.1948C69.0375 24.3581 68.7336 24.4397 68.4073 24.4397C68.0811 24.4397 67.7808 24.3618 67.5065 24.2059C67.2396 24.0427 67.0245 23.8015 66.8614 23.4825C66.7057 23.1634 66.6279 22.7812 66.6279 22.336C66.6279 21.8908 66.7094 21.5124 66.8725 21.2007C67.0431 20.8817 67.2655 20.6442 67.5398 20.4884ZM74.1093 20.3437C74.2947 19.9727 74.5393 19.687 74.8433 19.4866C75.1547 19.2789 75.5217 19.175 75.9444 19.175V20.4884H75.6218C75.1251 20.4884 74.7469 20.6145 74.4874 20.8668C74.2353 21.1191 74.1093 21.5569 74.1093 22.1802V25.408H72.8414V19.2752H74.1093V20.3437Z" fill="#ffffff"></path>
                    <path fill-rule="evenodd" clip-rule="evenodd" d="M19.2404 29.9878C19.2957 30.1856 19.3471 30.3435 19.3928 30.4657C20.8282 29.8266 22.1155 28.9564 23.2295 27.8921L23.2313 27.8904L23.2332 27.8887C24.4523 26.7407 25.4281 25.3593 26.108 23.8273C26.7427 22.397 27.1038 20.8344 27.147 19.1923C27.0282 19.1686 26.8641 19.1463 26.6476 19.1303C25.969 19.0801 24.9672 19.1035 23.7277 19.1921C22.0541 19.3116 19.9984 19.5459 17.8231 19.8515C18.051 22.3973 18.3198 24.7834 18.6053 26.6988C18.8156 28.1099 19.0315 29.241 19.2404 29.9878ZM19.527 30.7527C19.527 30.7527 19.5264 30.7521 19.5254 30.7506C19.5264 30.7519 19.527 30.7526 19.527 30.7527ZM23.6286 17.8043C21.936 17.9252 19.8756 18.1594 17.7042 18.4633C17.643 17.7159 17.5856 16.9599 17.5325 16.2027C17.5261 16.1111 17.5197 16.0195 17.5135 15.928C20.7832 15.9734 23.9665 15.9377 26.4611 15.8019C27.9313 15.7219 29.1855 15.6059 30.0829 15.4459C30.5254 15.3669 30.9213 15.2706 31.2217 15.1449C31.3696 15.0831 31.5374 14.9968 31.6789 14.8702C31.8233 14.741 32.0005 14.5117 32.0005 14.1851C32.0005 12.226 31.594 10.3559 30.8375 8.65117C30.0805 6.94536 28.9778 5.43295 27.652 4.14808C26.3163 2.85369 24.7137 1.82192 22.9426 1.10472C21.1669 0.385661 19.2211 0 17.1839 0C16.8629 0 16.6314 0.168553 16.4942 0.32239C16.3637 0.468762 16.2785 0.642023 16.2194 0.792739C16.0995 1.09842 16.0162 1.49839 15.9537 1.94138C15.8269 2.84071 15.7631 4.09588 15.7469 5.56517C15.7193 8.05918 15.8286 11.2413 16.0274 14.5102C15.9361 14.5083 15.8448 14.5063 15.7534 14.5042C15.2262 14.4922 14.6996 14.4783 14.1761 14.4623C14.451 12.6047 14.6629 10.8525 14.7776 9.38745C14.8717 8.18508 14.9031 7.14516 14.842 6.39129C14.8121 6.02241 14.7564 5.66773 14.6467 5.38545C14.5552 5.15028 14.2954 4.65505 13.7077 4.65505C11.6704 4.65505 9.72462 5.04071 7.94895 5.75978C6.17788 6.47698 4.57522 7.50874 3.23958 8.80313C1.90876 10.0929 0.826746 11.624 0.0724284 13.3238C-0.0729147 13.6513 0.0189709 13.9712 0.184877 14.1835C0.318689 14.3547 0.496849 14.4589 0.624264 14.5222C0.893788 14.6561 1.26242 14.7613 1.66739 14.8505C2.49707 15.0333 3.69517 15.194 5.11919 15.3324C7.19523 15.5341 9.80285 15.6933 12.5611 15.799C12.4478 16.5005 12.3269 17.2109 12.2001 17.9208C12.1123 18.4123 12.0217 18.903 11.929 19.3899C9.50974 19.827 7.21784 20.3055 5.40533 20.7672C4.19364 21.0758 3.16934 21.3835 2.46021 21.6745C2.11401 21.8166 1.7932 21.9743 1.56089 22.1534C1.44691 22.2413 1.30476 22.3714 1.20871 22.5523C1.09894 22.7589 1.05054 23.0383 1.17563 23.3202C1.9326 25.026 3.03536 26.5384 4.36117 27.8233C5.69681 29.1177 7.29947 30.1494 9.07054 30.8666C9.33767 30.9748 9.60015 30.9346 9.80197 30.8368C9.98296 30.749 10.1177 30.6163 10.2123 30.5044C10.4026 30.2793 10.5699 29.9684 10.7197 29.6352C11.0265 28.9531 11.3498 27.9704 11.6732 26.8117C12.1557 25.0827 12.6557 22.8985 13.1126 20.593C13.6294 20.5031 14.1505 20.4154 14.6723 20.3303C15.2642 20.2338 15.8565 20.1409 16.4442 20.0523C16.6725 22.5901 16.9417 24.9754 17.2292 26.9039C17.4417 28.3293 17.6676 29.5298 17.9005 30.3626C18.0145 30.77 18.1432 31.1387 18.2964 31.4073C18.3701 31.5364 18.4835 31.7044 18.655 31.8288C18.8568 31.9753 19.1614 32.069 19.4848 31.9381C21.2579 31.22 22.8392 30.1886 24.1887 28.9C25.5429 27.6244 26.6257 26.0907 27.3797 24.3916C28.1362 22.6869 28.5427 20.8168 28.5427 18.8577C28.5427 18.5627 28.4007 18.3348 28.2393 18.1875C28.0925 18.0535 27.9207 17.9746 27.7794 17.9245C27.4946 17.8234 27.1332 17.7711 26.7502 17.7427C25.9686 17.6849 24.886 17.7145 23.6286 17.8043ZM16.1446 16.3C16.1354 16.1679 16.1262 16.0358 16.1173 15.9037C15.9855 15.901 15.8537 15.8981 15.7219 15.8951C15.134 15.8818 14.5463 15.866 13.9625 15.8477C13.8398 16.6144 13.7081 17.391 13.5697 18.1655C13.512 18.4884 13.4531 18.8112 13.3932 19.133C13.7441 19.0732 14.0962 19.0145 14.4484 18.9571C15.0745 18.855 15.7019 18.7568 16.3246 18.6633C16.2603 17.8817 16.2001 17.0911 16.1446 16.3ZM26.3855 14.4127C23.9042 14.5478 20.711 14.5828 17.4229 14.5352C17.221 11.2491 17.1107 8.05885 17.1381 5.58054C17.1541 4.12779 17.2174 2.94436 17.3314 2.1356C17.379 1.79821 17.4316 1.55488 17.482 1.39433C19.2335 1.42987 20.899 1.77821 22.4204 2.3943C24.0325 3.04712 25.482 3.98257 26.6837 5.14719C27.8953 6.32133 28.8886 7.68947 29.5658 9.21551C30.2058 10.6578 30.5676 12.2345 30.6058 13.8917C30.4411 13.9499 30.189 14.0137 29.8386 14.0762C29.0263 14.2211 27.8398 14.3335 26.3855 14.4127ZM13.3905 9.27885C13.2756 10.7467 13.0592 12.5237 12.7765 14.4149C9.97801 14.31 7.33682 14.15 5.25377 13.9476C3.84297 13.8105 2.71234 13.6561 1.96681 13.4918C1.8125 13.4578 1.68291 13.4251 1.57596 13.3945C2.23886 12.058 3.13226 10.8446 4.20783 9.80224C5.40956 8.63762 6.85909 7.70218 8.47117 7.04936C9.98822 6.43502 11.6485 6.08692 13.3945 6.04969C13.4172 6.15692 13.4392 6.30585 13.4552 6.50368C13.5072 7.14473 13.4831 8.09604 13.3905 9.27885ZM1.21241 13.2591C1.21249 13.2591 1.21397 13.26 1.21659 13.2618C1.21364 13.26 1.21233 13.2591 1.21241 13.2591ZM13.3334 5.85256C13.3335 5.85224 13.3353 5.8554 13.3388 5.86299C13.3351 5.85667 13.3333 5.85287 13.3334 5.85256ZM5.74872 22.1154C7.38914 21.6976 9.44499 21.2625 11.6407 20.8569C11.2188 22.9371 10.7669 24.8833 10.3331 26.4377C10.0147 27.5785 9.71366 28.4801 9.45084 29.0645C9.37867 29.225 9.31541 29.3477 9.2626 29.4384C7.78254 28.7945 6.44853 27.9087 5.32942 26.8242C4.21742 25.7465 3.28926 24.5054 2.62063 23.1288C2.71416 23.0806 2.83538 23.0245 2.98843 22.9616C3.60508 22.7086 4.55319 22.4199 5.74872 22.1154ZM9.13346 29.624C9.13313 29.6243 9.13297 29.6244 9.13297 29.6245C9.13296 29.6245 9.13373 29.6238 9.13525 29.6223C9.13443 29.623 9.13383 29.6236 9.13346 29.624ZM2.3904 23.2722C2.39033 23.2722 2.39119 23.2713 2.39314 23.2695C2.39143 23.2713 2.39046 23.2722 2.3904 23.2722ZM2.09018 3.47826C2.8601 3.47826 3.48524 2.85535 3.48647 2.08695C3.4877 1.31856 2.86456 0.695652 2.09464 0.695652C1.32472 0.695652 0.699576 1.31856 0.698345 2.08695C0.697114 2.85535 1.32026 3.47826 2.09018 3.47826Z" fill="#ffffff"></path>
                </svg>