<svg xmlns="http://www.w3.org/2000/svg" width="228" height="134" viewBox="0 0 228 134" fill="none">
<path d="M25.8177 45.0453C18.6424 44.3747 11.1318 40.2841 6.70588 34.7183C4.35882 31.7677 0 24.19 0 23.1171C0 22.5135 9.79059 22.0441 12.0035 22.5806C13.9482 22.983 14.4176 23.5194 15.96 27.4088C17.3012 30.7618 18.7765 32.8406 22.3976 36.5288C25.0129 39.1441 28.4329 41.9606 30.0424 42.8324C34.6024 45.3806 33.7977 45.783 25.8177 45.0453Z" fill="#FF6D00"/>
<path d="M45.3988 45.0452C45.1976 44.7099 46.4718 43.637 48.2823 42.6311C55.1223 38.8088 61.8953 30.6947 63.3706 24.6594C63.7729 22.9829 64.1753 22.8488 68.1318 22.3794C72.8259 21.9099 77.7882 22.4464 77.7882 23.4523C77.7882 25.2629 73.3623 32.5052 70.0094 36.1264C65.9859 40.4182 62.9012 42.3629 57.7376 43.8382C53.58 45.0452 45.8682 45.7829 45.3988 45.0452Z" fill="#FF6D00"/>
<path d="M37.7542 41.357C37.0165 40.4852 35.4742 38.1381 34.3342 36.1264C28.9024 26.2687 28.8353 16.0087 34.0659 6.68755C36.8824 1.72519 38.6259 -0.353631 39.6318 0.0487224C41.1742 0.652252 46.1365 9.97343 47.2765 14.3323C48.5506 19.2946 48.5506 22.7146 47.2765 27.677C46.2036 31.7005 43.1859 37.8699 40.6377 41.0217L39.1624 42.8323L37.7542 41.357Z" fill="#FF6D00"/>
<path d="M30.5119 40.9548C27.3601 39.2783 20.8554 32.4383 19.4472 29.2865C17.3013 24.3912 16.0942 18.6912 16.0942 13.3265C16.0942 6.41946 16.5636 5.88299 20.5201 7.8277C22.2636 8.69946 24.6778 10.1748 25.8848 11.1136L28.1648 12.8571L27.7625 18.9595C27.226 26.0677 28.366 31.4324 31.5178 37.6689C32.6578 39.8148 33.5295 41.7595 33.5295 41.8936C33.5295 42.363 32.6578 42.0948 30.5119 40.9548Z" fill="#FF6D00"/>
<path d="M46.74 37.6687C49.9588 31.164 51.3671 23.6534 50.3612 18.2887C49.9588 16.0087 49.7577 13.7287 49.9588 13.1923C50.7636 11.3817 60.4871 5.88284 61.4259 6.75461C61.6271 6.95578 61.7612 10.1075 61.7612 13.7287C61.7612 21.977 60.1518 27.6099 56.2624 32.7734C53.7141 36.1264 46.6059 42.1617 45.1306 42.1617C44.7953 42.1617 45.533 40.1499 46.74 37.6687Z" fill="#FF6D00"/>
<path d="M7.10816 132.923C6.90699 132.32 6.70581 130.845 6.70581 129.637C6.70581 127.29 7.57758 126.62 10.6623 126.62C13.1435 126.62 11.7352 128.43 28.7011 103.552C30.7129 100.601 32.4564 97.7845 32.6576 97.3151C33.0599 96.3092 18.5082 74.1798 15.4235 71.1622C14.2164 70.0222 12.2046 68.8822 10.8635 68.614C8.04699 68.0775 7.3764 67.3398 7.3764 64.7916C7.3764 61.4387 9.85757 60.5669 19.1788 60.5669C29.6399 60.5669 29.774 60.634 35.5411 71.7657C40.6376 81.5563 45.4658 89.7375 46.1364 89.7375C47.0752 89.6704 57.6705 71.5645 57.6705 69.9551C57.6705 69.754 57.067 69.6198 56.3293 69.6198C54.854 69.6198 53.647 67.3398 53.647 64.5904C53.647 61.5057 55.7258 60.9022 66.5223 60.9022C72.2893 60.9022 76.514 61.1704 76.7823 61.5728C76.9835 61.9081 77.2517 63.4504 77.3187 64.9928C77.3858 68.0104 76.0446 69.6198 73.4293 69.6198C72.5576 69.6198 71.2835 70.6257 70.0093 72.3692C68.9364 73.8445 66.9917 76.4598 65.6505 78.2034C61.4929 83.6351 52.9764 96.5775 52.9764 97.4492C52.9764 98.7904 68.3329 121.389 70.814 123.669C72.0211 124.809 74.0329 126.016 75.2399 126.352C77.2517 126.955 77.4529 127.29 77.654 129.705C77.8552 132.052 77.654 132.521 76.1117 133.192C75.1058 133.661 71.1493 133.996 66.5893 133.996H58.8105L56.7317 131.783C55.5917 130.509 51.367 124.005 47.3435 117.299C43.3199 110.593 39.8329 105.027 39.6317 104.826C39.3635 104.692 38.7599 105.094 38.3576 105.697C35.1387 110.392 33.5293 113.074 30.3105 119.243L26.6223 126.285L29.2376 126.486C32.1211 126.754 32.8587 127.425 32.8587 130.107C32.8587 134.063 33.127 133.996 19.7823 133.996C9.18699 133.996 7.44346 133.862 7.10816 132.923Z" fill="#CCCCCC"/>
<path d="M89.6576 133.527C89.5235 133.192 89.7917 130.107 90.2611 126.62C92.3399 110.861 99.1799 97.9861 111.183 87.1226C117.353 81.5567 119.633 79.8802 134.051 70.8273C151.687 59.7626 154.571 56.4767 154.571 47.4908C154.571 41.4555 153.431 38.9744 149.407 36.0908C144.981 32.872 140.488 31.8661 131.838 32.2014C126.003 32.4697 123.321 32.872 119.499 34.2802C114.134 36.2249 108.702 39.2426 105.752 41.992C104.679 42.9979 103.74 43.4673 103.405 43.0649C103.069 42.7297 100.521 39.712 97.7046 36.3591L92.6082 30.2567L94.754 28.2449C97.6376 25.5626 102.6 22.4108 107.831 19.9297C113.866 17.1132 116.816 16.1744 124.059 14.9002C139.415 12.2179 156.515 16.3085 164.831 24.6238C169.055 28.8485 170.799 32.0673 172.073 38.0355C174.554 49.7038 172.006 60.9026 165.3 68.4132C161.008 73.1073 149.675 81.4897 142.5 85.2449C137.403 87.8602 124.595 97.1814 120.639 101.138C116.213 105.631 112.659 111.599 112.458 115.086L112.323 116.897L143.171 117.031L174.018 117.165L174.219 125.547L174.42 133.997H132.173C108.971 133.997 89.7917 133.796 89.6576 133.527Z" fill="#CCCCCC"/>
<path d="M210.364 89.7379C210.498 65.4626 210.364 45.0767 210.162 44.4731C209.827 43.6014 208.084 43.4673 199.433 43.4673H189.106V37.5661V31.5979L194.873 30.4579C201.042 29.2508 207.279 26.5014 209.693 23.9531C210.498 23.0814 211.772 20.9355 212.509 19.192L213.851 15.9731H220.959H228V74.9849V133.997H219.148H210.229L210.364 89.7379Z" fill="#ffffff"/>
</svg>